<?xml version="1.0" encoding="UTF-8"?>
<svg width="488px" height="349px" viewBox="0 0 488 349" version="1.1" xmlns="http://www.w3.org/2000/svg" xmlns:xlink="http://www.w3.org/1999/xlink">
    <!-- Generator: sketchtool 55 (78076) - https://sketchapp.com -->
    <title>527094FA-B6E0-41C1-8D99-2F5200229CA1@2x</title>
    <desc>Created with sketchtool.</desc>
    <defs>
        <linearGradient x1="49.9970919%" y1="-0.000436403449%" x2="49.9970919%" y2="99.9883201%" id="linearGradient-1">
            <stop stop-color="#FFFFFF" offset="0%"></stop>
            <stop stop-color="#52C8EB" offset="100%"></stop>
        </linearGradient>
        <linearGradient x1="49.998635%" y1="-0.000319268203%" x2="49.998635%" y2="100.000735%" id="linearGradient-2">
            <stop stop-color="#FFFFFF" offset="0%"></stop>
            <stop stop-color="#52C8EB" offset="100%"></stop>
        </linearGradient>
        <linearGradient x1="49.6652319%" y1="82.0073664%" x2="50.6695361%" y2="-20.500638%" id="linearGradient-3">
            <stop stop-color="#D2D3D4" offset="0%"></stop>
            <stop stop-color="#9D9E9F" offset="100%"></stop>
        </linearGradient>
        <linearGradient x1="108.416241%" y1="-3.02052403%" x2="29.7122882%" y2="126.027458%" id="linearGradient-4">
            <stop stop-color="#DEF2FA" offset="0%"></stop>
            <stop stop-color="#A5DEF8" offset="100%"></stop>
        </linearGradient>
        <linearGradient x1="0.051368869%" y1="50.0131788%" x2="100.037264%" y2="50.0131788%" id="linearGradient-5">
            <stop stop-color="#DEF2FA" offset="0%"></stop>
            <stop stop-color="#A5DEF8" offset="100%"></stop>
        </linearGradient>
        <linearGradient x1="1389%" y1="1395.5%" x2="-5329%" y2="-5322.5%" id="linearGradient-6">
            <stop stop-color="#A8AAAD" offset="0%"></stop>
            <stop stop-color="#FFFFFF" offset="100%"></stop>
        </linearGradient>
    </defs>
    <g id="Page-1" stroke="none" stroke-width="1" fill="none" fill-rule="evenodd">
        <g id="Desktop-v2-C" transform="translate(-152.000000, -2815.000000)">
            <g id="Analytics" transform="translate(0.000000, 2715.000000)">
                <g id="analytics" transform="translate(152.000000, 90.000000)">
                    <g id="Layer_2-2" fill-rule="nonzero">
                        <g id="Group">
                            <path d="M83.542187,237.187496 C81.024983,227.799478 77.4317451,218.733659 72.8339194,210.170296 C65.8425711,196.731231 59.0914319,182.053192 61.1395303,167.059089 C64.1231799,145.389702 84.1363884,134.011377 102.897981,127.298166 C119.333339,121.39408 136.211187,116.374974 151.028294,106.867752 C173.67116,92.2908543 197.224291,76.2727019 223.546149,69.2939962 C254.34348,61.1268877 288.023321,62.3405757 317.847174,73.8706112 C326.140708,77.0818272 344.396597,83.9846774 362.349065,100.420035 C390.377671,126.04655 398.822916,157.311658 404.069588,177.729429 C410.694302,203.659366 429.177758,277.744901 386.736607,319.566565 C358.088515,347.78481 314.762383,348.391654 310.223696,348.391654 C279.616003,348.391654 269.919142,334.788235 231.940824,337.721314 C217.28807,338.846504 217.642063,340.957815 185.845967,345.104582 C156.869167,348.897357 142.317554,350.08576 130.433527,346.975684 C111.8995,342.10829 94.7940857,329.212856 88.4475091,310.653544 C80.3056858,286.986629 89.7623377,261.233688 83.542187,237.187496 Z" id="Path" stroke="#FFFFFF" stroke-width="0.14" fill="url(#linearGradient-1)" opacity="0.3"></path>
                            <path d="M25.9552224,206.870582 C23.0969719,196.204241 19.0158545,185.903874 13.7930578,176.174391 C5.86615841,160.914794 -1.82053192,144.239227 0.518345894,127.209668 C3.8939155,102.556632 26.6126368,89.7623377 47.9280313,82.0630048 C66.5884835,75.3624359 85.754639,69.6606311 102.594559,58.8512228 C128.322215,42.3273671 155.086563,24.0967628 184.973629,16.182506 C219.98094,6.9028502 258.250038,8.26824914 292.043662,21.3786075 C301.462386,25.0323139 322.208865,32.8580726 342.613993,51.4932397 C374.448017,80.5711801 384.043737,116.172693 389.960466,139.295977 C397.546015,168.740552 418.482133,252.902226 370.275964,300.387767 C337.733956,332.436714 288.516382,333.132056 283.37085,333.132056 C248.603748,333.132056 237.592058,317.68282 194.455566,321.007819 C177.817927,322.272078 178.222489,324.686811 142.10263,329.402494 C109.231915,333.700972 92.6701318,335.066371 79.1678534,331.526448 C58.117953,326.00164 38.7115885,311.298316 31.4800311,290.273701 C22.2762309,263.370284 32.9592133,234.178561 25.9552224,206.870582 Z" id="Path" stroke="#FFFFFF" stroke-width="0.14" fill="url(#linearGradient-2)" opacity="0.3"></path>
                            <ellipse id="Oval" fill="#004D77" opacity="0.15" transform="translate(93.157893, 55.448058) rotate(-22.480000) translate(-93.157893, -55.448058) " cx="93.157893" cy="55.4480578" rx="57.7386756" ry="35.4498021"></ellipse>
                        </g>
                        <g id="Group" transform="translate(112.518987, 137.804152)">
                            <g>
                                <g transform="translate(0.000000, 142.861185)" id="Path">
                                    <path d="M147.235519,57.9283143 C147.235519,47.4602558 147.235519,28.787161 147.235519,18.6604522 L94.3642379,18.6604522 C94.3642379,30.2031303 94.3642379,51.9230875 94.3642379,61.08896 C110.218037,57.7007478 128.271645,54.363106 147.235519,57.9283143 Z" fill="url(#linearGradient-3)"></path>
                                    <path d="M0.391920066,0.0632129139 L0.391920066,5.12024603 C0.391920066,13.2336852 6.96916207,19.8109272 15.0826013,19.8109272 L226.213734,19.8109272 C234.327173,19.8109272 240.904415,13.2336852 240.904415,5.12024603 L240.904415,0.0632129139 L0.391920066,0.0632129139 Z" fill="#DDDDDD"></path>
                                </g>
                                <path d="M226.175806,1.11254728 L15.0446735,1.11254728 C6.94604997,1.13345602 0.391893075,7.70457795 0.391920066,15.8032285 L0.391920066,142.924398 L240.866487,142.924398 L240.866487,15.8032285 C240.866487,11.9070176 239.318723,8.17038533 236.563686,5.41534818 C233.808649,2.66031104 230.072017,1.11254728 226.175806,1.11254728 Z" id="Path" fill="#FFFFFF"></path>
                                <g transform="translate(11.378325, 6.321291)">
                                    <g transform="translate(0.000000, 1.264258)">
                                        <path d="M58.2949492,27.5861156 C57.4710371,27.5861156 56.8031244,26.9182029 56.8031244,26.0942909 L56.8031244,5.66387709 C56.8031244,4.83996502 57.4710371,4.17205232 58.2949492,4.17205232 L111.254728,4.17205232 C112.082132,4.17205232 112.752875,4.84279515 112.752875,5.67019838 C112.752875,6.4976016 112.082132,7.16834444 111.254728,7.16834444 L59.7994165,7.16834444 L59.7994165,26.1322186 C59.7787465,26.9462191 59.1091806,27.5932786 58.2949492,27.5861156 Z" id="Path" fill="#DDDDDD"></path>
                                        <path d="M141.824494,100.066043 L119.067845,100.066043 C118.25852,100.066304 117.596596,99.4212089 117.57602,98.6121457 L117.57602,54.9952351 C117.57602,54.1678319 118.246763,53.497089 119.074166,53.497089 C119.901569,53.497089 120.572312,54.1678319 120.572312,54.9952351 L120.572312,97.0823932 L141.773923,97.0823932 C142.601327,97.0823932 143.272069,97.753136 143.272069,98.5805392 C143.272069,99.4079424 142.601327,100.078685 141.773923,100.078685 L141.824494,100.066043 Z" id="Path" fill="#E6E7E7"></path>
                                        <g transform="translate(0.000000, 10.114066)" fill="#68CCE5">
                                            <g transform="translate(68.269947, 16.435358)">
                                                <path d="M1.76996159,40.2286984 L52.7574979,1.03669179 L53.1367754,1.5423951 C63.2408519,14.6781343 67.2062901,31.52549 64.0220392,47.7889629 L63.9082559,48.3705217 L1.76996159,40.2286984 Z" id="Path"></path>
                                                <path d="M52.6437147,1.85845967 C62.6612039,14.8441184 66.5873777,31.5211408 63.4151952,47.6119667 L3.36292702,39.7988506 L52.6689999,1.87110225 L52.6437147,1.85845967 Z M52.8965663,0.101140662 L51.8978023,0.872338212 L2.59172947,38.8000865 L0.176996159,40.6585462 L3.19857344,41.0504663 L63.2508416,48.8635824 L64.4266018,49.0152934 L64.6541683,47.8521758 C67.8768914,31.4017185 63.865168,14.3599541 53.6424787,1.07461954 L52.8712812,0.0758554967 L52.8965663,0.101140662 Z" id="Shape"></path>
                                            </g>
                                            <path d="M112.961477,68.7503652 L52.9092089,60.937249 L52.9092089,60.937249 L0.126425828,54.0723265 C-1.26584628,75.4834656 9.48241869,95.8627887 27.93854,106.805681 C46.3946613,117.748572 69.432052,117.401236 87.5498857,105.906916 C88.9995686,104.988222 90.4155378,103.997886 91.7977936,102.935909 C102.785049,94.5027804 110.311679,82.3450707 112.961477,68.7503652 Z" id="Path"></path>
                                            <path d="M22.2383031,12.6425828 C20.8560474,13.7045597 19.5370046,14.8213212 18.2811747,15.9928672 C7.57325269,25.8904236 1.07443918,39.5216397 0.126425828,54.0723265 L52.9092089,60.937249 L52.9092089,60.937249 L102.215282,23.0095007 C92.9855921,11.0274936 79.3734275,3.20350183 64.3742424,1.25925084 C49.3750574,-0.685000143 34.2179329,3.4098078 22.2383031,12.6425828 Z" id="Path"></path>
                                        </g>
                                        <circle id="Oval" fill="#4687C7" cx="122.582483" cy="6.86492245" r="6.22015073"></circle>
                                        <circle id="Oval" fill="#4687C7" cx="152.937324" cy="98.5742179" r="6.22015073"></circle>
                                    </g>
                                    <g transform="translate(163.089318, 0.000000)">
                                        <g>
                                            <g>
                                                <g>
                                                    <rect id="Rectangle" fill="#FFFFFF" x="1.56768026" y="1.2516157" width="58.4340176" height="128.891131" rx="9.81"></rect>
                                                    <path d="M47.5993242,1.88374483 C50.7297399,1.87029502 53.7365556,3.10443069 55.9548542,5.31323919 C58.1731527,7.52204769 59.420168,10.5235448 59.4201391,13.6539894 L59.4201391,117.740373 C59.4201391,124.2409 54.1504211,129.510618 47.6498945,129.510618 L13.970054,129.510618 C7.46952739,129.510618 2.1998094,124.2409 2.1998094,117.740373 L2.1998094,13.6539894 C2.1998094,10.5323265 3.43988518,7.53851869 5.64723422,5.33116965 C7.85458326,3.12382061 10.848391,1.88374483 13.970054,1.88374483 L47.5866816,1.88374483 L47.5993242,1.88374483 Z M47.5866816,0.619486556 L13.970054,0.619486556 C6.77418561,0.626455925 0.942520495,6.45812104 0.935551126,13.6539894 L0.935551126,117.740373 C0.942520495,124.936242 6.77418561,130.767907 13.970054,130.774876 L47.5866816,130.774876 C51.0535636,130.788315 54.3832423,129.421381 56.8406393,126.975844 C59.2980363,124.530307 60.681064,121.20728 60.6843973,117.740373 L60.6843973,13.6539894 C60.677428,6.45812104 54.8457629,0.626455925 47.6498945,0.619486556 L47.5866816,0.619486556 Z" id="Shape" fill="#68CCE5"></path>
                                                </g>
                                                <rect id="Rectangle" fill="#68CCE5" x="12.4655866" y="9.30494093" width="36.6382049" height="6.76378179" rx="2.54"></rect>
                                            </g>
                                            <g transform="translate(5.057033, 26.549424)" fill="#4687C7">
                                                <circle id="Oval" cx="7.40855351" cy="7.40855351" r="6.64999854"></circle>
                                                <g transform="translate(17.699616, 2.528517)" id="Path">
                                                    <path d="M18.4455283,2.52851656 L13.3884952,2.52851656 C12.8089638,2.52851656 12.3391608,2.05871356 12.3391608,1.47918219 C12.3391608,0.899650815 12.8089638,0.429847814 13.3884952,0.429847814 L18.4455283,0.429847814 C19.0250596,0.429847814 19.4948626,0.899650815 19.4948626,1.47918219 C19.4948626,2.05871356 19.0250596,2.52851656 18.4455283,2.52851656 Z"></path>
                                                    <path d="M9.86121457,2.52851656 L1.92167258,2.52851656 C1.34214121,2.52851656 0.872338212,2.05871356 0.872338212,1.47918219 C0.872338212,0.899650815 1.34214121,0.429847814 1.92167258,0.429847814 L9.86121457,0.429847814 C10.4407459,0.429847814 10.9105489,0.899650815 10.9105489,1.47918219 C10.9105489,2.05871356 10.4407459,2.52851656 9.86121457,2.52851656 L9.86121457,2.52851656 Z"></path>
                                                    <path d="M29.7227121,9.33022609 L1.90903,9.33022609 C1.32949863,9.33022609 0.859695629,8.86042309 0.859695629,8.28089172 C0.859695629,7.70136035 1.32949863,7.23155735 1.90903,7.23155735 L29.7227121,7.23155735 C30.3022435,7.23155735 30.7720465,7.70136035 30.7720465,8.28089172 C30.7720465,8.86042309 30.3022435,9.33022609 29.7227121,9.33022609 Z"></path>
                                                </g>
                                            </g>
                                            <g transform="translate(5.057033, 48.041815)" fill="#4687C7">
                                                <circle id="Oval" cx="7.40855351" cy="7.5602645" r="6.64999854"></circle>
                                                <g transform="translate(17.699616, 2.528517)" id="Path">
                                                    <path d="M21.9348811,2.66758497 L1.92167258,2.66758497 C1.34214121,2.66758497 0.872338212,2.19778197 0.872338212,1.6182506 C0.872338212,1.03871923 1.34214121,0.568916225 1.92167258,0.568916225 L21.9348811,0.568916225 C22.5144125,0.568916225 22.9842155,1.03871923 22.9842155,1.6182506 C22.9842155,2.19778197 22.5144125,2.66758497 21.9348811,2.66758497 Z"></path>
                                                    <path d="M29.7227121,9.48193708 L7.06720377,9.48193708 C6.4876724,9.48193708 6.0178694,9.01213408 6.0178694,8.43260271 C6.0178694,7.85307134 6.4876724,7.38326834 7.06720377,7.38326834 L29.7227121,7.38326834 C30.3022435,7.38326834 30.7720465,7.85307134 30.7720465,8.43260271 C30.7720465,9.01213408 30.3022435,9.48193708 29.7227121,9.48193708 L29.7227121,9.48193708 Z"></path>
                                                    <path d="M3.86863033,9.48193708 L1.92167258,9.48193708 C1.34214121,9.48193708 0.872338212,9.01213408 0.872338212,8.43260271 C0.872338212,7.85307134 1.34214121,7.38326834 1.92167258,7.38326834 L3.86863033,7.38326834 C4.4481617,7.38326834 4.9179647,7.85307134 4.9179647,8.43260271 C4.9179647,9.01213408 4.4481617,9.48193708 3.86863033,9.48193708 L3.86863033,9.48193708 Z"></path>
                                                </g>
                                            </g>
                                        </g>
                                        <g transform="translate(6.321291, 67.005689)">
                                            <path d="M48.3199514,3.98241358 C48.3199514,1.92961571 46.6558299,0.265494238 44.603032,0.265494238 L4.32376331,0.265494238 C2.27096544,0.265494238 0.606843973,1.92961571 0.606843973,3.98241358 L0.606843973,5.99258424 L48.3199514,5.99258424 L48.3199514,3.98241358 Z" id="Path" fill="#68CCE5"></path>
                                            <circle id="Oval" fill="#FFFFFF" cx="4.80418146" cy="3.05950503" r="1.15047503"></circle>
                                            <circle id="Oval" fill="#FFFFFF" cx="9.03944669" cy="3.05950503" r="1.15047503"></circle>
                                        </g>
                                        <g transform="translate(6.321291, 72.062722)" id="Path">
                                            <path d="M21.3533223,46.5879175 L32.301799,36.7140604 L43.8824048,34.0211903 L48.332594,21.7325998 L48.332594,0.935551126 L0.606843973,0.935551126 L0.606843973,49.8497039 C0.608358771,50.6211736 0.851527046,51.3727846 1.30218603,51.998943 L13.5402062,44.4892488 L21.3533223,46.5879175 Z" fill="#FFFFFF"></path>
                                            <path d="M40.4562649,27.2574085 L32.301799,21.4038926 L15.8664414,43.2249905 L10.1393514,39.4322157 L1.28954344,52.0747985 C1.9827734,53.056599 3.10924804,53.6410461 4.31112073,53.6424787 L44.5903895,53.6424787 C46.6431873,53.6424787 48.3073088,51.9783573 48.3073088,49.9255594 L48.3073088,7.9268994 L40.4562649,27.2574085 Z" stroke="#68CCE5" stroke-width="1.53" fill="url(#linearGradient-4)"></path>
                                        </g>
                                        <path d="M41.1389644,83.1376244 C41.1763231,82.7245595 40.8802956,82.3559215 40.4689075,82.3032139 L36.423281,81.7595828 C36.150017,81.7234488 35.8782334,81.8358441 35.7103084,82.0544306 C35.5423834,82.2730171 35.5038288,82.5645863 35.6091677,82.8193068 C35.7145067,83.0740274 35.9477357,83.2532013 36.2209997,83.2893353 L38.7495162,83.6180425 L16.7387796,105.628779 C16.5182085,105.817103 16.4219476,106.113255 16.4896386,106.395275 C16.5573296,106.677296 16.7775252,106.897491 17.0595455,106.965182 C17.3415657,107.032873 17.6377178,106.936612 17.8260417,106.716041 L39.5965693,84.9455137 L39.5965693,87.2338212 C39.5931886,87.4383635 39.6712148,87.6358684 39.8134773,87.782873 C39.9557398,87.9298776 40.150581,88.0143356 40.3551242,88.0176613 L40.4562649,88.0176613 C40.8425146,87.9730617 41.1351567,87.6479038 41.1389644,87.2591063 L41.1389644,83.1755521 C41.1389644,83.1755521 41.1516069,83.1629095 41.1389644,83.1376244 Z" id="Path" fill="#68CCE5"></path>
                                    </g>
                                </g>
                            </g>
                            <path d="M129.320979,155.124491 L111.937428,155.124491 C110.645701,155.124491 109.59855,154.077339 109.59855,152.785613 C109.59855,151.493886 110.645701,150.446735 111.937428,150.446735 L129.320979,150.446735 C130.612706,150.446735 131.659857,151.493886 131.659857,152.785613 C131.659857,154.077339 130.612706,155.124491 129.320979,155.124491 L129.320979,155.124491 Z" id="Path" fill="#FFFFFF"></path>
                        </g>
                        <g id="Group" transform="translate(271.815530, 53.098848)">
                            <g>
                                <g>
                                    <g>
                                        <path d="M69.3698517,95.3756445 L69.572133,95.0469373 C71.3491831,92.2851865 72.2117189,89.0340902 72.0374367,85.754639 C71.9071571,84.0377061 71.479368,82.3564948 70.7731784,80.786104 L41.3159605,80.786104 C39.9733007,80.7862134 38.6314872,80.7187008 37.2956192,80.5838226 C16.3081421,78.4542817 0.675184699,60.2447846 1.74746613,39.1768148 C2.81974757,18.108845 20.2207244,1.58065252 41.3159605,1.59296543 L131.735713,1.59296543 C153.604294,1.59296543 171.332282,19.3209533 171.332282,41.1895347 C171.332282,63.058116 153.604294,80.786104 131.735713,80.786104 L87.9418058,80.786104 C87.1665726,82.6755398 86.1917809,84.4767853 85.0340118,86.1592016 C81.5102774,91.1333079 76.5918346,94.95192 70.8996042,97.1329635 L69.8376273,97.5501687 L69.3698517,95.3756445 Z" id="Path" fill="url(#linearGradient-5)"></path>
                                        <path d="M131.798925,2.52851656 C153.136852,2.52851656 170.434658,19.8263234 170.434658,41.1642495 L170.434658,41.1642495 C170.448102,51.4151985 166.381881,61.2501614 159.133359,68.4986832 C151.884837,75.747205 142.049874,79.8134264 131.798925,79.7999825 L87.2338212,79.7999825 C86.4501978,81.8435298 85.4274634,83.7871495 84.1869587,85.5902854 C80.7702741,90.4112509 76.0012026,94.1112409 70.482399,96.2226975 L70.3433306,95.5399981 C72.2208475,92.605948 73.1316517,89.157272 72.9477026,85.6787835 C72.809751,83.6418656 72.2818418,81.6504035 71.392665,79.8126251 L41.3791734,79.8126251 C40.0659928,79.8113035 38.7537134,79.7437907 37.4473302,79.6103438 C17.7353276,77.593843 2.74430959,60.9917684 2.74344046,41.1768921 L2.74344046,41.1768921 C2.74008672,30.9278683 6.80914488,21.0974702 14.0551139,13.8491302 C21.3010828,6.60079017 31.1301491,2.52851601 41.3791734,2.52851656 L131.798925,2.52851656 L131.798925,2.52851656 Z M131.798925,0.594201391 L41.3791734,0.594201391 C19.7522745,0.553367441 1.8979005,17.4893817 0.797704742,39.0883167 C-0.302491013,60.6872518 15.7385804,79.3498152 37.2576915,81.5067312 C38.6272763,81.6429754 40.0028294,81.7104872 41.3791734,81.7090125 L70.1916196,81.7090125 C70.694968,83.0127834 70.997619,84.3853693 71.089243,85.7799242 C71.2506299,88.8542824 70.4412655,91.9015614 68.7756503,94.4906637 L68.3584451,95.148078 L68.5227987,95.906633 L68.6618671,96.5893324 L69.1296426,98.8270696 L71.2535965,97.9926591 C77.1317565,95.726444 82.2049736,91.7664307 85.8304945,86.6143346 C86.9055633,85.0543108 87.8284856,83.394744 88.5865775,81.6584422 L131.798925,81.6584422 C154.198162,81.6584418 172.35633,63.500273 172.35633,41.1010366 C172.35633,18.7018003 154.198162,0.543631393 131.798925,0.54363106 L131.798925,0.594201391 Z" id="Shape" fill="#68CCE5"></path>
                                    </g>
                                    <path d="M69.723844,96.5514047 C69.9008402,96.3111956 70.1410493,95.9698459 70.3939009,95.5526406 L70.5329693,96.2353401 L69.723844,96.5514047 Z" id="Path" fill="url(#linearGradient-6)"></path>
                                    <path d="M91.8736491,11.1634006 L69.5342053,15.8917266 L57.4731813,34.4131103 L67.0689016,79.8379103 L41.3791734,79.8379103 C40.0659928,79.8365886 38.7537134,79.7690759 37.4473302,79.6356289 L42.7192872,7.83840132 L91.8736491,11.1634006 Z" id="Path" fill="#FFFFFF"></path>
                                    <g transform="translate(45.513298, 35.399232)" fill="#68CCE5" id="Path">
                                        <g>
                                            <g transform="translate(1.264258, 0.000000)">
                                                <path d="M55.6273642,7.25684252 C56.2697363,7.29873634 56.8244435,6.81195251 56.8663373,6.1695804 C56.9082312,5.52720828 56.4214473,4.97250113 55.7790752,4.93060728 L9.38079642,1.78260417 C8.96525449,1.75550356 8.56681991,1.95215056 8.33557916,2.29847014 C8.1043384,2.64478973 8.07542245,3.0881677 8.25972366,3.46158784 C8.44402486,3.83500799 8.81354349,4.08173889 9.22908543,4.1088394 L55.6273642,7.25684252 Z"></path>
                                                <path d="M5.05703311,3.79277483 C5.69940523,3.83466867 6.25411239,3.34788484 6.29600622,2.70551271 C6.33790006,2.06314059 5.85111623,1.50843344 5.20874411,1.4665396 L1.9848855,1.26425828 C1.34251338,1.22236445 0.787806235,1.70914828 0.745912401,2.3515204 C0.704018568,2.99389251 1.19080239,3.54859967 1.8331745,3.59049351 L5.05703311,3.79277483 Z"></path>
                                            </g>
                                            <path d="M42.1377284,13.2367842 C42.7801005,13.278678 43.3348077,12.7918942 43.3767015,12.1495221 C43.4185953,11.5071499 42.9318115,10.9524428 42.2894394,10.9105489 L2.78136821,8.23032139 C2.13899609,8.18842756 1.58428893,8.67521139 1.5423951,9.31758351 C1.50050127,9.95995563 1.9872851,10.5146628 2.62965722,10.5565566 L42.1377284,13.2367842 Z"></path>
                                            <path d="M14.425187,18.4202431 C15.0675591,18.4621369 15.6222662,17.9753531 15.6641601,17.332981 C15.7060539,16.6906089 15.2192701,16.1359017 14.5768979,16.0940079 L2.30095007,15.2595974 C1.88540814,15.2324968 1.48697357,15.4291438 1.25573282,15.7754634 C1.02449207,16.121783 0.995576112,16.5651609 1.17987732,16.9385811 C1.36417852,17.3120012 1.73369714,17.5587321 2.14923907,17.5858326 L14.425187,18.4202431 Z"></path>
                                        </g>
                                        <g transform="translate(0.000000, 21.492391)">
                                            <path d="M41.3033179,5.85351583 C41.9456901,5.89540966 42.5003972,5.40862583 42.5422911,4.76625371 C42.5841849,4.12388159 42.0974011,3.56917443 41.4550289,3.5272806 L1.93431517,0.847053046 C1.29194309,0.805159282 0.737236004,1.2919431 0.695342173,1.93431517 C0.653448342,2.57668725 1.1402321,3.13139438 1.78260417,3.17328828 L41.3033179,5.85351583 Z"></path>
                                            <g transform="translate(0.000000, 7.585550)">
                                                <path d="M29.8491379,4.56397238 C30.4915101,4.60586622 31.0462172,4.11908239 31.0881111,3.47671026 C31.1300049,2.83433814 30.6432211,2.27963099 30.0008489,2.23773715 L18.4960986,1.45389702 C17.8537265,1.41200319 17.2990193,1.89878702 17.2571255,2.54115914 C17.2152317,3.18353126 17.7020155,3.73823842 18.3443876,3.78013225 L29.8491379,4.56397238 Z"></path>
                                                <path d="M13.5907765,3.46406768 C14.2331486,3.50596152 14.7878558,3.01917768 14.8297496,2.37680556 C14.8716434,1.73443344 14.3848596,1.17972628 13.7424875,1.13783245 L1.4665396,0.303421987 C1.0509977,0.276321421 0.652563164,0.472968436 0.421322437,0.819288001 C0.19008171,1.16560757 0.161165758,1.6089855 0.34546694,1.98240563 C0.529768122,2.35582575 0.899286703,2.60255667 1.31482861,2.62965722 L13.5907765,3.46406768 Z"></path>
                                            </g>
                                        </g>
                                    </g>
                                    <path d="M71.4558779,79.8252677 L67.0689016,79.8252677 L57.4731813,34.4004677 L69.5342053,15.8917266 L91.8736491,11.1760432 L125.793699,4.00769874 L130.446169,26.4356406 L141.495786,78.6115797 C138.329962,79.4413339 135.071668,79.8661441 131.798925,79.875838 L87.2338212,79.875838 C86.4501978,81.9193853 85.4274634,83.863005 84.1869587,85.6661409 C80.7702741,90.4871064 76.0012026,94.1870964 70.482399,96.298553 L70.3433306,95.6158536 C72.2208475,92.6818035 73.1316517,89.2331275 72.9477026,85.754639 C72.8376386,83.7004431 72.3310488,81.6869634 71.4558779,79.8252677 L71.4558779,79.8252677 Z" id="Path" fill="#FFFFFF"></path>
                                </g>
                                <polygon id="Path" fill="#DDDDDD" points="72.7580639 31.1766091 57.4731813 34.4004677 69.5342053 15.879084"></polygon>
                            </g>
                            <g transform="translate(64.477172, 22.756649)" fill="#68CCE5">
                                <g>
                                    <path d="M3.2176516,8.04380708 L39.2040687,8.04380708 C40.3196839,8.04380708 41.2240687,8.94819189 41.2240687,10.0638071 L41.2240687,11.4095473 C41.2240687,12.5251625 40.3196839,13.4295473 39.2040687,13.4295473 L3.2176516,13.4295473 C2.10203641,13.4295473 1.1976516,12.5251625 1.1976516,11.4095473 L1.1976516,10.0638071 C1.1976516,8.94819189 2.10203641,8.04380708 3.2176516,8.04380708 Z" id="Rectangle" transform="translate(21.210860, 10.736677) rotate(168.070000) translate(-21.210860, -10.736677) "></path>
                                    <circle id="Oval" transform="translate(53.212201, 6.967301) rotate(-11.930000) translate(-53.212201, -6.967301) " cx="53.2122007" cy="6.96730116" r="5.56273642"></circle>
                                    <path d="M16.1423317,15.1344508 L41.5988086,15.1344508 C42.1345248,15.1344508 42.5688086,15.5687346 42.5688086,16.1044508 L42.5688086,16.7561803 C42.5688086,17.2918965 42.1345248,17.7261803 41.5988086,17.7261803 L16.1423317,17.7261803 C15.6066155,17.7261803 15.1723317,17.2918965 15.1723317,16.7561803 L15.1723317,16.1044508 C15.1723317,15.5687346 15.6066155,15.1344508 16.1423317,15.1344508 Z" id="Rectangle" transform="translate(28.870570, 16.430316) rotate(168.070000) translate(-28.870570, -16.430316) "></path>
                                </g>
                                <g transform="translate(7.585550, 18.963874)" id="Path">
                                    <path d="M52.4793611,2.52851656 C52.8926125,2.44937073 53.2308988,2.15320704 53.3639826,1.75404609 C53.4970665,1.35488515 53.4041954,0.914969753 53.1211242,0.603663768 C52.8380529,0.292357782 52.4089218,0.158204428 51.998943,0.252851656 L31.3536053,4.5513298 C30.7360126,4.69390652 30.3462813,5.30472326 30.4772056,5.92489077 C30.6081298,6.54505828 31.211501,6.94622008 31.8340234,6.8269947 L52.4793611,2.52851656 Z"></path>
                                    <g transform="translate(0.000000, 7.585550)">
                                        <g>
                                            <path d="M54.2872505,3.43878252 C54.9048432,3.2962058 55.2945744,2.68538905 55.1636502,2.06522154 C55.0327259,1.44505403 54.4293548,1.04389224 53.8068323,1.16311762 L8.2935343,10.7841231 C7.67594157,10.9266998 7.28621033,11.5375166 7.41713458,12.1576841 C7.54805883,12.7778516 8.15142999,13.1790134 8.77395245,13.059788 L54.2872505,3.43878252 Z"></path>
                                            <path d="M4.6271853,13.9068411 C5.04043667,13.8276952 5.37872301,13.5315315 5.51180682,13.1323706 C5.64489063,12.7332096 5.55201961,12.2932943 5.26894833,11.9819883 C4.98587706,11.6706823 4.55674601,11.5365289 4.14676715,11.6311762 L1.01140662,12.2885905 C0.598155245,12.3677363 0.259868905,12.6639 0.126785095,13.0630609 C-0.006298714,13.4622219 0.0865723135,13.9021373 0.369643586,14.2134432 C0.652714859,14.5247492 1.08184591,14.6589026 1.49182477,14.5642554 L4.6271853,13.9068411 Z"></path>
                                        </g>
                                        <g transform="translate(1.264258, 7.585550)">
                                            <path d="M54.4642466,2.66758497 C54.877498,2.58843914 55.2157843,2.29227545 55.3488681,1.8931145 C55.4819519,1.49395356 55.3890809,1.05403816 55.1060096,0.742732179 C54.8229384,0.431426193 54.3938073,0.297272838 53.9838285,0.391920066 L43.0606369,2.70551271 C42.6473856,2.78465854 42.3090992,3.08082223 42.1760154,3.47998318 C42.0429316,3.87914412 42.1358026,4.31905952 42.4188739,4.6303655 C42.7019452,4.94167149 43.1310762,5.07582484 43.5410551,4.98117762 L54.4642466,2.66758497 Z"></path>
                                            <path d="M40.4562649,5.63859192 C40.8695163,5.5594461 41.2078026,5.2632824 41.3408864,4.86412146 C41.4739702,4.46496051 41.3810992,4.02504512 41.0980279,3.71373913 C40.8149567,3.40243315 40.3858256,3.26827979 39.9758467,3.36292702 L1.22633053,11.5553207 C0.608737799,11.6978974 0.219006557,12.3087141 0.349930809,12.9288816 C0.480855061,13.5490491 1.08422622,13.9502109 1.70674868,13.8309856 L40.4562649,5.63859192 Z"></path>
                                        </g>
                                        <g transform="translate(2.528517, 13.906841)">
                                            <path d="M54.6538854,3.24914377 C55.2714781,3.10656706 55.6612093,2.49575031 55.5302851,1.8755828 C55.3993608,1.25541529 54.7959897,0.854253496 54.1734672,0.973478874 L34.4889658,5.13288861 C33.8713731,5.27546533 33.4816418,5.88628207 33.6125661,6.50644958 C33.7434904,7.12661709 34.3468615,7.52777889 34.969384,7.40855351 L54.6538854,3.24914377 Z"></path>
                                            <path d="M29.8364954,8.49581563 C30.2497467,8.41666981 30.5880331,8.12050611 30.7211169,7.72134517 C30.8542007,7.32218422 30.7613297,6.88226883 30.4782584,6.57096284 C30.1951871,6.25965685 29.7660561,6.1255035 29.3560772,6.22015073 L18.0788934,8.59695629 C17.665642,8.67610211 17.3273557,8.9722658 17.1942718,9.37142675 C17.061188,9.7705877 17.1540591,10.2105031 17.4371303,10.5218091 C17.7202016,10.8331151 18.1493327,10.9672684 18.5593115,10.8726212 L29.8364954,8.49581563 Z"></path>
                                            <path d="M13.9068411,11.8587426 C14.3200924,11.7795968 14.6583788,11.4834331 14.7914626,11.0842722 C14.9245464,10.6851112 14.8316754,10.2451958 14.5486041,9.93388986 C14.2655328,9.62258387 13.8364018,9.48843052 13.4264229,9.58307775 L1.39068411,12.1115943 C0.773091376,12.254171 0.383360133,12.8649878 0.514284385,13.4851553 C0.645208637,14.1053228 1.24857979,14.5064846 1.87110225,14.3872592 L13.9068411,11.8587426 Z"></path>
                                        </g>
                                    </g>
                                </g>
                            </g>
                        </g>
                        <g id="Group" transform="translate(59.420139, 89.762338)">
                            <g id="Path">
                                <g transform="translate(25.285166, 18.963874)" fill="#025387">
                                    <path d="M15.5250917,72.2902883 L15.4365936,72.1638625 L0.164353576,50.089913 L70.9628171,1.13783245 L86.2476997,23.2370671 L86.3235552,23.3382078 C77.3776283,33.5410659 67.2854557,42.6787455 56.2468508,50.5703311 C43.6810726,59.5598042 29.9903606,66.862084 15.5250917,72.2902883 L15.5250917,72.2902883 Z"></path>
                                    <path d="M56.2468508,50.5703311 C67.2817198,42.6740329 77.3696473,33.5321137 86.3109126,23.3255652 L86.8166159,24.058835 C87.3631405,24.8508088 87.31666,25.909533 86.7028327,26.6505645 C68.6302294,48.2578532 45.0362219,64.5595646 18.4328857,73.8200408 C17.5042976,74.1653391 16.4599839,73.8311587 15.9043691,73.0109156 L15.3986658,72.2776457 C29.9072636,66.8634341 43.6410218,59.5651169 56.2468508,50.5703311 L56.2468508,50.5703311 Z"></path>
                                </g>
                                <polygon fill="#4687C7" points="72.6316381 61.6073059 0.505703311 80.0022638 45.0328799 19.4190071 115.312998 0.619486556"></polygon>
                            </g>
                            <g transform="translate(25.285166, 31.606457)" fill="#FAAC1D">
                                <path d="M8.0786104,66.7275519 C7.55717012,66.8793841 6.99667598,66.8165352 6.52181294,66.5529862 C6.0469499,66.2894372 5.69710165,65.8470461 5.55009384,65.3242252 L0.707984636,48.4716624 C0.554079839,47.9409837 0.622533232,47.3705388 0.897623377,46.8913395 L27.1309826,1.37804152 C27.6930583,0.400518817 28.9411493,0.0637323928 29.9186721,0.625807971 C30.8961948,1.18788355 31.2329813,2.43597457 30.6709058,3.41349735 L4.88003695,48.180883 L9.48193708,64.1990354 C9.63376928,64.7204756 9.57092035,65.2809698 9.30737136,65.7558328 C9.04382237,66.2306959 8.60143128,66.5805441 8.0786104,66.7275519 Z" id="Path"></path>
                                <g transform="translate(3.792775, 64.477172)">
                                    <g transform="translate(3.792775, 6.321291)" id="Path">
                                        <polygon points="0.594201391 1.28954344 0.91026596 27.0171994 5.00646278 26.4356406 1.26425828 1.0999047"></polygon>
                                        <polygon points="3.26178636 0.530988477 2.59172947 0.720627218 12.8701493 24.1726183 16.6502815 22.4911548"></polygon>
                                        <polygon points="1.26425828 1.0999047 5.00646278 26.4356406 9.26701318 26.4356406 12.8701493 24.1726183 2.59172947 0.720627218"></polygon>
                                    </g>
                                    <g id="Shape">
                                        <path d="M3.72956192,0.290779404 C1.16017863,1.02859613 -0.325189129,3.70899816 0.411264175,6.27877257 C1.14771748,8.84854698 3.827331,10.3353368 6.39749581,9.60024709 C8.96766062,8.86515741 10.455872,6.18633316 9.72214616,3.61577867 C9.36929979,2.37960738 8.5393611,1.33448759 7.41525917,0.71077702 C6.29115723,0.0870664516 4.96516999,-0.064034261 3.72956192,0.290779404 L3.72956192,0.290779404 Z M6.06843973,8.41996013 C4.14644527,8.94333867 2.1631643,7.8136318 1.63303729,5.89348775 C1.10291028,3.9733437 2.22564318,1.98610646 4.14391312,1.44923752 C6.06218306,0.912368584 8.05335205,2.02811367 8.59695629,3.94448583 C8.86045625,4.87340422 8.74147208,5.86912646 8.26651385,6.70980255 C7.79155561,7.55047863 7.00008341,8.16626413 6.06843973,8.41996013 L6.06843973,8.41996013 Z"></path>
                                        <path d="M4.07091165,1.47918219 C2.1545395,2.02278643 1.03879441,4.01395541 1.57566335,5.93222535 C2.11253229,7.85049529 4.09976953,8.9732282 6.01991358,8.44310119 C7.94005763,7.91297418 9.0697645,5.92969321 8.54638596,4.00769874 C8.29268996,3.07605506 7.67690446,2.28458287 6.83622837,1.80962463 C5.99555229,1.33466639 4.99983005,1.21568223 4.07091165,1.47918219 L4.07091165,1.47918219 Z M5.72709,7.23155735 C4.46585027,7.59156649 3.15138301,6.86185317 2.78993482,5.60102509 C2.42848663,4.34019702 3.15669945,3.02489789 4.41711423,2.66201112 C5.67752901,2.29912434 6.9936583,3.02583572 7.35798318,4.28583556 C7.53300985,4.89445564 7.4579126,5.54775907 7.14935401,6.10079101 C6.84079541,6.65382296 6.32429271,7.06084866 5.71444742,7.23155735 L5.72709,7.23155735 Z"></path>
                                    </g>
                                </g>
                            </g>
                        </g>
                        <g id="Group" transform="translate(303.421987, 247.794622)">
                            <g transform="translate(5.057033, 3.792775)">
                                <path d="M66.2597763,70.7984636 C64.8423172,72.083065 62.6519059,71.9755254 61.3670968,70.5582545 L47.9406739,55.7537901 C46.6764156,54.3378208 50.1151981,55.7537901 51.54381,54.4895318 C52.9724218,53.2252735 51.7966616,49.6853503 53.0735625,51.1139622 L66.4999854,65.9310692 C67.7676439,67.3450926 67.6605019,69.5161266 66.2597763,70.7984636 L66.2597763,70.7984636 Z" id="Path" fill="#4687C7"></path>
                                <g fill="#4687C7" id="Shape">
                                    <path d="M55.513581,11.5932484 C43.7136012,-1.4209382 23.5978091,-2.40542464 10.5834112,9.39432217 C-2.43098665,21.194069 -3.41583323,41.3098434 8.38368058,54.3244526 C20.1831944,67.3390617 40.2989512,68.3242684 53.3137716,56.5249876 C59.5640072,50.8585026 63.3071499,42.9411358 63.7196976,34.5147308 C64.1322453,26.0883257 61.1804017,17.8431796 55.513581,11.5932484 Z M50.4565479,53.4401974 C39.1491558,63.6918451 21.6722079,62.8364137 11.4200266,51.5295054 C1.16784535,40.2225971 2.02245196,22.7456089 13.3288765,12.4928941 C24.635301,2.24017924 42.1123295,3.09396113 52.3655779,14.3999018 C62.6246776,25.6920475 61.792806,43.1613514 50.5071182,53.4275548 L50.4565479,53.4401974 Z"></path>
                                    <path d="M52.4161482,14.3999018 C42.1628998,3.09396113 24.6858713,2.24017924 13.3794468,12.4928941 C2.0730223,22.7456089 1.21841568,40.2225971 11.4705969,51.5295054 C21.7227782,62.8364137 39.1997261,63.6918451 50.5071182,53.4401974 C55.9378028,48.516563 59.1899322,41.6370968 59.5479526,34.3154622 C59.9059729,26.9938277 57.3405514,19.8298893 52.4161482,14.3999018 Z M49.2302173,52.0368707 C38.6976479,61.5841879 22.4197399,60.785704 12.8721412,50.2533898 C3.3245424,39.7210755 4.12259109,23.4431463 14.65465,13.8952659 C25.186709,4.34738554 41.4646596,5.144999 51.0128215,15.6768026 C60.5531913,26.207709 59.755269,42.4773998 49.2302173,52.0242281 L49.2302173,52.0368707 Z"></path>
                                    <path d="M52.4161482,14.3999018 C42.1628998,3.09396113 24.6858713,2.24017924 13.3794468,12.4928941 C2.0730223,22.7456089 1.21841568,40.2225971 11.4705969,51.5295054 C21.7227782,62.8364137 39.1997261,63.6918451 50.5071182,53.4401974 C55.9378028,48.516563 59.1899322,41.6370968 59.5479526,34.3154622 C59.9059729,26.9938277 57.3405514,19.8298893 52.4161482,14.3999018 Z M49.2302173,52.0368707 C38.6976479,61.5841879 22.4197399,60.785704 12.8721412,50.2533898 C3.3245424,39.7210755 4.12259109,23.4431463 14.65465,13.8952659 C25.186709,4.34738554 41.4646596,5.144999 51.0128215,15.6768026 C60.5531913,26.207709 59.755269,42.4773998 49.2302173,52.0242281 L49.2302173,52.0368707 Z"></path>
                                </g>
                                <g transform="translate(50.570331, 55.627364)" fill="#025387" id="Path">
                                    <path d="M21.4923907,10.9737619 L24.9817436,7.81311616 C25.3822849,7.44610466 25.4105502,6.82426787 25.0449565,6.42243205 L20.6326951,1.55503768 C20.2656836,1.15449633 19.6438468,1.12623102 19.242011,1.49182477 L1.26425828,17.6996159 C0.863716927,18.0666274 0.835451618,18.6884642 1.20104536,19.0903 L5.61330675,23.9576944 C5.98031825,24.3582357 6.60215504,24.386501 7.00399086,24.0209073 L10.2784198,21.0499003 L17.0927719,28.5595945 L28.2814577,18.4455283 L21.4923907,10.9737619 Z"></path>
                                    <path d="M29.4066475,42.1882987 L32.4282248,45.513298 C34.1331207,47.8671315 37.0330675,49.0398806 39.8949067,48.5328513 C42.7567458,48.025822 45.0772781,45.9281657 45.8697321,43.1318791 C46.6621862,40.3355925 45.7872242,37.3323487 43.6169106,35.3992318 L40.5953333,32.0742325 L29.4066475,42.1882987 Z"></path>
                                </g>
                                <g transform="translate(65.741430, 73.326980)" fill="#025387" id="Rectangle">
                                    <polygon transform="translate(12.153087, 10.949972) rotate(-42.200000) translate(-12.153087, -10.949972) " points="4.60546498 8.66166479 19.7007088 8.66166479 19.7007088 13.2382798 4.60546498 13.2382798"></polygon>
                                    <polygon transform="translate(8.217426, 7.970643) rotate(-42.157862) translate(-8.217426, -7.970643) " points="0.683023952 5.6863433 15.751828 5.6863433 15.751828 10.2549422 0.683023952 10.2549422"></polygon>
                                    <polygon transform="translate(18.298308, 17.734173) rotate(-42.200000) translate(-18.298308, -17.734173) " points="10.7506865 15.4458651 25.8459304 15.4458651 25.8459304 20.02248 10.7506865 20.02248"></polygon>
                                    <polygon transform="translate(15.225698, 14.342072) rotate(-42.200000) translate(-15.225698, -14.342072) " points="7.67807576 12.0537649 22.7733196 12.0537649 22.7733196 16.6303799 7.67807576 16.6303799"></polygon>
                                </g>
                            </g>
                            <circle id="Oval" fill="#F2F2F2" opacity="0.85" transform="translate(37.000847, 36.754834) rotate(-42.200000) translate(-37.000847, -36.754834) " cx="37.0008472" cy="36.7548335" r="25.7402985"></circle>
                        </g>
                        <circle id="Oval" fill="#004D77" opacity="0.15" cx="67.7263159" cy="292.928643" r="13.7677726"></circle>
                        <circle id="Oval" fill="#004D77" opacity="0.15" cx="221.118773" cy="84.7432324" r="12.5035144"></circle>
                    </g>
                    <path d="M363.461612,216.188166 C370.503531,213.963071 385.497634,212.711455 392.931473,213.330942 C408.456564,214.5952 434.158935,223.179514 451.75741,237.743769 C479.836587,260.980836 489.343809,297.252406 485.993525,319.326356 C484.55227,328.846221 475.601322,344.131103 465.272331,352.197071 C457.585641,358.177013 436.864448,358.240226 427.192872,357.797735 C421.781847,357.544884 411.023009,354.725588 405.864835,352.740702" id="Path" stroke="#004D77" stroke-width="1.47" stroke-dasharray="8.82"></path>
                </g>
            </g>
        </g>
    </g>
</svg>