<?xml version="1.0" encoding="UTF-8"?>
<svg width="232px" height="70px" viewBox="0 0 232 70" version="1.1" xmlns="http://www.w3.org/2000/svg" xmlns:xlink="http://www.w3.org/1999/xlink">
    <!-- Generator: sketchtool 55 (78076) - https://sketchapp.com -->
    <title>DD54936B-26EE-4FC4-8D4D-5439D636CE79@2x</title>
    <desc>Created with sketchtool.</desc>
    <g id="Page-1" stroke="none" stroke-width="1" fill="none" fill-rule="evenodd">
        <g id="Desktop-v2-C" transform="translate(-778.000000, -3904.000000)" fill="#FFFFFF" fill-rule="nonzero">
            <g id="bh" transform="translate(0.000000, 3853.000000)">
                <g id="Group-7" transform="translate(324.000000, 51.000000)">
                    <g id="Group-10" transform="translate(121.000000, 0.000000)">
                        <g id="Blogs-Logo-inverted" transform="translate(333.000000, 0.000000)">
                            <path d="M149.807487,34.5657754 L146.824813,34.5927273 L146.824813,36.964492 C144.659679,34.6241711 141.497326,33.2810695 137.840856,33.2810695 C130.986096,33.2810695 125.654118,38.0245989 125.654118,45.1623529 C125.654118,51.9946524 130.595294,57.1424599 137.73754,57.1424599 C141.43893,57.1424599 144.637219,55.7948663 146.815829,53.4275936 L146.815829,58.8763636 L146.815829,58.8763636 C146.815829,63.3683422 143.190802,66.6744385 138.438289,66.6744385 C135.71447,66.7360002 133.145964,65.409446 131.619465,63.1527273 L128.295401,63.1527273 C130.092193,66.8047059 133.762139,69.1989305 138.474225,69.1989305 C144.704599,69.1989305 149.807487,64.7069519 149.807487,58.8673797 L149.807487,34.5657754 Z M137.724064,54.4427807 C132.369626,54.4427807 128.825455,50.3371123 128.825455,45.1893048 C128.825455,40.0414973 132.396578,35.9852406 137.746524,35.9852406 C143.096471,35.9852406 146.699037,40.0280214 146.699037,45.1893048 C146.699037,50.3505882 143.127914,54.4427807 137.724064,54.4427807 L137.724064,54.4427807 Z" id="Shape"></path>
                            <path d="M35.5405348,43.1634225 C34.5584217,44.1447013 34.2642707,45.6210393 34.7952883,46.9037998 C35.3263059,48.1865604 36.5778753,49.0230247 37.9662032,49.0230247 C39.3545311,49.0230247 40.6061005,48.1865604 41.1371181,46.9037998 C41.6681357,45.6210393 41.3739847,44.1447013 40.3918717,43.1634225 C39.0518787,41.8245677 36.8805277,41.8245677 35.5405348,43.1634225 Z" id="Path"></path>
                            <path d="M44.1920856,11.9845989 C42.6229075,11.9745891 41.0713169,12.3152944 39.6506952,12.9818182 C37.6171818,4.45376747 29.2149428,-0.948911228 20.6119807,0.739836249 C12.0090185,2.42858373 6.27265705,10.6066467 7.61390374,19.2705882 L7.38481283,19.2705882 C4.82927425,19.1134221 2.39660745,20.3833898 1.06464101,22.5700183 C-0.267325441,24.7566467 -0.279843698,27.5008276 1.03211804,29.699517 C2.34407978,31.8982064 4.76505903,33.1903152 7.32192513,33.0564706 L24.3150802,33.1373262 C25.8623095,37.052353 29.6362354,39.6318266 33.8458627,39.6516041 C38.05549,39.6713815 41.8534863,37.1274818 43.4374332,33.2271658 L44.093262,33.2271658 C47.9366234,33.322071 51.5311277,31.3322209 53.4909999,28.0247544 C55.4508721,24.7172879 55.4699935,20.608809 53.5409921,17.2832433 C51.6119908,13.9576775 48.0361638,11.9344558 44.1920856,11.9935829 L44.1920856,11.9845989 Z M16.8539037,8.28770053 L30.4241711,8.28770053 C30.9203414,8.28770053 31.3225668,8.689926 31.3225668,9.18609626 C31.3225668,9.68226651 30.9203414,10.084492 30.4241711,10.084492 L16.8539037,10.084492 C16.3577335,10.084492 15.955508,9.68226651 15.955508,9.18609626 C15.955508,8.689926 16.3577335,8.28770053 16.8539037,8.28770053 Z M13.6780749,14.1272727 L34.5433155,14.1272727 C35.0394858,14.1272727 35.4417112,14.5294982 35.4417112,15.0256684 C35.4417112,15.5218387 35.0394858,15.9240642 34.5433155,15.9240642 L13.6780749,15.9240642 C13.1819046,15.9240642 12.7796791,15.5218387 12.7796791,15.0256684 C12.7796791,14.5294982 13.1819046,14.1272727 13.6780749,14.1272727 L13.6780749,14.1272727 Z M46.7031016,27.6032086 L7.33090909,27.6032086 C6.83473883,27.6032086 6.43251337,27.2009831 6.43251337,26.7048128 C6.43251337,26.2086426 6.83473883,25.8064171 7.33090909,25.8064171 L46.7031016,25.8064171 C47.1992719,25.8064171 47.6014973,26.2086426 47.6014973,26.7048128 C47.6014973,27.2009831 47.1992719,27.6032086 46.7031016,27.6032086 Z M46.7031016,19.9668449 C47.1992719,19.9668449 47.6014973,20.3690704 47.6014973,20.8652406 C47.6014973,21.3614109 47.1992719,21.7636364 46.7031016,21.7636364 L13.6780749,21.7636364 C13.1819046,21.7636364 12.7796791,21.3614109 12.7796791,20.8652406 C12.7796791,20.3690704 13.1819046,19.9668449 13.6780749,19.9668449 L46.7031016,19.9668449 Z" id="Shape"></path>
                            <path d="M66.9394652,39.4665241 L66.9394652,53.1940107 C68.8206812,54.1383527 70.8942488,54.6363779 72.9991444,54.6494118 C77.8549733,54.6494118 82.4322995,51.8104813 82.4817112,45.2432086 C82.4817112,39.2868449 78.6725134,36.0166845 74.3512299,36.0166845 C71.4898396,36.0166845 68.8081283,37.5259893 66.9394652,39.4665241 L66.9394652,39.4665241 Z M66.9394652,36.2727273 C69.1170942,34.3846466 71.904792,33.3490337 74.7869519,33.3574332 C80.1773262,33.3574332 85.5677005,37.0139037 85.5677005,45.1668449 C85.5677005,53.8049198 79.584385,57.1783957 73.2462032,57.1783957 C69.9615644,57.1549773 66.7386142,56.2838678 63.8894118,54.6494118 L63.8894118,20.3217112 L66.9574332,20.3217112 L66.9394652,36.2727273 Z" id="Shape"></path>
                            <polygon id="Path" points="90.0686631 56.7426738 90.0686631 20.3217112 93.0603209 20.2947594 93.0603209 56.7426738"></polygon>
                            <path d="M101.240214,45.2162567 C101.240214,50.3820321 104.793369,54.4966845 110.161283,54.4966845 C115.529198,54.4966845 119.145241,50.3281283 119.145241,45.2162567 C119.145241,40.104385 115.551658,35.9897326 110.161283,35.9897326 C104.770909,35.9897326 101.213262,40.0549733 101.213262,45.2162567 M122.29861,45.2701604 C122.29861,52.3989305 117.110374,57.2053476 110.170267,57.2053476 C103.010053,57.2053476 98.0419251,52.0440642 98.0419251,45.1937968 C98.0419251,38.0335829 103.382888,33.2810695 110.255615,33.2810695 C117.128342,33.2810695 122.294118,38.0335829 122.294118,45.2701604" id="Shape"></path>
                            <path d="M170.762567,35.7516578 L169.253262,38.1054545 C167.735987,36.9201097 165.88547,36.2399113 163.961711,36.1604278 C160.691551,36.0840642 158.647701,37.8224599 158.647701,39.7135829 C158.647701,41.9595722 161.612406,42.8849198 164.523209,43.675508 C167.847273,44.6233155 172.294332,46.3078075 172.114652,50.7818182 C171.961925,54.9503743 167.923636,57.1739037 163.476578,57.0975401 C160.220737,57.0366765 157.089944,55.8330146 154.631872,53.6971123 L156.320856,51.3972193 C158.248545,53.2422014 160.795579,54.3010629 163.463102,54.3664171 C166.580535,54.3664171 168.831016,52.8616043 168.831016,50.6874866 C168.831016,48.513369 166.427807,47.1882353 163.130695,46.195508 C159.909947,45.2971123 155.440428,43.9225668 155.462888,39.7315508 C155.48984,35.8459893 159.299037,33.3394652 163.82246,33.4158289 C166.316008,33.4904938 168.731323,34.3034154 170.762567,35.7516578" id="Path"></path>
                            <rect id="Rectangle" x="174.293262" y="53.7779679" width="2.55144385" height="2.96470588"></rect>
                            <path d="M190.27123,43.9629947 L189.395294,45.4363636 C188.386506,44.7219033 187.177015,44.3460014 185.940963,44.3627807 C182.71123,44.3627807 180.272086,46.6671658 180.272086,49.8474866 C180.272086,53.0278075 182.77861,55.3007487 185.922995,55.3007487 C187.36323,55.3181746 188.760495,54.8103685 189.853476,53.8722995 L190.837219,55.2558289 C189.37942,56.3483803 187.605506,56.9365313 185.783743,56.9313369 C181.80385,56.9313369 178.362995,54.1508021 178.362995,49.8295187 C178.362995,45.7148663 181.480428,42.7007487 185.828663,42.7007487 C187.410039,42.6403553 188.969931,43.0822199 190.284706,43.9629947" id="Path"></path>
                            <path d="M193.882781,49.8160428 C193.882781,52.92 196.016471,55.3950802 199.241711,55.3950802 C202.466952,55.3950802 204.632086,52.8885561 204.632086,49.8160428 C204.632086,46.7435294 202.466952,44.2684492 199.241711,44.2684492 C196.016471,44.2684492 193.851337,46.7120856 193.851337,49.8160428 M206.523209,49.8474866 C206.523209,54.1328342 203.405775,57.0346524 199.228235,57.0346524 C194.92492,57.0346524 191.946738,53.9306952 191.946738,49.8160428 C191.946738,45.5127273 195.154011,42.6558289 199.291123,42.6558289 C203.428235,42.6558289 206.523209,45.5127273 206.523209,49.8429947" id="Shape"></path>
                            <path d="M220.982888,45.8855615 C222.067375,43.9512867 224.097638,42.738602 226.314866,42.7007487 C228.942674,42.7007487 231.256043,44.3762567 231.256043,48.1585027 L231.256043,56.7471658 L229.427807,56.7471658 L229.427807,48.5582888 C229.427807,45.36 227.815187,44.3762567 226.045348,44.3762567 C224.275508,44.3762567 222.617968,45.3914439 221.252406,47.3903743 L221.252406,56.7471658 L219.410695,56.7471658 L219.410695,48.5582888 C219.410695,45.3150802 217.780107,44.3762567 216.046203,44.3762567 C214.312299,44.3762567 212.632299,45.3779679 211.24877,47.3903743 L211.24877,56.7471658 L209.420535,56.7471658 L209.420535,42.9388235 L211.24877,42.9388235 L211.24877,45.6340107 C212.356369,43.8484977 214.295707,42.7485243 216.396578,42.7142246 C218.274225,42.7142246 220.331551,43.5766845 220.991872,45.8990374" id="Path"></path>
                        </g>
                    </g>
                </g>
            </g>
        </g>
    </g>
</svg>