<?xml version="1.0" encoding="UTF-8"?>
<svg width="244px" height="40px" viewBox="0 0 244 40" version="1.1" xmlns="http://www.w3.org/2000/svg" xmlns:xlink="http://www.w3.org/1999/xlink">
    <!-- Generator: sketchtool 54.1 (76490) - https://sketchapp.com -->
    <title>5599FD32-A796-485A-9F12-9D20C24D9854@2x</title>
    <desc>Created with sketchtool.</desc>
    <g id="Page-1" stroke="none" stroke-width="1" fill="none" fill-rule="evenodd">
        <g id="Desktop-v2-C" transform="translate(-445.000000, -3374.000000)" fill="#FFFFFF" fill-rule="nonzero">
            <g id="bh" transform="translate(0.000000, 3314.000000)">
                <g id="Group-7" transform="translate(393.000000, 60.000000)">
                    <g id="Group-10" transform="translate(52.000000, 0.000000)">
                        <g id="bluehost" transform="translate(-0.000000, 0.000000)">
                            <g id="XMLID_1568_">
                                <g id="Group">
                                    <rect id="XMLID_1623_" x="0.665003695" y="0.153508772" width="10.972561" height="10.8552632"></rect>
                                    <rect id="XMLID_1622_" x="14.8517492" y="0.153508772" width="10.972561" height="10.8552632"></rect>
                                    <rect id="XMLID_1621_" x="29.0384947" y="0.153508772" width="10.972561" height="10.8552632"></rect>
                                    <rect id="XMLID_1620_" x="0.665003695" y="14.2982456" width="10.972561" height="10.8552632"></rect>
                                    <rect id="XMLID_1619_" x="14.8517492" y="14.2982456" width="10.972561" height="10.8552632"></rect>
                                    <rect id="XMLID_1618_" x="29.0384947" y="14.2982456" width="10.972561" height="10.8552632"></rect>
                                    <rect id="XMLID_1617_" x="0.665003695" y="28.3333333" width="10.972561" height="10.8552632"></rect>
                                    <rect id="XMLID_1616_" x="14.8517492" y="28.3333333" width="10.972561" height="10.8552632"></rect>
                                    <rect id="XMLID_1615_" x="29.0384947" y="28.3333333" width="10.972561" height="10.8552632"></rect>
                                </g>
                                <g id="XMLID_1572_" transform="translate(59.575326, 0.000000)">
                                    <path d="M2.93502094,17.0394737 C5.04086598,15.1754386 7.92254866,13.8596491 11.3584011,13.8596491 C17.0109325,13.8596491 22.441796,17.6973684 22.441796,26.7982456 C22.441796,36.2280702 16.3459288,39.8464912 9.80672579,39.8464912 C6.14920547,39.8464912 2.71335304,38.75 0.16417221,37.2149123 L0.16417221,0.263157895 L2.93502094,0.263157895 L2.93502094,17.0394737 L2.93502094,17.0394737 Z M2.93502094,35.6798246 C5.26253388,36.8859649 7.59004681,37.3245614 9.5850579,37.3245614 C14.7942535,37.3245614 19.5601133,34.3640351 19.5601133,26.7982456 C19.5601133,20.2192982 15.7917591,16.3815789 11.0258992,16.3815789 C7.81171471,16.3815789 4.81919808,18.1359649 2.93502094,20.3289474 L2.93502094,35.6798246 Z" id="XMLID_1612_"></path>
                                    <rect id="XMLID_1611_" x="27.3184898" y="0.153508772" width="2.66001478" height="39.1447368"></rect>
                                    <path d="M39.3993902,29.5394737 C39.3993902,35.4605263 42.3919069,37.1052632 45.2735896,37.1052632 C48.598608,37.1052632 51.5911247,35.0219298 54.0294715,31.622807 L54.0294715,14.2982456 L56.8003203,14.2982456 L56.8003203,39.4078947 L54.0294715,39.4078947 L54.0294715,34.5833333 C51.8127926,37.6535088 48.2661062,39.8464912 44.386918,39.8464912 C40.3968958,39.8464912 36.5177076,37.5438596 36.5177076,29.9780702 L36.5177076,14.4078947 L39.2885563,14.4078947 L39.2885563,29.5394737 L39.3993902,29.5394737 Z" id="XMLID_1610_"></path>
                                    <path d="M83.7329699,37.6535088 C81.516291,38.8596491 78.4129404,39.9561404 74.6445861,39.8464912 C66.110372,39.5175439 61.787848,32.9385965 62.1203498,25.9210526 C62.4528517,18.0263158 68.327051,13.75 74.6445861,13.9692982 C81.405457,14.1885965 86.0604829,19.5614035 85.1738113,27.4561404 L64.8911986,27.4561404 C64.8911986,32.0614035 68.216217,37.1052632 74.866254,37.3245614 C77.8587706,37.4342105 80.5187854,36.5570175 82.7354644,35.3508772 L83.7329699,37.6535088 Z M82.5137965,25.1535088 C82.6246305,20.7675439 79.5212799,16.6008772 74.3120843,16.4912281 C69.2137226,16.2719298 65.2237004,20 64.8911986,25.1535088 L82.5137965,25.1535088 Z" id="XMLID_1607_"></path>
                                    <path d="M94.3730291,19.122807 C96.4788741,16.0526316 99.8038926,13.8596491 103.683081,13.8596491 C108.781442,13.8596491 111.773959,17.6973684 111.773959,23.2894737 L111.773959,39.2982456 L108.892276,39.2982456 L108.892276,23.8377193 C108.892276,18.3552632 106.121428,16.4912281 103.018077,16.4912281 C99.3605568,16.4912281 96.0355383,19.3421053 94.3730291,22.1929825 L94.3730291,39.4078947 L91.6021803,39.4078947 L91.6021803,0.263157895 L94.3730291,0.263157895 L94.3730291,19.122807 Z" id="XMLID_1606_"></path>
                                    <path d="M140.70162,26.7982456 C140.70162,35.1315789 135.049088,39.7368421 128.509885,39.7368421 C121.194845,39.7368421 116.318151,33.9254386 116.318151,26.7982456 C116.318151,19.2324561 121.749015,13.8596491 128.509885,13.8596491 C134.938254,13.8596491 140.70162,18.6842105 140.70162,26.7982456 M119.089,26.7982456 C119.089,32.3903509 122.303184,37.1052632 128.399051,37.1052632 C134.273251,37.1052632 137.819937,32.2807018 137.819937,26.7982456 C137.819937,21.2061404 134.384085,16.4912281 128.399051,16.4912281 C122.414018,16.4912281 119.089,21.2061404 119.089,26.7982456" id="XMLID_1587_"></path>
                                    <path d="M147.019155,35.0219298 C149.125,36.4473684 151.452513,37.1052632 153.780026,37.1052632 C156.440041,37.1052632 159.765059,36.0087719 159.654225,33.377193 C159.654225,31.0745614 157.215878,29.3201754 153.33669,27.8947368 C149.014166,26.25 145.245812,24.6052632 145.245812,20.6578947 C145.245812,16.7105263 149.014166,13.9692982 154.001694,13.9692982 C156.661709,13.9692982 158.989221,14.7368421 160.984233,15.8333333 L159.875893,18.0263158 C158.324218,17.1491228 156.329207,16.6008772 154.001694,16.6008772 C149.790004,16.6008772 147.905827,18.6842105 147.905827,20.7675439 C147.905827,23.5087719 151.009177,24.495614 154.888365,26.0307018 C160.984233,28.4429825 162.31424,31.0745614 162.31424,33.377193 C162.31424,37.3245614 158.545886,39.7368421 153.669192,39.7368421 C150.898343,39.7368421 148.127494,38.9692982 145.578314,37.4342105 L147.019155,35.0219298 Z" id="XMLID_1577_"></path>
                                    <path d="M181.045177,14.2982456 L181.045177,16.7105263 L172.621797,16.7105263 L172.621797,30.4166667 C172.621797,34.4736842 174.39514,37.1052632 178.052661,37.2149123 C179.604336,37.3245614 181.266845,36.8859649 182.818521,36.2280702 L183.594358,38.6403509 C181.931849,39.2982456 179.936838,39.7368421 177.941827,39.7368421 C173.397635,39.7368421 169.740115,36.995614 169.740115,30.5263158 L169.740115,16.6008772 L165.195923,16.6008772 L165.195923,14.1885965 L169.740115,14.1885965 L169.740115,5.74561404 L172.510963,5.74561404 L172.510963,14.1885965 L181.045177,14.1885965 L181.045177,14.2982456 Z" id="XMLID_1574_"></path>
                                </g>
                            </g>
                        </g>
                    </g>
                </g>
            </g>
        </g>
    </g>
</svg>