<?xml version="1.0" encoding="UTF-8"?>
<svg width="50px" height="50px" viewBox="0 0 50 50" version="1.1" xmlns="http://www.w3.org/2000/svg" xmlns:xlink="http://www.w3.org/1999/xlink">
    <!-- Generator: sketchtool 54.1 (76490) - https://sketchapp.com -->
    <title>0D8B3DB0-F1C3-402A-90D3-AC1C3D44343A@2x</title>
    <desc>Created with sketchtool.</desc>
    <defs>
        <rect id="path-1" x="0" y="0" width="50" height="50"></rect>
    </defs>
    <g id="Page-1" stroke="none" stroke-width="1" fill="none" fill-rule="evenodd">
        <g id="Desktop-v2-C" transform="translate(-968.000000, -1620.000000)">
            <g id="Features" transform="translate(0.000000, 1232.000000)">
                <g transform="translate(76.000000, 90.000000)" id="Group-16">
                    <g transform="translate(0.000000, 98.000000)">
                        <g id="Group-17">
                            <g id="Group-6" transform="translate(892.000000, 200.000000)">
                                <g id="Brush">
                                    <mask id="mask-2" fill="white">
                                        <use xlink:href="#path-1"></use>
                                    </mask>
                                    <g id="Rectangle"></g>
                                    <path d="M13.9020535,0 C13.1613128,0 12.4640046,0.289728148 11.9380787,0.813802037 L6.70081019,6.05107056 C5.61747685,7.13440389 5.61747685,8.8956887 6.70081019,9.97902204 L21.7615739,25.0397869 C22.122685,25.400898 22.122685,25.9879924 21.7615739,26.3491035 L15.8696461,32.2410294 L15.211372,31.5827554 C14.1261869,30.4975702 12.3685185,30.5012739 11.287037,31.5827554 L0.8125,42.0609091 C-0.270833333,43.1442424 -0.270833333,44.9055276 0.8125,45.9888609 L3.43113426,48.6074943 C3.971875,49.148235 4.68399889,49.4176794 5.39511,49.4176794 C6.10622111,49.4176794 6.818345,49.148235 7.35908574,48.6074943 L17.833622,38.1329572 C18.9151035,37.047772 18.9151035,35.2864869 17.833622,34.2050054 L17.1789646,33.550348 L23.0708906,27.6548035 C24.1542239,26.5714702 24.1542239,24.8138017 23.0708906,23.7304683 L8.01012741,8.669705 C7.6490163,8.3085937 7.6490163,7.72149889 8.01012741,7.36038778 L13.2473961,2.12311926 C13.423322,1.94719333 13.6539054,1.85185185 13.9020535,1.85185185 L13.905672,1.85185185 C14.1519683,1.85185185 14.3844035,1.94904519 14.5603294,2.12311926 L16.5243054,4.087095 L14.5603294,6.05107056 C13.478848,7.13440389 13.478848,8.8956887 14.5603294,9.97902204 L39.4373554,34.8596646 C39.979948,35.4004054 40.6938369,35.6698498 41.404948,35.6698498 C42.1160591,35.6698498 42.8281831,35.4004054 43.3689239,34.8596646 L48.6061924,29.6187794 C49.6876739,28.5354461 49.6859091,26.7741609 48.6025757,25.6908276 L23.7255498,0.813802037 C22.6440683,-0.267679444 20.8790794,-0.267679259 19.797598,0.813802037 L17.833622,2.77777778 L15.8696461,0.813802037 C15.3474239,0.289728148 14.6501165,0 13.905672,0 L13.9020535,0 Z M21.7615739,1.85185185 C21.9986109,1.85185185 22.2356776,1.9425637 22.4162331,2.12311926 L47.2968757,27.0037609 C47.6579869,27.364872 47.656222,27.9483517 47.2932572,28.3094609 L42.0559906,33.550348 C41.6948776,33.9077554 41.1077831,33.9077554 40.746672,33.550348 L15.8696461,8.669705 C15.5103869,8.31044574 15.5103869,7.71964704 15.8696461,7.36038778 L18.4882813,4.74537037 L18.4882813,4.74175352 L18.491898,4.73813667 L21.1069165,2.12311926 C21.287472,1.9425637 21.5245369,1.85185185 21.7615739,1.85185185 Z M13.2510128,32.624422 C13.4880498,32.624422 13.7241906,32.7105906 13.905672,32.892072 L15.211372,34.197772 C15.2132239,34.1996239 15.2131369,34.2031535 15.2149887,34.2050054 C15.2168406,34.2068572 15.2203702,34.2067702 15.222222,34.208622 L16.5243054,35.5143239 C16.8817128,35.8735813 16.8835646,36.4625294 16.5243054,36.8236406 L6.04976852,47.2981776 C5.68865741,47.6592887 5.10156259,47.6592887 4.74045148,47.2981776 L2.12181722,44.6795424 C1.76070611,44.3184313 1.76070611,43.7313369 2.12181722,43.3702257 L12.5927372,32.892072 C12.7742189,32.7124424 13.0139757,32.624422 13.2510128,32.624422 Z" id="path5" fill="#3575D3" fill-rule="nonzero" mask="url(#mask-2)"></path>
                                </g>
                            </g>
                        </g>
                    </g>
                </g>
            </g>
        </g>
    </g>
</svg>