<?xml version="1.0" encoding="UTF-8"?>
<svg width="50px" height="50px" viewBox="0 0 50 50" version="1.1" xmlns="http://www.w3.org/2000/svg" xmlns:xlink="http://www.w3.org/1999/xlink">
    <!-- Generator: sketchtool 54.1 (76490) - https://sketchapp.com -->
    <title>F0042128-94CA-4F9A-98C4-154FD95020E1@2x</title>
    <desc>Created with sketchtool.</desc>
    <defs>
        <rect id="path-1" x="0" y="0" width="50" height="50"></rect>
    </defs>
    <g id="Page-1" stroke="none" stroke-width="1" fill="none" fill-rule="evenodd">
        <g id="Desktop-v2-C" transform="translate(-968.000000, -1420.000000)">
            <g id="Features" transform="translate(0.000000, 1232.000000)">
                <g transform="translate(76.000000, 90.000000)" id="Group-16">
                    <g transform="translate(0.000000, 98.000000)">
                        <g id="Group-17">
                            <g id="Group-3" transform="translate(902.000000, 0.000000)">
                                <g id="Cart" transform="translate(-10.000000, 0.000000)">
                                    <mask id="mask-2" fill="white">
                                        <use xlink:href="#path-1"></use>
                                    </mask>
                                    <g id="Rectangle"></g>
                                    <path d="M9.72010933,7.0090471 L50.4397542,7.0090471 L44.6855329,31.6702161 L11.6814278,33.9733195 L12.1605935,40.5609053 C13.1524967,39.398073 14.6278893,38.6595802 16.2726178,38.6595802 C18.9903563,38.6595802 21.2457394,40.6759641 21.6214004,43.2913655 L29.4509764,43.2913655 C29.8266374,40.6759641 32.0820205,38.6595802 34.7997591,38.6595802 C37.7795409,38.6595802 40.2035086,41.0835478 40.2035086,44.0633297 C40.2035086,47.0431116 37.7795409,49.4670792 34.7997591,49.4670792 C32.0820205,49.4670792 29.8266374,47.4506953 29.4509764,44.8352939 L21.6214004,44.8352939 C21.2457394,47.4506953 18.9903563,49.4670792 16.2726178,49.4670792 C13.3051182,49.4670792 10.8888603,47.063053 10.8689916,44.1001482 L7.83504882,2.37726178 L0.833333333,2.37726178 L0.833333333,0.833333333 L9.27090227,0.833333333 L9.72010933,7.0090471 Z M9.8324111,8.55297554 L11.5693725,32.4327795 L43.4411265,30.2096598 L48.4944043,8.55297554 L9.8324111,8.55297554 Z M16.2726178,40.2035086 C14.1443124,40.2035086 12.4127966,41.9350243 12.4127966,44.0633297 C12.4127966,46.1916351 14.1443124,47.9231508 16.2726178,47.9231508 C18.4009231,47.9231508 20.1324389,46.1916351 20.1324389,44.0633297 C20.1324389,41.9350243 18.4009231,40.2035086 16.2726178,40.2035086 Z M34.7997591,40.2035086 C32.6714537,40.2035086 30.9399379,41.9350243 30.9399379,44.0633297 C30.9399379,46.1916351 32.6714537,47.9231508 34.7997591,47.9231508 C36.9280644,47.9231508 38.6595802,46.1916351 38.6595802,44.0633297 C38.6595802,41.9350243 36.9280644,40.2035086 34.7997591,40.2035086 Z" id="Combined-Shape" fill="#3575D3" fill-rule="nonzero" mask="url(#mask-2)"></path>
                                </g>
                            </g>
                        </g>
                    </g>
                </g>
            </g>
        </g>
    </g>
</svg>