<?xml version="1.0" encoding="UTF-8"?>
<svg width="481px" height="420px" viewBox="0 0 481 420" version="1.1" xmlns="http://www.w3.org/2000/svg" xmlns:xlink="http://www.w3.org/1999/xlink">
    <!-- Generator: sketchtool 55 (78076) - https://sketchapp.com -->
    <title>437C2C37-B123-45EA-9CE8-8DA2B2A9792D@2x</title>
    <desc>Created with sketchtool.</desc>
    <defs>
        <linearGradient x1="0.00245535397%" y1="49.9887711%" x2="100.000387%" y2="49.9887711%" id="linearGradient-1">
            <stop stop-color="#FFFFFF" offset="0%"></stop>
            <stop stop-color="#52C8EB" offset="100%"></stop>
        </linearGradient>
        <linearGradient x1="54.8593709%" y1="59.8435306%" x2="34.5447831%" y2="18.116093%" id="linearGradient-2">
            <stop stop-color="#FFFFFF" offset="0%"></stop>
            <stop stop-color="#52C8EB" offset="100%"></stop>
        </linearGradient>
        <radialGradient cx="56.9798658%" cy="55.2751778%" fx="56.9798658%" fy="55.2751778%" r="79.4286208%" gradientTransform="translate(0.569799,0.552752),scale(0.998744,1.000000),translate(-0.569799,-0.552752)" id="radialGradient-3">
            <stop stop-color="#E6E7E7" offset="0%"></stop>
            <stop stop-color="#FFFFFF" offset="100%"></stop>
        </radialGradient>
        <linearGradient x1="0%" y1="50%" x2="100.008864%" y2="50%" id="linearGradient-4">
            <stop stop-color="#DEF2FA" offset="0%"></stop>
            <stop stop-color="#A5DEF8" offset="100%"></stop>
        </linearGradient>
    </defs>
    <g id="Page-1" stroke="none" stroke-width="1" fill="none" fill-rule="evenodd">
        <g id="Desktop-v2-C" transform="translate(-825.000000, -3344.000000)">
            <g id="Section" transform="translate(0.000000, 3254.000000)">
                <g id="create" transform="translate(819.000000, 90.000000)">
                    <g id="Group" transform="translate(22.000000, 25.000000)" fill-rule="nonzero" opacity="0.31">
                        <g transform="translate(0.000000, 62.358779)" fill="url(#linearGradient-1)" id="_Clipping_Path_">
                            <path d="M425.809265,24.7950382 C416.425352,16.0546577 405.389206,9.27540682 393.348403,4.85507634 C357.574601,-8.26996183 323.212141,10.7940076 290.171885,25.2256107 C265.421406,36.0196183 239.021885,41.8546183 212.577796,40.7410687 C185.064058,39.5978244 162.690575,29.1007634 137.910383,16.2281298 C84.6805112,-11.3879008 27.3057508,21.9591985 7.69552716,84.629771 C-3.59520767,120.693931 -1.38162939,162.964275 14.4996805,196.66771 C26.6966454,222.546603 47.1833866,241.209695 69.8391374,253.236031 C90.9646965,264.430916 114.244409,267.756718 136.187061,275.759427 C158.872524,284.029389 179.641534,297.020802 201.807029,306.775496 C239.74984,323.47874 278.465176,317.168626 307.746805,283.123702 C322.484185,265.989885 331.84361,242.813206 355.123323,241.729351 C381.65655,240.497023 416.865815,239.84374 435.926358,214.499351 C478.073482,158.480382 473.39377,68.8916031 425.809265,24.7950382 Z"></path>
                        </g>
                        <g transform="translate(1.485623, 0.000000)" fill="url(#linearGradient-2)" id="_Clipping_Path_2">
                            <path d="M354.707348,3.83061069 C342.709578,0.639045592 330.167113,0.0517862368 317.923323,2.10832061 C280.782748,8.18087786 257.01278,42.5524427 232.722843,72.0392366 C214.523962,94.1320611 192.952716,112.58729 168.722204,124.821489 C143.466613,137.545649 119.384665,139.282786 92.2126198,140.099389 C33.8722045,141.851374 -5.19968051,200.587405 0.831948882,266.761947 C4.30830671,304.889885 22.284345,341.844885 49.3523962,364.249504 C70.1511182,381.44271 95.5998403,388.005229 120.588019,387.515267 C143.852875,387.025305 166.062939,378.38416 188.852396,374.612939 C212.399521,370.708092 236.020927,372.029504 259.686901,369.728168 C300.095847,365.763931 332.63099,340.716489 346.15016,295.461832 C352.939457,272.656336 352.597764,247.118931 373.158786,234.498702 C396.587061,220.111641 428.0377,201.923664 435.554952,169.571336 C452.327636,97.9923664 414.236262,19.7469466 354.707348,3.83061069 Z"></path>
                        </g>
                    </g>
                    <circle id="Oval" fill="#004D77" fill-rule="nonzero" opacity="0.15" cx="377" cy="331" r="18"></circle>
                    <ellipse id="Oval" fill="#004D77" fill-rule="nonzero" opacity="0.15" transform="translate(29.015823, 94.445414) rotate(-22.020000) translate(-29.015823, -94.445414) " cx="29.0158231" cy="94.4454145" rx="23.8140061" ry="17.9883992"></ellipse>
                    <circle id="Oval" fill="#004D77" fill-rule="nonzero" opacity="0.15" cx="203.5" cy="30.5" r="30.5"></circle>
                    <g id="Group" transform="translate(118.000000, 92.000000)" fill-rule="nonzero" stroke="#68CCE5" stroke-width="1.53">
                        <path d="M0,203.542857 C0,206.004469 1.98984556,208 4.44444444,208 L198.666667,208 L198.666667,9.58285714 L0,9.58285714 L0,203.542857 Z" id="Path" fill="url(#radialGradient-3)"></path>
                        <path d="M194.77037,0.861714286 L4.01481481,0.861714286 C2.95412766,0.84980625 1.93279298,1.26404426 1.17856382,2.01205511 C0.424334658,2.76006595 -6.64616633e-05,3.77964423 -1.42108547e-14,4.84342857 L-1.42108547e-14,9.58285714 L198.755556,9.58285714 L198.755556,4.84342857 C198.755563,3.78483307 198.335224,2.76981039 197.587428,2.02266556 C196.839632,1.27552073 195.825943,0.857764302 194.77037,0.861714286 L194.77037,0.861714286 Z" id="Path" fill="#68CCE5"></path>
                    </g>
                    <g id="Group" transform="translate(138.000000, 114.000000)" fill-rule="nonzero" stroke="#68CCE5" stroke-width="1.53">
                        <path d="M0.192592593,202.248794 C0.192592593,204.704699 2.18243815,206.695603 4.63703704,206.695603 L194.414815,206.695603 C196.869414,206.695603 198.859259,204.704699 198.859259,202.248794 L198.859259,8.72368794 L0.192592593,8.72368794 L0.192592593,202.248794 Z" id="Path" fill="#FFFFFF"></path>
                        <path d="M194.933333,0.00794326241 L4.17777778,0.00794326241 C3.12477008,0.00794326241 2.11489085,0.426471443 1.37030197,1.17145638 C0.625713085,1.91644132 0.207407407,2.92685773 0.207407407,3.98042553 L0.207407407,8.70886525 L198.903704,8.70886525 L198.903704,3.98042553 C198.903704,1.78648416 197.126108,0.00794326241 194.933333,0.00794326241 Z" id="Path" fill="#68CCE5"></path>
                    </g>
                    <g id="Group" transform="translate(169.000000, 133.000000)">
                        <g transform="translate(16.781022, 0.000000)">
                            <rect id="Rectangle" stroke="#68CCE5" stroke-width="1.53" fill="url(#linearGradient-4)" fill-rule="nonzero" x="0.651970803" y="0.535462185" width="167.156423" height="58.9603361"></rect>
                            <polygon id="Path" stroke="#68CCE5" stroke-width="1.53" points="52.1576642 59.4957983 143.685474 59.4957983 97.9141606 19.9905882"></polygon>
                            <ellipse id="Oval" fill="#FBD119" fill-rule="nonzero" transform="translate(32.059729, 16.099179) rotate(-29.790000) translate(-32.059729, -16.099179) " cx="32.0597291" cy="16.0991793" rx="6.45168846" ry="6.46411777"></ellipse>
                            <polygon id="Path" stroke="#68CCE5" stroke-width="1.53" points="90.5943066 59.4957983 167.823212 59.4957983 167.823212 41.9445378 138.291898 13.4163025"></polygon>
                        </g>
                        <g transform="translate(0.000000, 72.882353)" fill-rule="nonzero">
                            <g transform="translate(16.781022, 0.000000)" id="Rectangle">
                                <g>
                                    <rect fill="#68CCE5" x="0.651970803" y="0.966806723" width="44.9415328" height="49.9913445" rx="1.44"></rect>
                                    <rect fill="#FFFFFF" x="5.83810219" y="6.91638655" width="24.0340146" height="5.94957983" rx="0.56"></rect>
                                    <g transform="translate(5.445255, 19.336134)" fill="#FFFFFF">
                                        <g>
                                            <rect x="0.392846715" y="0.609831933" width="23.1449635" height="2.37983193" rx="0.76"></rect>
                                            <rect x="27.2421898" y="0.609831933" width="7.71992701" height="2.37983193" rx="0.76"></rect>
                                        </g>
                                        <g transform="translate(0.000000, 6.949580)">
                                            <rect x="0.392846715" y="0.383277311" width="12.7727007" height="2.37983193" rx="0.76"></rect>
                                            <rect x="15.4770803" y="0.383277311" width="19.4850365" height="2.37983193" rx="0.76"></rect>
                                        </g>
                                        <g transform="translate(0.000000, 13.386555)">
                                            <rect x="0.392846715" y="0.654453782" width="4.7119708" height="2.37983193" rx="0.76"></rect>
                                            <rect x="17.0032847" y="0.654453782" width="17.9588321" height="2.37983193" rx="0.76"></rect>
                                            <rect x="7.31262774" y="0.654453782" width="7.71992701" height="2.37983193" rx="0.76"></rect>
                                        </g>
                                        <rect x="0.392846715" y="20.7640336" width="34.5840876" height="2.37983193" rx="0.76"></rect>
                                    </g>
                                </g>
                                <g transform="translate(61.751825, 0.000000)">
                                    <rect fill="#68CCE5" x="0.00759124088" y="0.966806723" width="44.9415328" height="49.9913445" rx="1.44"></rect>
                                    <rect fill="#FFFFFF" x="5.19372263" y="6.91638655" width="24.0340146" height="5.94957983" rx="0.56"></rect>
                                    <g transform="translate(4.927007, 19.336134)" fill="#FFFFFF">
                                        <g>
                                            <rect x="0.266715328" y="0.609831933" width="5.73437956" height="2.37983193" rx="0.76"></rect>
                                            <rect x="8.31262774" y="0.609831933" width="26.5233577" height="2.37983193" rx="0.76"></rect>
                                        </g>
                                        <g transform="translate(0.000000, 6.949580)">
                                            <rect x="0.266715328" y="0.383277311" width="23.2190511" height="2.37983193" rx="0.76"></rect>
                                            <rect x="25.8121168" y="0.383277311" width="9.03868613" height="2.37983193" rx="0.76"></rect>
                                        </g>
                                        <g transform="translate(0.000000, 13.386555)">
                                            <rect x="0.266715328" y="0.654453782" width="4.7119708" height="2.37983193" rx="0.76"></rect>
                                            <rect x="30.8056204" y="0.654453782" width="4.03036496" height="2.37983193" rx="0.76"></rect>
                                            <rect x="7.18649635" y="0.654453782" width="21.6483942" height="2.37983193" rx="0.76"></rect>
                                        </g>
                                        <rect x="0.266715328" y="20.7640336" width="13.6765693" height="2.37983193" rx="0.76"></rect>
                                        <rect x="17.6772993" y="20.7640336" width="17.1586861" height="2.37983193" rx="0.76"></rect>
                                    </g>
                                </g>
                                <g transform="translate(122.503650, 0.000000)">
                                    <rect fill="#68CCE5" x="0.378029197" y="0.966806723" width="44.9415328" height="49.9913445" rx="1.44"></rect>
                                    <rect fill="#FFFFFF" x="5.54934307" y="6.91638655" width="24.0340146" height="5.94957983" rx="0.56"></rect>
                                    <g transform="translate(4.927007, 19.336134)" fill="#FFFFFF">
                                        <g>
                                            <rect x="0.622335766" y="0.609831933" width="5.73437956" height="2.37983193" rx="0.76"></rect>
                                            <rect x="8.68306569" y="0.609831933" width="26.5233577" height="2.37983193" rx="0.76"></rect>
                                        </g>
                                        <g transform="translate(0.000000, 6.949580)">
                                            <rect x="0.622335766" y="0.383277311" width="23.2190511" height="2.37983193" rx="0.76"></rect>
                                            <rect x="26.1677372" y="0.383277311" width="9.03868613" height="2.37983193" rx="0.76"></rect>
                                        </g>
                                        <g transform="translate(0.000000, 13.386555)">
                                            <rect x="0.622335766" y="0.654453782" width="4.7119708" height="2.37983193" rx="0.76"></rect>
                                            <rect x="31.1760584" y="0.654453782" width="4.03036496" height="2.37983193" rx="0.76"></rect>
                                            <rect x="7.54211679" y="0.654453782" width="21.6483942" height="2.37983193" rx="0.76"></rect>
                                        </g>
                                        <rect x="0.622335766" y="20.7640336" width="13.6765693" height="2.37983193" rx="0.76"></rect>
                                        <rect x="18.0477372" y="20.7640336" width="17.1586861" height="2.37983193" rx="0.76"></rect>
                                    </g>
                                </g>
                            </g>
                            <g transform="translate(0.000000, 13.386555)" fill="#4687C7" id="Path">
                                <path d="M9.62416058,0.237983193 C9.33191583,0.0409384239 8.97331568,-0.0306306012 8.62820918,0.0392123037 C8.28310269,0.109055208 7.98014247,0.314511302 7.78678832,0.609831933 L0.378029197,11.8396639 C0.0743182899,12.2885962 0.0743182899,12.8781265 0.378029197,13.3270588 L7.78678832,24.5568908 C8.05147779,24.9501231 8.50505197,25.1717368 8.97665386,25.1382522 C9.44825574,25.1047675 9.86623779,24.8212716 10.0731502,24.3945547 C10.2800626,23.9678377 10.2444705,23.4627281 9.97978102,23.0694958 L3.00072993,12.5684874 L9.97978102,2.06747899 C10.3815411,1.46302947 10.2228199,0.646485498 9.62416058,0.237983193 L9.62416058,0.237983193 Z"></path>
                                <path d="M194.23562,0.609831933 C193.826446,0.00194742409 193.003826,-0.157875633 192.398248,0.252857143 C191.79267,0.663589919 191.633453,1.48934238 192.042628,2.09722689 L199.021679,12.5982353 L192.042628,23.0992437 C191.777938,23.492476 191.742346,23.9975856 191.949259,24.4243026 C192.156171,24.8510195 192.574153,25.1345154 193.045755,25.1680001 C193.517357,25.2014847 193.970931,24.979871 194.23562,24.5866387 L201.64438,13.3568067 C201.94809,12.9078744 201.94809,12.3183441 201.64438,11.8694118 L194.23562,0.609831933 Z"></path>
                            </g>
                        </g>
                        <g transform="translate(15.299270, 133.865546)" fill-rule="nonzero">
                            <g fill="#68CCE5">
                                <path d="M1.39284672,9.93579832 L1.39284672,5.94957983 C1.40098374,3.20106064 3.61862394,0.974974739 6.35671533,0.966806723 L165.067153,0.966806723 C167.805245,0.974974739 170.022885,3.20106064 170.031022,5.94957983 L170.031022,9.90605042 L1.39284672,9.93579832 Z" id="Path"></path>
                                <path d="M165.067153,1.7402521 C167.399448,1.7402521 169.290146,3.63815091 169.290146,5.97932773 L169.290146,9.19210084 L2.13372263,9.19210084 L2.13372263,5.94957983 C2.13372263,3.60840301 4.02442086,1.7105042 6.35671533,1.7105042 L165.067153,1.7105042 L165.067153,1.7402521 Z M165.067153,0.223109244 L6.35671533,0.223109244 C3.20945105,0.231283283 0.66011383,2.79032945 0.651970803,5.94957983 L0.651970803,10.6497479 L170.786715,10.6497479 L170.786715,5.94957983 C170.778572,2.79032945 168.229235,0.231283283 165.081971,0.223109244 L165.067153,0.223109244 Z" id="Shape"></path>
                            </g>
                            <g transform="translate(0.000000, 7.436975)">
                                <path d="M6.14927007,34.6711765 C3.52236999,34.6711765 1.39284672,32.5335431 1.39284672,29.8966387 L1.39284672,1.01142857 L170.045839,1.01142857 L170.045839,29.8966387 C170.045839,32.5335431 167.916316,34.6711765 165.289416,34.6711765 L6.14927007,34.6711765 Z" id="Path" fill="#FFFFFF"></path>
                                <path d="M169.304964,1.75512605 L169.304964,29.8966387 C169.304964,32.1228103 167.507142,33.927479 165.289416,33.927479 L6.14927007,33.927479 C3.93154446,33.927479 2.13372263,32.1228103 2.13372263,29.8966387 L2.13372263,1.75512605 L169.304964,1.75512605 L169.304964,1.75512605 Z M170.786715,0.267731092 L0.651970803,0.267731092 L0.651970803,29.8966387 C0.651970803,32.9442759 3.11319552,35.4148739 6.14927007,35.4148739 L165.289416,35.4148739 C168.325491,35.4148739 170.786715,32.9442759 170.786715,29.8966387 L170.786715,0.267731092 L170.786715,0.267731092 Z" id="Shape" fill="#68CCE5"></path>
                            </g>
                        </g>
                    </g>
                    <g id="Group" transform="translate(337.000000, 19.000000)" fill-rule="nonzero">
                        <path d="M102.973944,71.0961667 L95.2246479,66.6461667 C107.382107,45.4201149 100.082299,18.3277089 78.9200701,6.13358391 C57.7578411,-6.06054108 30.7468966,1.2612819 18.5894366,22.4873333 L10.8401408,18.0373333 C10.3950097,17.7794773 9.86595712,17.7096301 9.36946298,17.8431697 C8.87296884,17.9767093 8.44974008,18.3026871 8.19295775,18.7493333 L0.547183099,32.0993333 C0.291320562,32.5476072 0.223930785,33.0796135 0.359901563,33.5778211 C0.495872342,34.0760287 0.82401318,34.4994347 1.27183099,34.7545 L8.66619718,38.982 L14.5816901,28.5986667 C15.0052847,27.824147 15.9448154,27.4972043 16.7556338,27.8421667 C17.1829287,28.0382334 17.5081842,28.4056763 17.6517001,28.8544578 C17.7952161,29.3032393 17.7437304,29.7918881 17.5098592,30.2006667 L11.4908451,40.673 L17.7021127,44.2478333 L19.6838028,40.7916667 C20.1073973,40.017147 21.046928,39.6902043 21.8577465,40.0351667 C22.2850414,40.2312334 22.6102968,40.5986763 22.7538128,41.0474578 C22.8973288,41.4962393 22.8458431,41.9848881 22.6119718,42.3936667 L20.5859155,45.9091667 L26.7971831,49.484 L32.7126761,39.1006667 C33.1362706,38.326147 34.0758013,37.9992043 34.8866197,38.3441667 C35.3139147,38.5402334 35.6391701,38.9076763 35.782686,39.3564578 C35.926202,39.8052393 35.8747164,40.2938881 35.6408451,40.7026667 L29.6366197,51.086 L35.8478873,54.6608333 L37.8147887,51.2343333 C38.2383833,50.4598136 39.1779139,50.132871 39.9887324,50.4778333 C40.4160273,50.6739001 40.7412827,51.041343 40.8847987,51.4901245 C41.0283147,51.938906 40.976829,52.4275548 40.7429577,52.8363333 L38.8056338,56.3666667 L45.0169014,59.9415 L50.9323944,49.5581667 C51.3559889,48.783647 52.2955196,48.4567043 53.106338,48.8016667 C53.533633,48.9977334 53.8588884,49.3651763 54.0024043,49.8139578 C54.1459203,50.2627393 54.0944347,50.7513881 53.8605634,51.1601667 L47.9450704,61.5435 L54.156338,65.1183333 L56.1084507,61.7215 C56.5320452,60.9469803 57.4715759,60.6200376 58.2823944,60.965 C58.7096893,61.1610668 59.0349447,61.5285097 59.1784607,61.9772912 C59.3219766,62.4260727 59.270491,62.9147214 59.0366197,63.3235 L57.0549296,66.7796667 L63.2661972,70.3545 L69.1816901,59.9711667 C69.6052847,59.196647 70.5448154,58.8697043 71.3556338,59.2146667 C71.7829287,59.4107334 72.1081842,59.7781763 72.2517001,60.2269578 C72.3952161,60.6757393 72.3437304,61.1643881 72.1098592,61.5731667 L66.1943662,71.9565 L72.3169014,75.65 L74.2394366,72.2976667 C74.6630311,71.523147 75.6025618,71.1962043 76.4133803,71.5411667 C76.8406752,71.7372334 77.1659306,72.1046763 77.3094466,72.5534578 C77.4529626,73.0022393 77.4014769,73.4908881 77.1676056,73.8996667 L75.2007042,77.3113333 L81.4119718,80.8861667 L87.3274648,70.5028333 C87.5641359,70.0925057 87.9629655,69.8018834 88.4251781,69.702943 C88.8873908,69.6040026 89.3697587,69.7059972 89.7528169,69.9836667 C90.4527591,70.5114876 90.6439986,71.4833567 90.1964789,72.2383333 L84.2809859,82.5326667 L93.3464789,87.754 C93.79161,88.011856 94.3206626,88.0817032 94.8171567,87.9481636 C95.3136509,87.814624 95.7368796,87.4886463 95.993662,87.042 L103.639437,73.692 C104.14326,72.7871693 103.850439,71.644988 102.973944,71.0961667 Z M81.7816901,58.8735 L32.0323944,30.2155 C40.0719244,16.7645833 57.3691912,12.2473327 70.9278739,20.0577896 C84.4865566,27.8682465 89.3133734,45.130039 81.7816901,58.8735 Z" id="Shape" fill="#4687C7"></path>
                        <path d="M89.6640845,69.9688333 C88.8673832,69.5087049 87.8497564,69.7804486 87.3866197,70.577 L81.4711268,80.9603333 L84.4288732,82.6365 L90.3443662,72.2531667 C90.5587996,71.8602961 90.6075519,71.3976876 90.4797481,70.9685324 C90.3519443,70.5393771 90.0582164,70.1793764 89.6640845,69.9688333 L89.6640845,69.9688333 Z" id="Path" fill="#FFFFFF"></path>
                        <path d="M76.5760563,71.6598333 C75.779355,71.1997049 74.7617282,71.4714486 74.2985915,72.268 L72.3169014,75.65 L75.2746479,77.3261667 L77.2415493,73.9145 C77.6706414,73.1067507 77.3744016,72.1031007 76.5760563,71.6598333 Z" id="Path" fill="#FFFFFF"></path>
                        <path d="M71.4739437,59.452 C70.6772424,58.9918715 69.6596155,59.2636152 69.1964789,60.0601667 L63.2809859,70.4435 L66.2387324,72.1196667 L72.1542254,61.7363333 C72.3686588,61.3434628 72.417411,60.8808543 72.2896072,60.451699 C72.1618034,60.0225438 71.8680756,59.662543 71.4739437,59.452 L71.4739437,59.452 Z" id="Path" fill="#FFFFFF"></path>
                        <path d="M58.3859155,61.1281667 C57.5892142,60.6680382 56.5715874,60.9397819 56.1084507,61.7363333 L54.1119718,65.2666667 L57.0697183,66.9428333 L59.0514085,63.4866667 C59.2912918,63.0891016 59.3558571,62.6094912 59.2296883,62.1623504 C59.1035196,61.7152096 58.7979413,61.3406727 58.3859155,61.1281667 L58.3859155,61.1281667 Z" id="Path" fill="#FFFFFF"></path>
                        <path d="M53.2394366,48.95 C52.4427353,48.4898715 51.4251085,48.7616152 50.9619718,49.5581667 L45.0464789,59.9415 L48.0042254,61.6176667 L53.9197183,51.2343333 C54.1341517,50.8414628 54.182904,50.3788543 54.0551002,49.949699 C53.9272964,49.5205438 53.6335685,49.160543 53.2394366,48.95 L53.2394366,48.95 Z" id="Path" fill="#FFFFFF"></path>
                        <path d="M40.1957746,50.5965 C39.3990733,50.1363715 38.3814465,50.4081152 37.9183099,51.2046667 L35.9070423,54.6905 L38.8647887,56.3666667 L40.8760563,52.8808333 C41.0904898,52.4879628 41.139242,52.0253543 41.0114382,51.596199 C40.8836344,51.1670438 40.5899065,50.807043 40.1957746,50.5965 L40.1957746,50.5965 Z" id="Path" fill="#FFFFFF"></path>
                        <path d="M35.0788732,38.4035 C34.2821719,37.9433715 33.2645451,38.2151152 32.8014085,39.0116667 L26.7971831,49.395 L29.7549296,51.0711667 L35.7591549,40.6878333 C35.9735884,40.2949628 36.0223406,39.8323543 35.8945368,39.403199 C35.766733,38.9740438 35.4730051,38.614043 35.0788732,38.4035 Z" id="Path" fill="#FFFFFF"></path>
                        <path d="M22.0056338,40.05 C21.2089325,39.5898715 20.1913057,39.8616152 19.728169,40.6581667 L17.7464789,44.2181667 L20.7042254,45.8943333 L22.7302817,42.3788333 C22.9560352,41.976384 23.0062567,41.4983463 22.8690937,41.0575395 C22.7319307,40.6167326 22.4195352,40.2522098 22.0056338,40.05 L22.0056338,40.05 Z" id="Path" fill="#FFFFFF"></path>
                        <path d="M16.8887324,27.8866667 C16.0920311,27.4265382 15.0744043,27.6982819 14.6112676,28.4948333 L8.59225352,38.9671667 L11.55,40.6433333 L17.5690141,30.171 C17.7834475,29.7781295 17.8321998,29.315521 17.704396,28.8863657 C17.5765922,28.4572105 17.2828643,28.0972097 16.8887324,27.8866667 L16.8887324,27.8866667 Z" id="Path" fill="#FFFFFF"></path>
                    </g>
                    <g id="Group" transform="translate(55.000000, 124.000000)" fill-rule="nonzero">
                        <path d="M-67.4458202,69.3547532 L97.7973417,69.3537619 C98.2943979,69.353759 98.6973441,69.7567003 98.697347,70.2537566 C98.697347,70.2537602 98.697347,70.2537638 98.697347,70.2537674 L98.6971574,97.741392 C98.6971544,98.2384441 98.2942148,98.6413836 97.7971628,98.6413865 L-67.445999,98.6423886 C-67.9430553,98.6423916 -68.3460014,98.2394503 -68.3460044,97.742394 C-68.3460044,97.7423904 -68.3460044,97.7423868 -68.3460044,97.7423831 L-68.3458148,70.2547585 C-68.3458118,69.7577065 -67.9428722,69.354767 -67.4458202,69.354764 Z" id="Rectangle" fill="#68CCE5" transform="translate(15.175671, 83.998075) rotate(-89.920000) translate(-15.175671, -83.998075) "></path>
                        <path d="M-67.4458202,69.3547532 L97.7973417,69.3537619 C98.2943979,69.353759 98.6973441,69.7567003 98.697347,70.2537566 C98.697347,70.2537602 98.697347,70.2537638 98.697347,70.2537674 L98.6971574,97.741392 C98.6971544,98.2384441 98.2942148,98.6413836 97.7971628,98.6413865 L-67.445999,98.6423886 C-67.9430553,98.6423916 -68.3460014,98.2394503 -68.3460044,97.742394 C-68.3460044,97.7423904 -68.3460044,97.7423868 -68.3460044,97.7423831 L-68.3458148,70.2547585 C-68.3458118,69.7577065 -67.9428722,69.354767 -67.4458202,69.354764 Z" id="Rectangle" stroke="#4687C7" fill="#4687C7" stroke-linejoin="round" transform="translate(15.175671, 83.998075) rotate(-89.920000) translate(-15.175671, -83.998075) "></path>
                        <g transform="translate(10.333333, 5.929825)" fill="#FFFFFF" id="Path">
                            <path d="M3.0852381,0.0970175439 C1.93569684,0.0970175439 1.00380952,1.03286024 1.00380952,2.1872807 C1.00380952,3.34170117 1.93569684,4.27754386 3.0852381,4.27754386 L19.6038095,4.27754386 L19.6038095,0.111842105 L3.0852381,0.111842105 L3.0852381,0.0970175439 Z"></path>
                            <path d="M10.8647619,10.222193 C9.71522065,10.222193 8.78333333,11.1580357 8.78333333,12.3124561 C8.78333333,13.4668766 9.71522065,14.4027193 10.8647619,14.4027193 L19.5890476,14.4027193 L19.5890476,10.2370175 L10.8647619,10.2370175 L10.8647619,10.222193 Z"></path>
                            <path d="M10.85,20.3473684 C9.70045874,20.3473684 8.76857143,21.2832111 8.76857143,22.4376316 C8.76857143,23.592052 9.70045874,24.5278947 10.85,24.5278947 L19.5742857,24.5278947 L19.5742857,20.3473684 L10.85,20.3473684 Z"></path>
                            <path d="M3.04095238,30.4428947 C1.89141122,30.4428949 0.959524058,31.3787375 0.959524058,32.5331579 C0.959524058,33.6875783 1.89141122,34.6234209 3.04095238,34.6234211 L19.5447619,34.6234211 L19.5447619,30.4428947 L3.04095238,30.4428947 L3.04095238,30.4428947 Z"></path>
                            <path d="M10.8204762,40.5087719 C9.67093503,40.5087721 8.73904787,41.4446147 8.73904787,42.5990351 C8.73904787,43.7534555 9.67093503,44.6892981 10.8204762,44.6892982 L19.5447619,44.6892982 L19.5447619,40.5087719 L10.8204762,40.5087719 Z"></path>
                            <path d="M10.8057143,50.6932456 C9.65617303,50.6932456 8.72428571,51.6290883 8.72428571,52.7835088 C8.72428571,53.9379292 9.65617303,54.8737719 10.8057143,54.8737719 L19.53,54.8737719 L19.53,50.6932456 L10.8057143,50.6932456 Z"></path>
                            <path d="M2.95238095,60.7887719 C1.80283979,60.7887721 0.870952629,61.7246147 0.870952629,62.8790351 C0.870952629,64.0334555 1.80283979,64.9692981 2.95238095,64.9692982 L19.5004762,64.9692982 L19.5004762,60.7887719 L2.95238095,60.7887719 Z"></path>
                            <path d="M10.7761905,70.9139474 C9.62664922,70.9139474 8.6947619,71.8497901 8.6947619,73.0042105 C8.6947619,74.158631 9.62664922,75.0944737 10.7761905,75.0944737 L19.4857143,75.0944737 L19.4857143,70.9139474 L10.7761905,70.9139474 Z"></path>
                            <path d="M10.7466667,81.0391228 C9.59712541,81.0391228 8.6652381,81.9749655 8.6652381,83.129386 C8.6652381,84.2838064 9.59712541,85.2196491 10.7466667,85.2196491 L19.4709524,85.2196491 L19.4709524,81.0391228 L10.7466667,81.0391228 Z"></path>
                            <path d="M2.95238095,91.1346491 C1.79061053,91.1346491 0.848809524,92.0804476 0.848809524,93.2471491 C0.848809524,94.4138507 1.79061053,95.3596491 2.95238095,95.3596491 L19.4561905,95.3596491 L19.4561905,91.1791228 L2.95238095,91.1791228 L2.95238095,91.1346491 Z"></path>
                            <path d="M10.7171429,101.289474 C9.5676016,101.289474 8.63571429,102.225316 8.63571429,103.379737 C8.63571429,104.534157 9.5676016,105.47 10.7171429,105.47 L19.4414286,105.47 L19.4414286,101.289474 L10.7171429,101.289474 Z"></path>
                            <path d="M10.702381,111.385 C9.55283969,111.385 8.62095238,112.320843 8.62095238,113.475263 C8.62095238,114.629684 9.55283969,115.565526 10.702381,115.565526 L19.4266667,115.565526 L19.4266667,111.385 L10.702381,111.385 Z"></path>
                            <path d="M2.95238095,121.480526 C1.80283979,121.480526 0.870952629,122.416369 0.870952629,123.570789 C0.870952629,124.72521 1.80283979,125.661052 2.95238095,125.661053 L19.4119048,125.661053 L19.4119048,121.480526 L2.95238095,121.480526 Z"></path>
                            <path d="M10.6728571,131.605702 C9.52331588,131.605702 8.59142857,132.541544 8.59142857,133.695965 C8.59142857,134.850385 9.52331588,135.786228 10.6728571,135.786228 L19.3971429,135.786228 L19.3971429,131.605702 L10.6728571,131.605702 Z"></path>
                            <path d="M10.6580952,141.716053 C9.50855398,141.716053 8.57666667,142.651895 8.57666667,143.806316 C8.57666667,144.960736 9.50855398,145.896579 10.6580952,145.896579 L19.382381,145.896579 L19.382381,141.716053 L10.6580952,141.716053 Z"></path>
                            <path d="M2.86380952,151.826404 C1.71426827,151.826404 0.782380952,152.762246 0.782380952,153.916667 C0.782380952,155.071087 1.71426827,156.00693 2.86380952,156.00693 L19.367619,156.00693 L19.367619,151.841228 L2.86380952,151.841228 L2.86380952,151.826404 Z"></path>
                        </g>
                    </g>
                    <g id="Group" transform="translate(383.000000, 158.000000)" fill-rule="nonzero">
                        <path d="M31.0297674,139.393725 C31.9227907,145.152451 36.9832558,151.088824 48.4288372,149.253137 C61.1693023,145.818627 63.5655814,136.566176 61.4372093,130.644608 L31.0297674,139.393725 Z" id="Path" fill="#025387"></path>
                        <g id="Path">
                            <polygon fill="#FAAC1D" points="60.0083721 127.994706 27.9339535 23.8195098 0.28 31.7840196 30.732093 136.418137"></polygon>
                            <g>
                                <polygon fill="#FBD5C9" points="27.1748837 24.2192157 7.08186047 0.636568627 0.056744186 32.0356863"></polygon>
                                <polygon fill="#025387" style="mix-blend-mode: multiply;" points="14.7172093 9.6077451 7.08186047 0.636568627 4.4027907 12.5833333"></polygon>
                            </g>
                        </g>
                        <g transform="translate(7.441860, 25.166667)" fill="#FFFFFF" id="Rectangle">
                            <polygon transform="translate(29.538351, 52.979764) rotate(-16.140000) translate(-29.538351, -52.979764) " points="29.4602119 -1.32882922 29.4602119 -1.32882922 29.61649 107.288357 29.61649 107.288357"></polygon>
                            <polygon transform="translate(15.965236, 56.860709) rotate(-16.140000) translate(-15.965236, -56.860709) " points="15.8870969 2.55211601 15.8870969 2.55211601 16.043375 111.169302 16.043375 111.169302"></polygon>
                        </g>
                        <polygon id="Rectangle" fill="#FAAC1D" transform="translate(45.646491, 133.213943) rotate(-16.140000) translate(-45.646491, -133.213943) " points="29.1590607 131.035465 62.1277212 131.082685 62.133922 135.392421 29.1652615 135.345201"></polygon>
                    </g>
                    <path d="M208,324.839375 C241.054089,371.109023 288.945461,373.515342 312.468707,363.073107 C328.891994,355.779881 334.598642,334.15272 325.897857,318.407672 C308.51111,286.962136 259.033734,287.214651 232.723865,311.63433 C223.29678,320.38323 215.692857,332.429677 216.61185,345.278231 C217.100991,352.066427 219.932081,358.49813 223.430182,364.335681 C247.427747,404.218187 313.99542,429.558803 358.032953,414.704983 C402.070485,399.851164 436.48824,356.953333 431.522716,313.416788" id="Path" stroke="#004D77" stroke-width="1.47" stroke-dasharray="8.82"></path>
                </g>
            </g>
        </g>
    </g>
</svg>