<?xml version="1.0" encoding="UTF-8"?>
<svg width="487px" height="415px" viewBox="0 0 487 415" version="1.1" xmlns="http://www.w3.org/2000/svg" xmlns:xlink="http://www.w3.org/1999/xlink">
    <!-- Generator: sketchtool 55 (78076) - https://sketchapp.com -->
    <title>D5728450-3FF3-4BBF-819A-284A59003733@2x</title>
    <desc>Created with sketchtool.</desc>
    <defs>
        <linearGradient x1="0.00804305446%" y1="49.9981317%" x2="99.9929316%" y2="49.9981317%" id="linearGradient-1">
            <stop stop-color="#FFFFFF" offset="0%"></stop>
            <stop stop-color="#52C8EB" offset="100%"></stop>
        </linearGradient>
        <linearGradient x1="64.9647007%" y1="17.3576589%" x2="32.1201695%" y2="97.5961818%" id="linearGradient-2">
            <stop stop-color="#FFFFFF" offset="0%"></stop>
            <stop stop-color="#52C8EB" offset="100%"></stop>
        </linearGradient>
        <linearGradient x1="43.6464088%" y1="38.3476123%" x2="60.0828729%" y2="-27.0146131%" id="linearGradient-3">
            <stop stop-color="#D2D3D4" offset="0%"></stop>
            <stop stop-color="#9D9E9F" offset="100%"></stop>
        </linearGradient>
        <linearGradient x1="50%" y1="-24.6327813%" x2="50%" y2="64.9424693%" id="linearGradient-4">
            <stop stop-color="#BCBCBB" offset="0%"></stop>
            <stop stop-color="#CDCDCD" offset="5%"></stop>
            <stop stop-color="#DEDEDE" offset="11%"></stop>
            <stop stop-color="#E9E9E9" offset="19%"></stop>
            <stop stop-color="#F0F0F0" offset="30%"></stop>
            <stop stop-color="#F2F2F2" offset="60%"></stop>
            <stop stop-color="#FFFFFF" offset="100%"></stop>
        </linearGradient>
        <linearGradient x1="108.966389%" y1="17.1398165%" x2="20.3666632%" y2="66.5137615%" id="linearGradient-5">
            <stop stop-color="#FFFFFF" offset="0%"></stop>
            <stop stop-color="#52C8EB" offset="100%"></stop>
        </linearGradient>
        <linearGradient x1="66.1523529%" y1="33.240612%" x2="43.0568558%" y2="71.0077127%" id="linearGradient-6">
            <stop stop-color="#FFFFFF" offset="0%"></stop>
            <stop stop-color="#52C8EB" offset="100%"></stop>
        </linearGradient>
        <linearGradient x1="-19.2933119%" y1="88.9335587%" x2="33.8494267%" y2="55.8180283%" id="linearGradient-7">
            <stop stop-color="#BCBCBB" offset="0%"></stop>
            <stop stop-color="#CDCDCD" offset="5%"></stop>
            <stop stop-color="#DEDEDE" offset="11%"></stop>
            <stop stop-color="#E9E9E9" offset="19%"></stop>
            <stop stop-color="#F0F0F0" offset="30%"></stop>
            <stop stop-color="#F2F2F2" offset="60%"></stop>
            <stop stop-color="#FFFFFF" offset="100%"></stop>
        </linearGradient>
    </defs>
    <g id="Page-1" stroke="none" stroke-width="1" fill="none" fill-rule="evenodd">
        <g id="Desktop-v2-C" transform="translate(-160.000000, -744.000000)">
            <g id="Create" transform="translate(0.000000, 660.000000)">
                <g id="launch" transform="translate(160.000000, 84.000000)">
                    <g id="Group" fill-rule="nonzero">
                        <path d="M481.38443,216.063463 C467.377231,172.066413 424.43557,138.389855 377.62329,134.674478 C359.23785,133.213731 339.551629,135.722405 323.402899,126.878537 C302.241401,115.271953 295.658176,89.2166813 284.315993,68.1311229 C264.677362,31.7553591 225.638046,6.84327988 184.013029,1.34960276 C142.388013,-4.14407436 99.1766775,9.12966573 66.4826384,34.8515066 C17.0529316,73.7359438 -27.3481433,160.840894 20.7490554,216.49216 C29.9497068,227.130206 42.180228,236.053462 46.7805537,249.247813 C51.6505537,263.236049 46.7805537,278.383355 44.9245603,293.038454 C39.4200326,337.495956 66.117785,383.684126 107.155863,403.483592 C148.193941,423.283059 200.574202,416.455657 236.012573,388.193387 C256.888534,371.537701 272.656547,348.070491 297.085863,337.003748 C340.804821,317.188404 395.437655,344.03756 439.426287,324.793813 C459.160098,316.156355 474.245993,298.643274 481.320977,278.62152 C485.688015,266.022768 487.310671,252.634459 486.079935,239.356019 C485.380761,231.441837 483.805948,223.629806 481.38443,216.063463 Z" id="Path" stroke="#FFFFFF" stroke-width="0.14" fill="url(#linearGradient-1)" opacity="0.38"></path>
                        <path d="M445.7557,299.691201 C444.502508,260.441577 415.774267,221.890572 376.306645,206.616244 C360.808306,200.598603 343.1843,197.423067 331.477264,185.97526 C316.089967,171.034364 316.819674,148.234016 312.219349,128.275773 C304.287752,93.6941869 276.733388,63.1772869 242.215081,47.8394484 C207.696775,32.50161 167.150456,31.8029921 132.616287,43.9811723 C80.4263844,62.3992806 20.7014658,121.114939 48.5413681,178.750916 C53.8555375,189.770026 62.1995765,200.201661 62.9134202,212.094043 C63.6748534,224.669165 55.6956678,235.624764 50.5242671,247.024938 C34.8197068,281.543014 46.4950163,325.857617 76.9999349,352.65914 C107.504853,379.460663 154.364723,387.717057 191.881173,374.205151 C213.978599,366.266312 233.36342,351.420681 257.158208,348.89613 C299.735016,344.386869 340.249609,380.460957 382.905733,376.475659 C401.66819,374.596046 418.837551,365.090893 430.40013,350.182222 C437.229644,341.190612 441.922319,330.759559 444.121792,319.6812 C445.44589,313.104794 445.994277,306.395568 445.7557,299.691201 Z" id="Path" stroke="#FFFFFF" stroke-width="0.12" fill="url(#linearGradient-2)" opacity="0.38"></path>
                        <ellipse id="Oval" fill="#004D77" opacity="0.15" cx="79.7918567" cy="293.276619" rx="18.575798" ry="18.5927627"></ellipse>
                        <ellipse id="Oval" fill="#004D77" opacity="0.15" cx="396.373583" cy="93.5671655" rx="26.2694463" ry="26.2934373"></ellipse>
                        <ellipse id="Oval" fill="#004D77" opacity="0.15" cx="148.812606" cy="38.2810854" rx="11.7546254" ry="11.7653605"></ellipse>
                    </g>
                    <g id="Group" transform="translate(0.000000, 80.000000)" fill-rule="nonzero">
                        <g id="Path">
                            <path d="M130.83927,112.324742 L94.9946294,13.145567 L3.32481203,46.0412371 L30.4457787,120.961443 L36.1296241,136.663093 L39.2961117,145.506186 C40.3384612,148.388698 42.4817493,150.736855 45.2530419,152.032516 C48.0243345,153.328176 51.1958534,153.464847 54.0677766,152.412371 L123.936327,127.153196 C126.817573,126.11129 129.165878,123.960805 130.461446,121.177751 C131.757013,118.394696 131.892987,115.208614 130.83927,112.324742 Z" fill="#F3F4F6"></path>
                            <g>
                                <path d="M93.0789044,7.93814433 C92.8761647,7.39137874 92.6327145,6.86067317 92.3506122,6.35051546 C92.160623,6.58865979 90.4665521,3.81030928 90.4665521,3.81030928 C87.307213,0.595820577 82.5692772,-0.4771991 78.3389044,1.06371134 L50.4896455,11.1134021 L48.7480773,6.35051546 C48.388126,5.1389648 47.13163,4.43506758 45.9140709,4.7628866 L35.5913212,8.52556701 C34.4323829,9.04655074 33.9039664,10.4030437 34.4038883,11.5738144 L36.1454565,16.336701 L8.45452202,26.3387629 C4.22178553,27.8759437 1.27121637,31.7464983 0.90244898,36.245567 L1.0766058,39.4208247 C1.20209795,39.9991904 1.37147013,40.5670972 1.58324382,41.1195876 L3.32481203,46.0412371 L94.9946294,13.145567 L93.0789044,7.93814433 Z" fill="#4687C7"></path>
                                <path d="M12.428464,33.8006186 C12.2935918,33.3795965 11.989719,33.0340592 11.5900244,32.8472194 C11.1903299,32.6603796 10.7310358,32.6491695 10.3227497,32.8162887 L0.90244898,36.245567 C0.81309662,37.3069595 0.871712836,38.3756606 1.0766058,39.4208247 C1.38089097,39.5150299 1.70643449,39.5150299 2.01071966,39.4208247 L11.5101826,35.9915464 C11.9392588,35.8455257 12.2853819,35.5221534 12.4609446,35.1032782 C12.6365074,34.684403 12.6246829,34.2101723 12.428464,33.8006186 Z" fill="#FFFFFF"></path>
                                <path d="M92.3347798,6.35051546 C91.8269463,5.42047367 91.1928807,4.56558727 90.4507197,3.81030928 L81.0304189,7.23958763 C80.6105597,7.37483337 80.2659768,7.67954785 80.079653,8.08034939 C79.8933293,8.48115093 79.8821501,8.94171716 80.0488077,9.35113402 L80.0488077,9.35113402 C80.1939771,9.75949411 80.4993652,10.0905624 80.8940657,10.2674702 C81.2887662,10.444378 81.7384434,10.4517357 82.1386896,10.2878351 L91.6381525,6.8585567 C91.9127221,6.75702408 92.1538563,6.58116802 92.3347798,6.35051546 Z" fill="#FFFFFF"></path>
                            </g>
                        </g>
                        <polygon id="Path" fill="#FFFFFF" points="122.574737 116.230309 48.9697315 142.727835 13.3942427 46.7080412 86.9834157 20.2105155"></polygon>
                    </g>
                    <g id="Group" transform="translate(245.000000, 326.000000)" fill-rule="nonzero">
                        <path d="M0.637837838,52.3170588 C8.27314582,48.562538 15.4798275,43.999114 22.132973,38.7058824 C35.0491892,28.4458824 46.0518919,15.6129412 58.2824324,4.68588235 L58.2824324,0.413529412 L0.558108108,0.413529412 C0.574054054,12.3411765 0.621891892,39.0552941 0.637837838,52.3170588 Z" id="Path" fill="#DDDDDD"></path>
                        <path d="M0.637837838,52.3170588 C8.27314582,48.562538 15.4798275,43.999114 22.132973,38.7058824 C35.0491892,28.4458824 46.0518919,15.6129412 58.2824324,4.68588235 L58.2824324,0.413529412 L0.558108108,0.413529412 C0.574054054,12.3411765 0.621891892,39.0552941 0.637837838,52.3170588 Z" id="Path" fill="url(#linearGradient-3)"></path>
                    </g>
                    <g id="Group" transform="translate(129.000000, 138.000000)" fill-rule="nonzero">
                        <path d="M0.316947351,178.152846 C0.300095978,182.880334 2.15595959,187.420008 5.47449285,190.768843 C8.7930261,194.117679 13.3010767,196.00003 18.0026095,196 L272.083453,196 C281.850975,196 289.769115,188.038094 289.769115,178.216585 L289.769115,172.049756 L0.316833587,172.049756 L0.316947351,178.152846 Z" id="Path" fill="#DDDDDD"></path>
                        <path d="M272.083453,0.350569106 L18.0026095,0.350569106 C8.23508801,0.350569106 0.316947351,8.31247504 0.316947351,18.1339837 L0.316947351,171.986016 L289.769115,171.986016 L289.769115,18.1339837 C289.769115,8.31247504 281.850975,0.350569106 272.083453,0.350569106 Z" id="Path" fill="#FFFFFF"></path>
                        <g transform="translate(21.594752, 136.447154)" fill="#4687C7">
                            <rect id="Rectangle" x="0.48063112" y="0.529756098" width="19.3813305" height="19.4884553" rx="0.67"></rect>
                            <g transform="translate(28.525262, 3.780488)" id="Path">
                                <g>
                                    <path d="M12.8574252,0.334634146 L1.76426789,0.334634146 C0.889041949,0.334634146 0.179531136,1.04806658 0.179531136,1.92813008 C0.179531136,2.80819359 0.889041949,3.52162602 1.76426789,3.52162602 L12.8574252,3.52162602 C13.7326511,3.52162602 14.4421619,2.80819359 14.4421619,1.92813008 L14.4421619,1.92813008 C14.4421619,1.04806658 13.7326511,0.334634146 12.8574252,0.334634146 Z"></path>
                                    <path d="M84.7886264,0.334634146 L21.8270352,0.334634146 C20.9518093,0.334634146 20.2422984,1.04806658 20.2422984,1.92813008 C20.2422984,2.80819359 20.9518093,3.52162602 21.8270352,3.52162602 L84.7727791,3.52162602 C85.648005,3.52162602 86.3575158,2.80819359 86.3575158,1.92813008 C86.3575158,1.04806658 85.648005,0.334634146 84.7727791,0.334634146 L84.7886264,0.334634146 Z"></path>
                                </g>
                                <g transform="translate(0.000000, 8.967480)">
                                    <path d="M56.4535333,0.450081301 L1.74842052,0.450081301 C0.873194581,0.450081301 0.163683769,1.16351373 0.163683769,2.04357724 L0.163683769,2.04357724 C0.163683769,2.92364074 0.873194581,3.63707317 1.74842052,3.63707317 L56.4376859,3.63707317 C57.3129118,3.63707317 58.0224226,2.92364074 58.0224226,2.04357724 C58.0224226,1.16351373 57.3129118,0.450081301 56.4376859,0.450081301 L56.4535333,0.450081301 Z"></path>
                                    <path d="M84.7886264,0.450081301 L65.454838,0.450081301 C64.5796121,0.450081301 63.8701013,1.16351373 63.8701013,2.04357724 C63.8701013,2.92364074 64.5796121,3.63707317 65.454838,3.63707317 L84.7886264,3.63707317 C85.6638524,3.63707317 86.3733632,2.92364074 86.3733632,2.04357724 C86.3733632,1.16351373 85.6638524,0.450081301 84.7886264,0.450081301 Z"></path>
                                </g>
                            </g>
                        </g>
                        <path d="M155.510218,181.100813 L134.575845,181.100813 C133.52049,181.021106 132.509558,181.542099 131.957657,182.45012 C131.405757,183.358141 131.405757,184.500396 131.957657,185.408417 C132.509558,186.316438 133.52049,186.837431 134.575845,186.757724 L155.510218,186.757724 C156.565572,186.837431 157.576505,186.316438 158.128405,185.408417 C158.680306,184.500396 158.680306,183.358141 158.128405,182.45012 C157.576505,181.542099 156.565572,181.021106 155.510218,181.100813 L155.510218,181.100813 Z" id="Path" fill="#FFFFFF"></path>
                        <g transform="translate(218.102109, 5.780488)">
                            <path d="M66.0094959,7.89170732 L55.0748123,7.89170732 L55.0748123,4.52943089 C54.8890793,2.11466735 52.8029319,0.301420317 50.3998389,0.46601626 L29.5447032,0.46601626 C27.1416101,0.301420317 25.0554628,2.11466735 24.8697298,4.52943089 L24.8697298,9.96325203 L68.2756694,12.2738211 L68.2756694,9.85170732 C68.1829129,8.68388901 67.1717073,7.80930339 66.0094959,7.89170732 L66.0094959,7.89170732 Z" id="Path" fill="#68CCE5"></path>
                            <path d="M29.6397874,9.85170732 L29.6397874,6.50536585 C29.5035411,4.13159697 27.4845727,2.31516694 25.1232876,2.44195122 L4.9812835,2.44195122 C2.61999845,2.31516694 0.601030032,4.13159697 0.464783752,6.50536585 L0.464783752,166.205528 L71.6511587,166.205528 L71.6511587,12.7837398 C71.6500332,11.8054779 71.5598552,10.829373 71.3817535,9.86764228 L29.6397874,9.85170732 Z" id="Path" fill="url(#linearGradient-4)"></path>
                            <g transform="translate(10.099983, 15.934959)">
                                <rect id="Rectangle" fill="#4687C7" x="0.396184188" y="69.9743089" width="51.1236077" height="80.2962602"></rect>
                                <g transform="translate(0.000000, 44.617886)" fill="#4687C7">
                                    <rect id="Rectangle" x="0.396184188" y="0.354471545" width="50.6481867" height="4.71674797" rx="1.48"></rect>
                                    <path d="M48.6989604,10.775935 L2.74159458,10.775935 C1.42875567,10.775935 0.364489453,11.8460836 0.364489453,13.1661789 C0.364489453,14.4862741 1.42875567,15.5564228 2.74159458,15.5564228 L48.6989604,15.5564228 C50.0117994,15.5564228 51.0760656,14.4862741 51.0760656,13.1661789 C51.0760656,11.8460836 50.0117994,10.775935 48.6989604,10.775935 L48.6989604,10.775935 Z" id="Path"></path>
                                </g>
                                <g transform="translate(0.000000, 8.560976)" fill="#4687C7" id="Path">
                                    <path d="M50.4104761,2.5495935 L19.619041,2.5495935 C19.053203,2.61747634 18.6271749,3.10000741 18.6271749,3.67300813 C18.6271749,4.24600885 19.053203,4.72853992 19.619041,4.79642276 L50.4104761,4.79642276 C50.9763141,4.72853992 51.4023422,4.24600885 51.4023422,3.67300813 C51.4023422,3.10000741 50.9763141,2.61747634 50.4104761,2.5495935 L50.4104761,2.5495935 Z"></path>
                                    <path d="M50.4104761,11.8078049 L1.58473675,11.8078049 C1.01889876,11.8756877 0.592870652,12.3582188 0.592870652,12.9312195 C0.592870652,13.5042202 1.01889876,13.9867513 1.58473675,14.0546341 L50.4738656,14.0546341 C51.0397036,13.9867513 51.4657317,13.5042202 51.4657317,12.9312195 C51.4657317,12.3582188 51.0397036,11.8756877 50.4738656,11.8078049 L50.4104761,11.8078049 Z"></path>
                                    <path d="M50.4104761,21.0819512 L1.58473675,21.0819512 C1.01889876,21.1498341 0.592870652,21.6323651 0.592870652,22.2053659 C0.592870652,22.7783666 1.01889876,23.2608976 1.58473675,23.3287805 L50.4738656,23.3287805 C51.0397036,23.2608976 51.4657317,22.7783666 51.4657317,22.2053659 C51.4657317,21.6323651 51.0397036,21.1498341 50.4738656,21.0819512 L50.4104761,21.0819512 Z"></path>
                                    <path d="M25.5459565,0.23902439 C24.8982893,0.23902439 24.3732513,0.766964389 24.3732513,1.41821138 L24.3732513,5.91186992 C24.3732514,6.5631168 24.8982894,7.09105663 25.5459565,7.09105663 C26.1936236,7.09105663 26.7186615,6.5631168 26.7186617,5.91186992 L26.7186617,1.41821138 C26.7186617,0.766964389 26.1936237,0.23902439 25.5459565,0.23902439 L25.5459565,0.23902439 Z"></path>
                                    <path d="M15.6571991,18.7873171 C15.0095319,18.7873171 14.4844939,19.3152571 14.4844939,19.9665041 L14.4844939,24.4601626 C14.4844939,25.1114096 15.0095319,25.6393496 15.6571991,25.6393496 C16.3048663,25.6393496 16.8299043,25.1114096 16.8299043,24.4601626 L16.8299043,19.9665041 C16.8299043,19.3152571 16.3048663,18.7873171 15.6571991,18.7873171 Z"></path>
                                    <path d="M25.957988,9.56097561 C25.3103208,9.56097561 24.7852828,10.0889156 24.7852828,10.7401626 L24.7852828,15.2338211 C24.7852828,15.8850681 25.3103208,16.4130081 25.957988,16.4130081 C26.6056552,16.4130081 27.1306932,15.8850681 27.1306932,15.2338211 L27.1306932,10.7401626 C27.1306932,10.0889156 26.6056552,9.56097561 25.957988,9.56097561 L25.957988,9.56097561 Z"></path>
                                </g>
                                <rect id="Rectangle" fill="#68CCE5" x="0.396184188" y="0.0517073171" width="15.5145728" height="15.6003252"></rect>
                            </g>
                        </g>
                    </g>
                    <polygon id="Path" stroke="#FFFFFF" stroke-width="0.12" fill="url(#linearGradient-5)" fill-rule="nonzero" opacity="0.38" points="216.812559 177 148 177 148 261 298 261 298 177 260.906964 177"></polygon>
                    <polygon id="Path" stroke="#4687C7" fill="#FFFFFF" fill-rule="nonzero" points="393.797814 253.03125 375 248 380.042935 266.796875 384.69555 262.140625 390.550351 268 395 263.546875 389.145199 257.6875"></polygon>
                    <g id="Group" transform="translate(168.000000, 115.000000)" stroke="#004D77">
                        <path d="M102.903212,0.497068966 C102.325488,1.34155172 101.710999,2.20206897 101.059747,3.07862069" id="Path"></path>
                        <path d="M97.2152535,8.01724138 C82.5778191,26.1362069 58.0297858,49.4663793 49.8523601,62.2298276 C31.6067745,90.6589655 10.5723558,95.0524138 3.82873689,90.5627586 C-0.598732517,87.6124138 -0.898098776,76.2439655 6.759375,74.1594828 C10.8874781,73.037069 13.4557255,74.865 14.6374344,77.3663793" id="Path" stroke-dasharray="3.93"></path>
                        <path d="M15.2519231,80.3968966 C15.2767984,81.4738069 14.9741356,82.532241 14.3853365,83.4274138" id="Path"></path>
                    </g>
                    <g id="Group" transform="translate(232.000000, 131.000000)" stroke="#004D77">
                        <path d="M40.6846154,0 C40.1642308,0.72 39.565,1.6 38.8869231,2.624" id="Path"></path>
                        <path d="M35.7015385,7.744 C26.5711538,23.04 11.6061538,51.328 6.95423077,57.344 C-4.08423077,71.424 1.90807692,82.416 5.25115385,85.12 C7.44307692,86.896 14.7126923,88.128 14.35,81.76 C14.4294793,79.6065033 13.16736,77.6343957 11.1961538,76.832" id="Path" stroke-dasharray="3.82"></path>
                        <path d="M8.23153846,76.544 C7.18044254,76.729234 6.23249628,77.2983575 5.56653846,78.144" id="Path"></path>
                    </g>
                    <path d="M229.783303,172.538753 C227.347628,177.318119 227.584869,179.261727 225.955813,183.865849 C222.065058,194.906183 219.866623,195.431913 202.721996,209.562903 C196.759335,214.485649 186.905919,222.658364 174,233.571248 L204.050546,251 C201.361813,238.955999 203.702593,232.057782 206.296429,228.011253 C211.420838,220.045644 219.170716,220.555443 226.193054,211.586168 C230.637372,205.898723 224.611446,208.017575 228.296592,196.881654 C230.68482,189.648881 255.658405,151.525477 271,127.373751 L267.473015,125 C258.030817,139.385889 234.51231,163.234922 229.783303,172.538753 Z" id="Path" stroke="#FFFFFF" stroke-width="0.12" fill="url(#linearGradient-6)" fill-rule="nonzero" opacity="0.38"></path>
                    <path d="M229.823625,231.603188 C228.608354,231.603017 227.402127,231.813304 226.257807,232.224832 C228.18966,227.541408 227.124308,222.148596 223.559047,218.563708 C219.993787,214.978819 214.631653,213.90876 209.975638,215.853023 C205.319622,217.797286 202.287847,222.372481 202.295514,227.442953 C202.293777,227.975758 202.325536,228.50814 202.390602,229.036913 C201.756679,229.291946 200.060935,230.630872 199.458708,230.487416 C198.856481,230.34396 198.064077,228.893456 197.652027,228.36745 C195.211199,225.395208 192.06676,223.087663 188.507686,221.656879 C186.288956,220.764262 182.992555,220.716443 181.249267,218.947148 C180.163444,217.679704 179.152703,216.349106 178.222284,214.962248 C173.517305,208.836006 166.312865,205.174908 158.618212,205 C154.979809,205.003337 151.37563,205.706694 148,207.072148 L148,262 L225.386163,262 L225.386163,260.645134 C227.234422,258.379198 228.570164,255.735799 229.300638,252.89849 L229.791929,252.89849 C235.492372,252.676867 240,247.964573 240,242.22693 C240,236.489286 235.492372,231.776992 229.791929,231.555369 L229.823625,231.603188 Z" id="Path" fill="url(#linearGradient-7)" fill-rule="nonzero"></path>
                    <g id="Group" transform="translate(249.000000, 49.000000)" fill-rule="nonzero">
                        <polygon id="Path" fill="#68CCE5" points="0.444941046 51.3483436 21.5147605 51.6630635 43.6561938 29.9001793 17.6853169 32.1818989"></polygon>
                        <polygon id="Path" stroke="#36444D" fill="#36444D" stroke-linecap="round" stroke-linejoin="round" points="14.4704753 66.9741889 32.1205859 82.8046021 33.6964886 79.8304986 17.2598231 65.0858692"></polygon>
                        <polygon id="Path" stroke="#36444D" fill="#36444D" stroke-linecap="round" stroke-linejoin="round" points="17.2598231 65.0858692 33.6964886 79.8304986 35.7609211 75.9594433 20.9159175 62.6310536"></polygon>
                        <path d="M87.2614223,0.222088456 L62.6143036,6.13882343 C62.151618,6.2998404 61.7034952,6.49988488 61.2747863,6.73679133 L61.2747863,6.8784153 C62.8963901,11.1376944 65.2956247,15.0594325 68.3505895,18.4443733 C70.0666888,20.3447735 71.9788703,22.0590022 74.0553574,23.5585724 C77.7108915,26.3240234 81.9105294,28.2867104 86.3789167,29.3179474 L87.3402174,29.5225154 C87.4534038,29.2083367 87.5481192,28.8878258 87.6238799,28.5626195 L90.8859985,3.38502391 C90.9921043,2.43242014 90.6243915,1.48830044 89.9016187,0.857582883 C89.1788458,0.226865324 88.1926066,-0.0105221356 87.2614223,0.222088456 L87.2614223,0.222088456 Z" id="Path" stroke="#36444D" stroke-width="1.79" fill="#FFFFFF"></path>
                        <polygon id="Path" fill="#68CCE5" points="49.0457811 94.952792 66.286157 75.8020833 65.8764223 54.3067111 46.666168 75.6447234"></polygon>
                        <path d="M74.0080803,23.5585724 C71.94809,22.0563823 70.0518519,20.3422409 68.3505895,18.4443733 C65.2900003,15.0607171 62.885372,11.1388971 61.2590273,6.8784153 L61.2590273,6.78399932 C60.37584,7.23201175 59.5762672,7.82815364 58.8951732,8.54643101 L14.9590052,57.3280225 L41.5602432,81.2310024 L85.4964112,32.4494109 C86.2743526,31.6010873 86.874466,30.6059268 87.2614223,29.5225154 L86.3001216,29.3179474 C81.8427984,28.2825459 77.6542936,26.3200427 74.0080803,23.5585724 L74.0080803,23.5585724 Z" id="Path" stroke="#36444D" stroke-width="1.79" fill="#FFFFFF"></path>
                        <ellipse id="Oval" fill="#68CCE5" transform="translate(59.683848, 34.416172) rotate(-48.060000) translate(-59.683848, -34.416172) " cx="59.6838482" cy="34.4161719" rx="9.03836982" ry="9.03977914"></ellipse>
                        <ellipse id="Oval" fill="#FFFFFF" transform="translate(59.683848, 34.416172) rotate(-48.060000) translate(-59.683848, -34.416172) " cx="59.6838482" cy="34.4161719" rx="7.08583" ry="7.08693487"></ellipse>
                        <ellipse id="Oval" fill="#68CCE5" transform="translate(40.018120, 56.268117) rotate(-48.060000) translate(-40.018120, -56.268117) " cx="40.0181197" cy="56.2681168" rx="6.95985969" ry="6.96094491"></ellipse>
                        <ellipse id="Oval" fill="#FFFFFF" transform="translate(40.043151, 56.315097) rotate(-48.050000) translate(-40.043151, -56.315097) " cx="40.0431513" cy="56.3150974" rx="5.47970993" ry="5.48056157"></ellipse>
                    </g>
                    <path d="M47.6961367,192.467793 C49.7101747,194.222931 52.3225862,194.673792 54.3074352,196.396727 C54.8092197,196.9203 55.5203793,197.121092 56.188434,196.927816 C56.8564887,196.73454 57.3868374,196.174565 57.5911927,195.446697 C58.8498551,188.681961 60.6070301,182.041902 62.8452047,175.592699 C63.8084402,173.016349 59.9992815,171.889196 59.0506404,174.433341 C56.8124658,180.882544 55.0552908,187.522603 53.7966284,194.28734 L57.0803859,193.337311 C55.066348,191.582172 52.4539365,191.131311 50.4690875,189.408377 C48.4842385,187.685443 45.6966933,190.744858 47.6815423,192.483895 L47.6961367,192.467793 Z" id="Path" fill="#68CCE5" fill-rule="nonzero"></path>
                    <path d="M33.7395299,154.562158 C35.7851892,156.298542 38.4195274,156.71656 40.4357527,158.420789 C40.9420851,158.927989 41.6499655,159.118649 42.3140822,158.926696 C42.9781989,158.734743 43.5071527,158.186595 43.7176378,157.472209 C44.9318502,150.706567 46.6496302,144.060509 48.8538614,137.600257 C49.7957477,135.011759 45.9104668,133.886324 45.0274484,136.442668 C42.8232172,142.90292 41.1054372,149.548978 39.8912247,156.31462 L43.2025437,155.366039 C41.1568844,153.629655 38.5225462,153.211637 36.5063209,151.507408 C34.4900956,149.803179 31.6791537,152.874007 33.695379,154.578235 L33.7395299,154.562158 Z" id="Path" fill="#68CCE5" fill-rule="nonzero"></path>
                    <g id="Group" transform="translate(70.000000, 71.000000)" fill-rule="nonzero">
                        <path d="M100.570149,23.4717134 C104.770299,20.9557495 107.804627,15.191326 102.75806,6.92686249 C96.0665672,-1.83123951 88.0974627,-0.764343448 84.168806,2.75482118 L100.570149,23.4717134 Z" id="Path" fill="#025387"></path>
                        <g transform="translate(0.000000, 4.184632)" id="Path">
                            <polygon fill="#FAAC1D" points="82.5558209 0.512895191 11.5525373 58.1889778 26.4686567 77.0427829 98.3502985 20.4654439"></polygon>
                            <g transform="translate(0.000000, 57.918273)">
                                <polygon fill="#FBD5C9" points="12.0955224 0.732495804 0.07 23.7105707 26.7401493 19.2200529"></polygon>
                                <polygon fill="#025387" style="mix-blend-mode: multiply;" points="4.65343284 14.9683925 0.07 23.7105707 10.2110448 22.0067218"></polygon>
                            </g>
                        </g>
                        <g transform="translate(14.373134, 9.554293)" fill="#FFFFFF" id="Rectangle">
                            <polygon transform="translate(36.599453, 28.676104) rotate(-38.290000) translate(-36.599453, -28.676104) " points="-8.9844202 28.6117209 82.183326 28.7404869 82.183326 28.7404869"></polygon>
                            <polygon transform="translate(43.921593, 37.931377) rotate(-38.290000) translate(-43.921593, -37.931377) " points="-1.66228008 37.8669941 89.5054662 37.9957601 89.5054662 37.9957601"></polygon>
                        </g>
                        <polygon id="Rectangle" fill="#FAAC1D" transform="translate(91.135062, 14.126270) rotate(-38.290000) translate(-91.135062, -14.126270) " points="89.3050129 0.358132821 92.9261989 0.363247409 92.9651104 27.8944071 89.3439243 27.8892925"></polygon>
                    </g>
                </g>
            </g>
        </g>
    </g>
</svg>