<?xml version="1.0" encoding="UTF-8"?>
<svg width="50px" height="46px" viewBox="0 0 50 46" version="1.1" xmlns="http://www.w3.org/2000/svg" xmlns:xlink="http://www.w3.org/1999/xlink">
    <!-- Generator: sketchtool 54.1 (76490) - https://sketchapp.com -->
    <title>CAD240EF-9E69-44D1-B8B3-2603A4D2178B@2x</title>
    <desc>Created with sketchtool.</desc>
    <defs>
        <rect id="path-1" x="0" y="0" width="50" height="50"></rect>
    </defs>
    <g id="Page-1" stroke="none" stroke-width="1" fill="none" fill-rule="evenodd">
        <g id="Desktop-v2-C" transform="translate(-76.000000, -1622.000000)">
            <g id="Features" transform="translate(0.000000, 1232.000000)">
                <g transform="translate(76.000000, 90.000000)" id="Group-16">
                    <g transform="translate(0.000000, 98.000000)">
                        <g id="Group-17">
                            <g id="Group-4" transform="translate(0.000000, 200.000000)">
                                <g id="Webpage-Maintenance">
                                    <mask id="mask-2" fill="white">
                                        <use xlink:href="#path-1"></use>
                                    </mask>
                                    <g id="Rectangle"></g>
                                    <g id="Group" stroke-linecap="round" stroke-linejoin="round" mask="url(#mask-2)" fill="#3575D3" fill-rule="nonzero">
                                        <g transform="translate(0.000000, 2.500000)" id="Shape">
                                            <path d="M49.7200391,8.98352438 C49.7200391,9.45422161 49.3384636,9.8357971 48.8677663,9.8357971 L-2.22044605e-16,9.8357971 C-0.47069723,9.8357971 -0.852272727,9.45422161 -0.852272727,8.98352438 L-0.852272727,2.39146631 C-0.852272727,0.796230664 0.440921279,-0.496963343 2.03615693,-0.496963343 L46.8316094,-0.496963343 C48.426845,-0.496963343 49.7200391,0.796230664 49.7200391,2.39146631 L49.7200391,8.98352438 Z M48.0154936,8.13125165 L48.0154936,2.39146631 C48.0154936,1.73762512 47.4854506,1.20758211 46.8316094,1.20758211 L2.03615693,1.20758211 C1.38231574,1.20758211 0.852272727,1.73762512 0.852272727,2.39146631 L0.852272727,8.13125165 L48.0154936,8.13125165 Z"></path>
                                            <path d="M48.8677663,8.13125165 L-2.22044605e-16,8.13125165 C-0.47069723,8.13125165 -0.852272727,8.51282715 -0.852272727,8.98352438 L-0.852272727,42.078201 C-0.852272727,43.8533628 0.586780241,45.2924158 2.36194204,45.2924158 L46.5058243,45.2924158 C48.2809861,45.2924158 49.7200391,43.8533628 49.7200391,42.078201 L49.7200391,8.98352438 C49.7200391,8.51282715 49.3384636,8.13125165 48.8677663,8.13125165 Z M48.0154936,42.078201 C48.0154936,42.9119684 47.3395916,43.5878704 46.5058243,43.5878704 L2.36194204,43.5878704 C1.5281747,43.5878704 0.852272727,42.9119684 0.852272727,42.078201 L0.852272727,9.8357971 L48.0154936,9.8357971 L48.0154936,42.078201 Z"></path>
                                            <path d="M41.7305125,19.5715976 C41.8300512,20.0965885 41.4275016,20.5826334 40.8931577,20.5826334 L35.6327463,20.5826334 C35.0984646,20.5826334 34.69593,20.0966953 34.795363,19.5717477 L35.8338031,14.0893951 C35.9100195,13.687017 36.2616536,13.3957354 36.6711863,13.3957354 L39.8536996,13.3957354 C40.2631748,13.3957354 40.6147765,13.6869371 40.6910544,14.089245 L41.7305125,19.5715976 Z M39.1478347,15.1002808 L37.37718,15.1002808 L36.6616065,18.8780879 L39.8641098,18.8780879 L39.1478347,15.1002808 Z"></path>
                                            <path d="M37.4101702,19.7303607 L37.4101702,28.0439894 C37.4101702,28.5146866 37.7917457,28.8962621 38.262443,28.8962621 C38.7331402,28.8962621 39.1147157,28.5146866 39.1147157,28.0439894 L39.1147157,19.7303607 C39.1147157,19.2596634 38.7331402,18.8780879 38.262443,18.8780879 C37.7917457,18.8780879 37.4101702,19.2596634 37.4101702,19.7303607 Z"></path>
                                            <path d="M42.0802374,45.2924158 L34.4446487,45.2924158 C33.9739515,45.2924158 33.592376,44.9108403 33.592376,44.4401431 L33.592376,31.0351039 C33.592376,28.9124598 35.3131191,27.1917167 37.4357632,27.1917167 L39.0901407,27.1917167 C40.1094271,27.1917166 41.086947,27.5967161 41.8075686,28.3175831 C42.5281903,29.03845 42.9328569,30.0161078 42.9325099,31.0351039 L42.9325099,44.4389797 C42.9325903,44.9107517 42.5509913,45.2924158 42.0802374,45.2924158 Z M41.2279645,31.0348137 C41.2281576,30.4677015 41.0030085,29.9237507 40.6020679,29.5226735 C40.2011272,29.1215964 39.657253,28.8962621 39.0901407,28.8962621 L37.4357632,28.8962621 C36.2545135,28.8962621 35.2969214,29.8538542 35.2969214,31.0351039 L35.2969214,43.5878704 L41.2279646,43.5878704 L41.2279645,31.0348137 Z"></path>
                                            <path d="M6.78752913,39.3743257 L29.608776,39.3743257 C30.0794732,39.3743257 30.4610487,38.9927502 30.4610487,38.522053 C30.4610487,38.0513557 30.0794732,37.6697802 29.608776,37.6697802 L6.78752913,37.6697802 C6.3168319,37.6697802 5.9352564,38.0513557 5.9352564,38.522053 C5.9352564,38.9927502 6.3168319,39.3743257 6.78752913,39.3743257 Z"></path>
                                            <path d="M6.78752913,31.8324004 L29.608776,31.8324004 C30.0794732,31.8324004 30.4610487,31.4508249 30.4610487,30.9801277 C30.4610487,30.5094305 30.0794732,30.127855 29.608776,30.127855 L6.78752913,30.127855 C6.3168319,30.127855 5.9352564,30.5094305 5.9352564,30.9801277 C5.9352564,31.4508249 6.3168319,31.8324004 6.78752913,31.8324004 Z"></path>
                                            <path d="M6.78752913,24.2925113 L29.608776,24.2925113 C30.0794732,24.2925113 30.4610487,23.9109358 30.4610487,23.4402386 C30.4610487,22.9695414 30.0794732,22.5879659 29.608776,22.5879659 L6.78752913,22.5879659 C6.3168319,22.5879659 5.9352564,22.9695414 5.9352564,23.4402386 C5.9352564,23.9109358 6.3168319,24.2925113 6.78752913,24.2925113 Z"></path>
                                            <path d="M6.78752913,16.7516041 L16.5437751,16.7516041 C17.0144723,16.7516041 17.3960478,16.3700286 17.3960478,15.8993314 C17.3960478,15.4286342 17.0144723,15.0470587 16.5437751,15.0470587 L6.78752913,15.0470587 C6.3168319,15.0470587 5.9352564,15.4286342 5.9352564,15.8993314 C5.9352564,16.3700286 6.3168319,16.7516041 6.78752913,16.7516041 Z"></path>
                                        </g>
                                    </g>
                                </g>
                            </g>
                        </g>
                    </g>
                </g>
            </g>
        </g>
    </g>
</svg>