<?xml version="1.0" encoding="UTF-8"?>
<svg width="270px" height="98px" viewBox="0 0 270 98" version="1.1" xmlns="http://www.w3.org/2000/svg" xmlns:xlink="http://www.w3.org/1999/xlink">
    <!-- Generator: sketchtool 55 (78076) - https://sketchapp.com -->
    <title>18A592BE-EEA0-4B08-BAD7-F4EB1A616075@2x</title>
    <desc>Created with sketchtool.</desc>
    <g id="Page-1" stroke="none" stroke-width="1" fill="none" fill-rule="evenodd">
        <g id="Desktop-v2-C" transform="translate(-80.000000, -16.000000)" fill-rule="nonzero">
            <g id="Nav">
                <g id="Blogs-Logo" transform="translate(80.000000, 16.000000)">
                    <path d="M174.775401,40.326738 L171.295615,40.3581818 L171.295615,43.1252406 C168.769626,40.3948663 165.080214,38.8279144 160.814332,38.8279144 C152.817112,38.8279144 146.596471,44.3620321 146.596471,52.6894118 C146.596471,60.6604278 152.361176,66.6662032 160.693797,66.6662032 C165.012086,66.6662032 168.743422,65.0940107 171.285134,62.3321925 L171.285134,68.6890909 L171.285134,68.6890909 C171.285134,73.9297326 167.055936,77.7868449 161.511337,77.7868449 C158.333549,77.8586669 155.336958,76.3110204 153.556043,73.6781818 L149.677968,73.6781818 C151.774225,77.9388235 156.055829,80.7320856 161.553262,80.7320856 C168.822032,80.7320856 174.775401,75.4914439 174.775401,68.6786096 L174.775401,40.326738 Z M160.678075,63.5165775 C154.43123,63.5165775 150.296364,58.726631 150.296364,52.7208556 C150.296364,46.7150802 154.462674,41.9827807 160.704278,41.9827807 C166.945882,41.9827807 171.148877,46.6993583 171.148877,52.7208556 C171.148877,58.7423529 166.982567,63.5165775 160.678075,63.5165775 L160.678075,63.5165775 Z" id="Shape" fill="#4373B8"></path>
                    <path d="M41.4639572,50.3573262 C40.3181586,51.5021516 39.9749825,53.2245458 40.594503,54.7210998 C41.2140235,56.2176538 42.6741879,57.1935288 44.2939037,57.1935288 C45.9136196,57.1935288 47.373784,56.2176538 47.9933045,54.7210998 C48.612825,53.2245458 48.2696489,51.5021516 47.1238503,50.3573262 C45.5605251,48.7953289 43.0272824,48.7953289 41.4639572,50.3573262 Z" id="Path" fill="#68CBE3"></path>
                    <path d="M51.5574332,13.9820321 C49.7267254,13.9703539 47.9165364,14.3678435 46.2591444,15.1454545 C43.8867121,5.19606205 34.0840999,-1.1070631 24.0473108,0.86314229 C14.0105216,2.83334768 7.3180999,12.3744211 8.8828877,22.4823529 L8.61561497,22.4823529 C5.63415329,22.2989925 2.79604203,23.7806214 1.24208117,26.331688 C-0.311879681,28.8827545 -0.326484315,32.0842989 1.20413771,34.6494365 C2.73475974,37.2145742 5.55923554,38.7220344 8.54224599,38.5658824 L28.3675936,38.6602139 C30.1726944,43.2277451 34.575608,46.2371311 39.4868398,46.2602047 C44.3980716,46.2832784 48.8290674,43.3153955 50.6770053,38.7650267 L51.442139,38.7650267 C55.9260606,38.8757496 60.119649,36.5542577 62.4061666,32.6955468 C64.6926842,28.8368359 64.7149924,24.0436105 62.4644908,20.1637838 C60.2139893,16.2839571 56.0421911,13.9235318 51.5574332,13.9925134 L51.5574332,13.9820321 Z M19.6628877,9.66898396 L35.4948663,9.66898396 C36.0737316,9.66898396 36.5429947,10.138247 36.5429947,10.7171123 C36.5429947,11.2959776 36.0737316,11.7652406 35.4948663,11.7652406 L19.6628877,11.7652406 C19.0840224,11.7652406 18.6147594,11.2959776 18.6147594,10.7171123 C18.6147594,10.138247 19.0840224,9.66898396 19.6628877,9.66898396 Z M15.957754,16.4818182 L40.3005348,16.4818182 C40.8794001,16.4818182 41.3486631,16.9510812 41.3486631,17.5299465 C41.3486631,18.1088118 40.8794001,18.5780749 40.3005348,18.5780749 L15.957754,18.5780749 C15.3788887,18.5780749 14.9096257,18.1088118 14.9096257,17.5299465 C14.9096257,16.9510812 15.3788887,16.4818182 15.957754,16.4818182 L15.957754,16.4818182 Z M54.4869519,32.2037433 L8.55272727,32.2037433 C7.97386197,32.2037433 7.50459893,31.7344803 7.50459893,31.155615 C7.50459893,30.5767497 7.97386197,30.1074866 8.55272727,30.1074866 L54.4869519,30.1074866 C55.0658172,30.1074866 55.5350802,30.5767497 55.5350802,31.155615 C55.5350802,31.7344803 55.0658172,32.2037433 54.4869519,32.2037433 Z M54.4869519,23.2946524 C55.0658172,23.2946524 55.5350802,23.7639154 55.5350802,24.3427807 C55.5350802,24.921646 55.0658172,25.3909091 54.4869519,25.3909091 L15.957754,25.3909091 C15.3788887,25.3909091 14.9096257,24.921646 14.9096257,24.3427807 C14.9096257,23.7639154 15.3788887,23.2946524 15.957754,23.2946524 L54.4869519,23.2946524 Z" id="Shape" fill="#68CBE3"></path>
                    <path d="M78.0960428,46.0442781 L78.0960428,62.0596791 C80.2907947,63.1614115 82.7099569,63.7424409 85.1656684,63.7576471 C90.8308021,63.7576471 96.171016,60.4455615 96.2286631,52.7837433 C96.2286631,45.8346524 91.7845989,42.0194652 86.7431016,42.0194652 C83.4048128,42.0194652 80.2761497,43.7803209 78.0960428,46.0442781 L78.0960428,46.0442781 Z M78.0960428,42.3181818 C80.6366099,40.1154211 83.8889239,38.9072059 87.2514439,38.9170053 C93.5402139,38.9170053 99.828984,43.1828877 99.828984,52.6946524 C99.828984,62.7724064 92.8484492,66.7081283 85.4539037,66.7081283 C81.6218251,66.6808068 77.8617165,65.6645125 74.5376471,63.7576471 L74.5376471,23.7086631 L78.1170053,23.7086631 L78.0960428,42.3181818 Z" id="Shape" fill="#4273B8"></path>
                    <polygon id="Path" fill="#4273B8" points="105.080107 66.1997861 105.080107 23.7086631 108.570374 23.6772193 108.570374 66.1997861"></polygon>
                    <path d="M118.113583,52.7522995 C118.113583,58.7790374 122.25893,63.5794652 128.521497,63.5794652 C134.784064,63.5794652 139.002781,58.7161497 139.002781,52.7522995 C139.002781,46.7884492 134.810267,41.9880214 128.521497,41.9880214 C122.232727,41.9880214 118.082139,46.7308021 118.082139,52.7522995 M142.681711,52.8151872 C142.681711,61.1320856 136.62877,66.7395722 128.531979,66.7395722 C120.178396,66.7395722 114.382246,60.7180749 114.382246,52.7260963 C114.382246,44.3725134 120.613369,38.8279144 128.631551,38.8279144 C136.649733,38.8279144 142.676471,44.3725134 142.676471,52.8151872" id="Shape" fill="#4273B8"></path>
                    <path d="M199.222995,41.7102674 L197.462139,44.4563636 C195.691985,43.0734613 193.533049,42.2798966 191.288663,42.1871658 C187.473476,42.0980749 185.088984,44.1262032 185.088984,46.3325134 C185.088984,48.9528342 188.547807,50.0324064 191.943743,50.9547594 C195.821818,52.0605348 201.010053,54.0257754 200.800428,59.2454545 C200.622246,64.1087701 195.910909,66.7028877 190.722674,66.6137968 C186.924194,66.5427892 183.271602,65.138517 180.40385,62.646631 L182.374332,59.9634225 C184.623303,62.1159017 187.594843,63.35124 190.706952,63.4274866 C194.343957,63.4274866 196.969519,61.6718717 196.969519,59.1354011 C196.969519,56.5989305 194.165775,55.0529412 190.319144,53.8947594 C186.561604,52.846631 181.347166,51.2429947 181.373369,46.3534759 C181.404813,41.8203209 185.848877,38.8960428 191.126203,38.9851337 C194.035343,39.0722427 196.85321,40.0206513 199.222995,41.7102674" id="Path" fill="#4273B8"></path>
                    <rect id="Rectangle" fill="#4273B8" x="203.342139" y="62.7409626" width="2.97668449" height="3.45882353"></rect>
                    <path d="M221.983102,51.2901604 L220.961176,53.0090909 C219.784257,52.1755538 218.373184,51.7370016 216.931123,51.7565775 C213.163102,51.7565775 210.317433,54.4450267 210.317433,58.1554011 C210.317433,61.8657754 213.241711,64.5175401 216.91016,64.5175401 C218.590435,64.5378704 220.220578,63.9454299 221.495722,62.851016 L222.643422,64.4651337 C220.942657,65.739777 218.87309,66.4259532 216.747701,66.419893 C212.104492,66.419893 208.09016,63.1759358 208.09016,58.1344385 C208.09016,53.3340107 211.727166,49.8175401 216.800107,49.8175401 C218.645045,49.7470812 220.46492,50.2625899 221.998824,51.2901604" id="Path" fill="#4273B8"></path>
                    <path d="M226.196578,58.1187166 C226.196578,61.74 228.685882,64.6275936 232.448663,64.6275936 C236.211444,64.6275936 238.737433,61.7033155 238.737433,58.1187166 C238.737433,54.5341176 236.211444,51.6465241 232.448663,51.6465241 C228.685882,51.6465241 226.159893,54.4974332 226.159893,58.1187166 M240.943743,58.1554011 C240.943743,63.1549733 237.306738,66.5404278 232.432941,66.5404278 C227.412406,66.5404278 223.937861,62.9191444 223.937861,58.1187166 C223.937861,53.0981818 227.679679,49.7651337 232.50631,49.7651337 C237.332941,49.7651337 240.943743,53.0981818 240.943743,58.1501604" id="Shape" fill="#4273B8"></path>
                    <path d="M257.813369,53.5331551 C259.078604,51.2765012 261.447245,49.8617024 264.034011,49.8175401 C267.099786,49.8175401 269.798717,51.7722995 269.798717,56.1849198 L269.798717,66.2050267 L267.665775,66.2050267 L267.665775,56.6513369 C267.665775,52.92 265.784385,51.7722995 263.719572,51.7722995 C261.654759,51.7722995 259.720963,52.9566845 258.127807,55.2887701 L258.127807,66.2050267 L255.979144,66.2050267 L255.979144,56.6513369 C255.979144,52.8675936 254.076791,51.7722995 252.053904,51.7722995 C250.031016,51.7722995 248.071016,52.9409626 246.456898,55.2887701 L246.456898,66.2050267 L244.323957,66.2050267 L244.323957,50.0952941 L246.456898,50.0952941 L246.456898,53.2396791 C247.749098,51.1565807 250.011658,49.8732783 252.462674,49.833262 C254.653262,49.833262 257.053476,50.8394652 257.82385,53.548877" id="Path" fill="#4273B8"></path>
                    <rect id="Rectangle" fill="#4273B8" x="195.606952" y="83.5096257" width="3.34877005" height="3.34877005"></rect>
                    <rect id="Rectangle" fill="#4273B8" x="199.935722" y="83.5096257" width="3.34877005" height="3.34877005"></rect>
                    <rect id="Rectangle" fill="#4273B8" x="204.269733" y="83.5096257" width="3.34877005" height="3.34877005"></rect>
                    <rect id="Rectangle" fill="#4273B8" x="195.606952" y="87.8750802" width="3.34877005" height="3.34877005"></rect>
                    <rect id="Rectangle" fill="#4273B8" x="199.935722" y="87.8750802" width="3.34877005" height="3.34877005"></rect>
                    <rect id="Rectangle" fill="#4273B8" x="204.269733" y="87.8750802" width="3.34877005" height="3.34877005"></rect>
                    <path d="M151.402139,95.7727273 C151.147688,95.7810233 150.894286,95.7364101 150.657968,95.6417112 C150.43122,95.5299225 150.233794,95.3665977 150.081497,95.1648128 L150.050053,95.1648128 C150.075387,95.389224 150.085891,95.6150618 150.081497,95.8408556 L150.081497,97.5702674 L149.442139,97.5702674 L149.442139,91.4963636 L149.966203,91.4963636 L150.071016,92.0728342 L150.10246,92.0728342 C150.239277,91.8455675 150.439691,91.663373 150.67893,91.5487701 C150.913317,91.4470824 151.167892,91.4004701 151.423102,91.4125134 C151.918556,91.3965127 152.393886,91.6090586 152.712299,91.988984 C153.30515,92.9702698 153.290937,94.2027005 152.675615,95.1700535 C152.37216,95.5481086 151.907518,95.7600164 151.423102,95.7412834 M151.323529,91.9522995 C150.980333,91.9074573 150.637126,92.0349341 150.406417,92.2929412 C150.178768,92.6185437 150.071322,93.0131276 150.10246,93.4091979 L150.10246,93.5926203 C150.065278,94.0320393 150.171959,94.4716358 150.406417,94.8451337 C150.64993,95.1064229 150.998753,95.2432538 151.354973,95.2172193 C151.696889,95.2354362 152.021829,95.0669487 152.203957,94.7770053 C152.421658,94.4081169 152.527274,93.983835 152.507914,93.5559358 C152.532243,93.1391365 152.425992,92.7251243 152.203957,92.3715508 C151.975781,92.1293505 151.656244,91.9943082 151.323529,91.9994652" id="Shape" fill="#000000"></path>
                    <path d="M157.774759,93.5926203 C157.801442,94.1635899 157.614623,94.7240466 157.250695,95.1648128 C156.883574,95.5537037 156.364633,95.7624288 155.830481,95.7360428 C155.485275,95.7401392 155.14581,95.6475578 154.850481,95.4687701 C154.558561,95.2905209 154.323926,95.0322409 154.174439,94.7245989 C153.998505,94.3666384 153.915596,93.9701205 153.933369,93.5716578 C153.907694,93.0008281 154.094396,92.4407242 154.457433,91.9994652 C154.825633,91.6084104 155.346361,91.3978219 155.882888,91.4229947 C156.405872,91.4052489 156.910762,91.6156196 157.266417,91.9994652 C157.611846,92.4502627 157.796346,93.0037622 157.790481,93.5716578 M154.609412,93.5716578 C154.578708,94.0006129 154.685152,94.4282245 154.913369,94.7927273 C155.14847,95.0689654 155.499865,95.2184542 155.861925,95.1962567 C156.223134,95.2136109 156.572481,95.0649939 156.810481,94.7927273 C157.05042,94.4322429 157.168014,94.0041272 157.145882,93.5716578 C157.184121,93.1392172 157.065027,92.7075014 156.810481,92.3558289 C156.57851,92.0748529 156.225471,91.9227146 155.861925,91.9470588 C155.499707,91.9302177 155.149883,92.0809706 154.913369,92.3558289 C154.684191,92.717981 154.57762,93.1442631 154.609412,93.5716578" id="Shape" fill="#000000"></path>
                    <path d="M162.208342,95.688877 L161.432727,93.2519786 C161.396043,93.1157219 161.296471,92.7750802 161.160214,92.2352941 L161.12877,92.2352941 C161.023957,92.675508 160.924385,93.0109091 160.856257,93.2519786 L160.075401,95.688877 L159.33123,95.688877 L158.183529,91.5225668 L158.859572,91.5225668 C159.132086,92.5706952 159.33123,93.3829947 159.467487,93.9280214 C159.579069,94.2923706 159.65799,94.665931 159.703316,95.0442781 L159.74,95.0442781 C159.771444,94.9080214 159.808128,94.7036364 159.876257,94.4678075 C159.918526,94.2890472 159.974595,94.1138339 160.043957,93.9437433 L160.819572,91.5382888 L161.500856,91.5382888 L162.245027,93.9437433 C162.376043,94.3839572 162.480856,94.7560428 162.548984,95.0233155 L162.580428,95.0233155 C162.59324,94.8873208 162.61601,94.7524491 162.648556,94.6197861 C162.685241,94.4154011 162.952513,93.3987166 163.429412,91.5382888 L164.06877,91.5382888 L162.931551,95.688877 L162.208342,95.688877 Z" id="Path" fill="#000000"></path>
                    <path d="M166.542353,95.7727273 C165.997596,95.7980879 165.467799,95.5903616 165.085455,95.2014973 C164.702234,94.771662 164.512715,94.2031056 164.56139,93.6293048 C164.534708,93.0583352 164.721527,92.4978785 165.085455,92.0571123 C165.413793,91.6716906 165.89454,91.4495126 166.400856,91.4491979 C166.874841,91.432687 167.332375,91.6241237 167.653369,91.973262 C167.9651,92.3524612 168.122304,92.8353034 168.093583,93.3253476 L168.093583,93.728877 L165.185027,93.728877 C165.167425,94.1356761 165.299836,94.5347732 165.557112,94.8503743 C165.8227,95.1009323 166.17744,95.2349035 166.542353,95.2224599 C166.99549,95.2128144 167.443052,95.1204603 167.862995,94.9499465 L167.862995,95.5264171 C167.6561,95.6175189 167.439984,95.6860434 167.218396,95.7308021 C166.995408,95.7721228 166.769137,95.7931713 166.542353,95.7936898 M166.369412,92.0047059 C166.06096,91.9889771 165.762083,92.1143128 165.557112,92.3453476 C165.346809,92.6034299 165.22876,92.9243766 165.221711,93.2572193 L167.386096,93.2572193 C167.406102,92.9313908 167.311556,92.6088219 167.118824,92.3453476 C166.935843,92.1211034 166.658679,91.99512 166.369412,92.0047059" id="Shape" fill="#000000"></path>
                    <path d="M170.975936,91.4439572 C171.151224,91.437931 171.32669,91.4484589 171.5,91.4754011 L171.395187,92.0518717 C171.250306,92.0184628 171.103176,91.9956927 170.954973,91.9837433 C170.616878,91.9892838 170.296961,92.1378167 170.074545,92.3925134 C169.828964,92.6716058 169.696291,93.0322518 169.70246,93.4039572 L169.70246,95.6417112 L169.094545,95.6417112 L169.094545,91.4963636 L169.61861,91.4963636 L169.686738,92.2772193 L169.718182,92.2772193 C169.864786,92.0255913 170.060895,91.8063061 170.294652,91.6326203 C170.516117,91.522506 170.76005,91.4651099 171.00738,91.4649198" id="Path" fill="#000000"></path>
                    <path d="M173.936898,95.7727273 C173.391808,95.8001226 172.861206,95.592081 172.48,95.2014973 C172.096779,94.771662 171.90726,94.2031056 171.955936,93.6293048 C171.931754,93.058684 172.118282,92.4990995 172.48,92.0571123 C172.811261,91.6725931 173.293112,91.4507886 173.800642,91.4491979 C174.274627,91.432687 174.732161,91.6241237 175.053155,91.973262 C175.362613,92.3537034 175.519522,92.8356377 175.493369,93.3253476 L175.493369,93.728877 L172.616257,93.728877 C172.598655,94.1356761 172.731066,94.5347732 172.988342,94.8503743 C173.253613,95.101439 173.608573,95.2354934 173.973583,95.2224599 C174.424965,95.2122959 174.870716,95.1199492 175.288984,94.9499465 L175.288984,95.5264171 C175.083943,95.617623 174.869552,95.6861578 174.649626,95.7308021 C174.427167,95.7758224 174.200529,95.796905 173.973583,95.7936898 M173.800642,92.0047059 C173.49219,91.9889771 173.193312,92.1143128 172.988342,92.3453476 C172.77202,92.5999577 172.653155,92.9231211 172.652941,93.2572193 L174.817326,93.2572193 C174.838105,92.9304938 174.741458,92.6070958 174.544813,92.3453476 C174.364505,92.1206065 174.088585,91.9943054 173.800642,92.0047059" id="Shape" fill="#000000"></path>
                    <path d="M179.298075,95.133369 L179.266631,95.133369 C178.969351,95.5637476 178.467968,95.8064804 177.945989,95.7727273 C177.451986,95.7948329 176.976368,95.5832316 176.662032,95.2014973 C176.074747,94.2224587 176.074747,92.9994664 176.662032,92.0204278 C176.975309,91.6367368 177.451089,91.4231212 177.945989,91.4439572 C178.451058,91.4069319 178.938497,91.6377194 179.229947,92.0518717 L179.266631,92.0518717 L179.229947,91.7479144 L179.229947,89.7512299 L179.874545,89.7512299 L179.874545,95.688877 L179.350481,95.688877 L179.298075,95.133369 Z M178.045561,95.2329412 C178.396241,95.2707045 178.745119,95.1473444 178.994118,94.8975401 C179.227654,94.560831 179.335258,94.1526796 179.298075,93.7445989 L179.298075,93.5926203 C179.3388,93.1529357 179.231847,92.7122167 178.994118,92.340107 C178.750604,92.0788177 178.401782,91.9419868 178.045561,91.9680214 C177.704984,91.9494709 177.381435,92.1182789 177.201818,92.4082353 C176.981511,92.7760519 176.875697,93.2011306 176.897861,93.6293048 C176.866816,94.0566353 176.973328,94.482687 177.201818,94.8451337 C177.405784,95.0990419 177.720529,95.2378424 178.045561,95.2172193 L178.045561,95.2329412 Z" id="Shape" fill="#000000"></path>
                    <path d="M185.052299,91.4439572 C185.547753,91.4279565 186.023083,91.6405025 186.341497,92.0204278 C186.934347,93.0017136 186.920135,94.2341443 186.304813,95.2014973 C185.990477,95.5832316 185.514859,95.7948329 185.020856,95.7727273 C184.766405,95.7810233 184.513002,95.7364101 184.276684,95.6417112 C184.048147,95.532706 183.850112,95.3688771 183.700214,95.1648128 L183.663529,95.1648128 L183.532513,95.688877 L183.092299,95.688877 L183.092299,89.7826738 L183.731658,89.7826738 L183.731658,91.2081283 C183.73806,91.5019644 183.727561,91.7959255 183.700214,92.0885561 L183.731658,92.0885561 C184.038185,91.6685133 184.532574,91.4272042 185.052299,91.4439572 M184.952727,91.9680214 C184.596507,91.9419868 184.247684,92.0788177 184.004171,92.340107 C183.629921,93.1357494 183.641511,94.0591358 184.035615,94.8451337 C184.279128,95.1064229 184.627951,95.2432538 184.984171,95.2172193 C185.334729,95.2359459 185.669245,95.068688 185.864599,94.7770053 C186.081773,94.4107641 186.177186,93.9850768 186.137112,93.5611765 C186.15892,93.1369521 186.064707,92.7148048 185.864599,92.340107 C185.631573,92.0859639 185.297031,91.9494557 184.952727,91.9680214" id="Shape" fill="#000000"></path>
                    <path d="M187.148556,91.4963636 L187.82984,91.4963636 L188.741711,93.8651337 C188.902283,94.2475053 189.026851,94.6440167 189.113797,95.0495187 L189.134759,95.0495187 C189.166203,94.913262 189.234332,94.708877 189.333904,94.3734759 C189.433476,94.0380749 189.774118,93.0842781 190.382032,91.4963636 L191.063316,91.4963636 L189.265775,96.2129412 C189.151466,96.5973933 188.942434,96.9469809 188.657861,97.2296257 C188.410102,97.4328366 188.097791,97.5406581 187.777433,97.5335829 C187.583756,97.5264265 187.390972,97.503643 187.200963,97.4654545 L187.200963,96.9413904 C187.358365,96.968747 187.51823,96.9792876 187.677861,96.9728342 C188.121898,96.9782572 188.506027,96.6647724 188.589733,96.2286631 L188.825561,95.6207487 L187.148556,91.4963636 Z" id="Path" fill="#000000"></path>
                    <rect id="Rectangle" fill="#4273B8" x="195.606952" y="92.2090909" width="3.34877005" height="3.34877005"></rect>
                    <rect id="Rectangle" fill="#4273B8" x="199.935722" y="92.2090909" width="3.34877005" height="3.34877005"></rect>
                    <rect id="Rectangle" fill="#4273B8" x="204.269733" y="92.2090909" width="3.34877005" height="3.34877005"></rect>
                    <path d="M214.494225,88.7240642 C215.197906,88.0883873 216.113864,87.738828 217.062139,87.7440642 C218.791551,87.7440642 220.447594,88.9284492 220.447594,91.7374332 C220.447594,94.6459893 218.587166,95.762246 216.590481,95.762246 C215.553545,95.7612976 214.536063,95.4806752 213.645241,94.9499465 L213.645241,83.5463102 L214.494225,83.5463102 L214.494225,88.7240642 Z M214.494225,94.4887701 C215.117793,94.8252741 215.813824,95.0051273 216.522353,95.0128342 C218.094545,95.0128342 219.567166,94.0957219 219.567166,91.7636364 C219.567166,89.7302674 218.419465,88.5458824 216.946845,88.5458824 C215.987371,88.5814542 215.088974,89.0258841 214.478503,89.7669519 L214.494225,94.4887701 Z" id="Shape" fill="#4273B8"></path>
                    <rect id="Rectangle" fill="#4273B8" x="221.935936" y="83.5096257" width="1" height="12.0796791"></rect>
                    <path d="M225.625348,92.5811765 C225.625348,94.4101604 226.537219,94.9185027 227.417647,94.9185027 C228.434332,94.9185027 229.346203,94.2739037 230.095615,93.2257754 L230.095615,87.8750802 L230.939358,87.8750802 L230.939358,95.6259893 L230.095615,95.6259893 L230.095615,94.1166845 C229.429221,95.0970223 228.335062,95.7005617 227.150374,95.7412834 C225.929305,95.7412834 224.74492,95.0285561 224.74492,92.6964706 L224.74492,87.8908021 L225.593904,87.8908021 L225.593904,92.5602139 L225.625348,92.5811765 Z" id="Path" fill="#4273B8"></path>
                    <path d="M239.161925,95.0862032 C238.315484,95.5568809 237.35772,95.7904377 236.389626,95.762246 C233.769305,95.6626738 232.464385,93.6293048 232.563957,91.4649198 C232.552378,90.4608058 232.957063,89.4967122 233.681863,88.8016986 C234.406663,88.1066849 235.386881,87.7427896 236.389626,87.7964706 C238.454439,87.8645989 239.874652,89.5206417 239.602139,91.9575401 L233.407701,91.9575401 C233.400641,92.7686081 233.719718,93.5485095 234.293251,94.1220429 C234.866785,94.6955763 235.646686,95.0146529 236.457754,95.0075936 C237.298651,95.0248781 238.12839,94.8129144 238.857968,94.3944385 L239.161925,95.0862032 Z M238.78984,91.2290909 C238.830084,90.5377425 238.584724,89.8601902 238.111148,89.3549102 C237.637572,88.8496303 236.977316,88.5609403 236.284813,88.5563636 C235.54665,88.5208637 234.825334,88.784382 234.283894,89.2873599 C233.742453,89.7903378 233.426592,90.4903162 233.407701,91.2290909 L238.78984,91.2290909 Z" id="Shape" fill="#4273B8"></path>
                    <path d="M242.411123,89.3686631 C243.030067,88.3871566 244.096925,87.7780847 245.256791,87.7440642 C246.828984,87.7440642 247.725134,88.9284492 247.725134,90.6526203 L247.725134,95.5945455 L246.844706,95.5945455 L246.844706,90.8203209 C246.844706,89.1275936 246.000963,88.5563636 245.052406,88.5563636 C243.93615,88.5563636 242.919465,89.4367914 242.432086,90.3119786 L242.432086,95.6259893 L241.588342,95.6259893 L241.588342,83.5725134 L242.432086,83.5725134 L242.411123,89.3686631 Z" id="Path" fill="#4273B8"></path>
                    <path d="M256.560856,91.7374332 C256.560856,94.3053476 254.831444,95.7308021 252.834759,95.7308021 C250.602246,95.7308021 249.113904,93.933262 249.113904,91.7374332 C249.113904,89.400107 250.769947,87.7440642 252.834759,87.7440642 C254.8,87.7440642 256.560856,89.2324064 256.560856,91.7374332 M249.957647,91.7374332 C249.957647,93.4616043 250.942888,94.9185027 252.803316,94.9185027 C254.663743,94.9185027 255.680428,93.4301604 255.680428,91.7374332 C255.680428,90.0447059 254.632299,88.5563636 252.803316,88.5563636 C250.974332,88.5563636 249.957647,90.0080214 249.957647,91.7374332" id="Shape" fill="#4273B8"></path>
                    <path d="M258.489412,94.2739037 C259.09564,94.6947235 259.816254,94.9196869 260.554225,94.9185027 C261.366524,94.9185027 262.377968,94.577861 262.346524,93.7655615 C262.346524,93.0580749 261.602353,92.5130481 260.417968,92.0728342 C259.097326,91.5487701 257.944385,91.0561497 257.944385,89.8403209 C257.944385,88.624492 259.097326,87.775508 260.617112,87.775508 C261.366021,87.779688 262.101001,87.9783313 262.750053,88.3519786 L262.414652,89.0280214 C261.863978,88.7273903 261.244387,88.575654 260.617112,88.5878075 C259.333155,88.5878075 258.756684,89.2324064 258.756684,89.8717647 C258.756684,90.7207487 259.705241,91.0247059 260.889626,91.4963636 C262.750053,92.2405348 263.158824,93.0685561 263.158824,93.7655615 C263.158824,94.986631 262.005882,95.7308021 260.538503,95.7308021 C259.665858,95.7245763 258.811809,95.4779718 258.07016,95.0180749 L258.489412,94.2739037 Z" id="Path" fill="#4273B8"></path>
                    <path d="M268.876364,87.8750802 L268.876364,88.624492 L266.303209,88.624492 L266.303209,92.8536898 C266.303209,94.1062032 266.827273,94.9185027 267.964492,94.9499465 C268.465692,94.9658287 268.963423,94.8616108 269.41615,94.6459893 L269.657219,95.3901604 C269.107276,95.6113728 268.520562,95.7269377 267.927807,95.7308021 C266.544278,95.7308021 265.428021,94.8818182 265.428021,92.8851337 L265.428021,88.5878075 L264.039251,88.5878075 L264.039251,87.8279144 L265.428021,87.8279144 L265.428021,85.2075936 L266.271765,85.2075936 L266.271765,87.8279144 L268.892086,87.8279144 L268.876364,87.8750802 Z" id="Path" fill="#4273B8"></path>
                </g>
            </g>
        </g>
    </g>
</svg>