<?xml version="1.0" encoding="UTF-8"?>
<svg width="50px" height="30px" viewBox="0 0 50 30" version="1.1" xmlns="http://www.w3.org/2000/svg" xmlns:xlink="http://www.w3.org/1999/xlink">
    <!-- Generator: sketchtool 54.1 (76490) - https://sketchapp.com -->
    <title>776C53BC-B998-48A7-AE04-73E235212828@2x</title>
    <desc>Created with sketchtool.</desc>
    <defs>
        <rect id="path-1" x="0" y="0" width="50" height="50"></rect>
    </defs>
    <g id="Page-1" stroke="none" stroke-width="1" fill="none" fill-rule="evenodd">
        <g id="Desktop-v2-C" transform="translate(-522.000000, -1630.000000)">
            <g id="Features" transform="translate(0.000000, 1232.000000)">
                <g transform="translate(76.000000, 90.000000)" id="Group-16">
                    <g transform="translate(0.000000, 98.000000)">
                        <g id="Group-17">
                            <g id="Group-5" transform="translate(446.000000, 200.000000)">
                                <g id="Paper-Plane-">
                                    <mask id="mask-2" fill="white">
                                        <use xlink:href="#path-1"></use>
                                    </mask>
                                    <g id="Rectangle"></g>
                                    <path d="M47.5599987,35.2293948 L13.5533675,21.30639 L19.4675642,13.4207944 C19.4675642,13.4207944 19.5907767,13.4207944 19.5907767,13.297582 L19.8372015,13.297582 L40.6601025,30.3008976 C40.9065274,30.5473224 41.1529522,30.5473224 41.3993771,30.5473224 C41.7690144,30.5473224 42.1386517,30.42411 42.3850765,30.0544727 C42.7547138,29.561623 42.7547138,28.6991359 42.1386517,28.3294986 L21.3157507,11.4493955 C20.6996885,10.9565458 19.9604139,10.8333333 19.2211394,10.8333333 C18.4818648,10.9565458 17.8658026,11.3261831 17.3729529,11.8190328 L11.0891189,20.3206906 L3.57316052,17.1171674 C3.20352323,16.9939549 2.95709836,16.8707425 2.58746107,16.8707425 C1.10891189,16.8707425 0,17.9796544 0,19.3349911 L0,37.2007937 C0,38.5561305 1.23212432,39.6650424 2.58746107,39.6650424 L46.6975116,39.6650424 C47.929636,39.6650424 48.9153354,38.8025553 49.1617603,37.6936435 C49.2849727,36.707944 48.6689106,35.5990321 47.5599987,35.2293948 Z M2.46424864,37.3240062 L2.3410362,37.3240062 L2.3410362,19.4582036 C2.3410362,19.4582036 2.46424864,19.3349911 2.58746107,19.4582036 L10.9659064,22.9081516 L46.3278744,37.3240062 L2.46424864,37.3240062 Z" id="Shape" fill="#3575D3" fill-rule="nonzero" mask="url(#mask-2)"></path>
                                </g>
                            </g>
                        </g>
                    </g>
                </g>
            </g>
        </g>
    </g>
</svg>