<?xml version="1.0" encoding="UTF-8"?>
<svg width="189px" height="20px" viewBox="0 0 189 20" version="1.1" xmlns="http://www.w3.org/2000/svg" xmlns:xlink="http://www.w3.org/1999/xlink">
    <!-- Generator: sketchtool 55 (78076) - https://sketchapp.com -->
    <title>88341ED6-0842-4304-8C1D-6C7DB9570D50@2x</title>
    <desc>Created with sketchtool.</desc>
    <g id="Page-1" stroke="none" stroke-width="1" fill="none" fill-rule="evenodd">
        <g id="Desktop-v2-C" transform="translate(-80.000000, -512.000000)" fill-rule="nonzero">
            <g id="Hero">
                <g id="Content" transform="translate(80.000000, 230.000000)">
                    <g id="powered-by-bh" transform="translate(0.000000, 282.000000)">
                        <g id="Group" transform="translate(0.000000, 4.000000)" fill="#000000">
                            <path d="M3.01788618,9.25 C2.60162602,9.25 2.23739837,9.2 1.87317073,9.05 C1.50894309,8.9 1.24878049,8.65 0.988617886,8.35 L0.936585366,8.35 C0.988617886,8.7 0.988617886,9.05 0.988617886,9.35 L0.988617886,11.9 L0,11.9 L0,2.95 L0.780487805,2.95 L0.936585366,3.8 L0.988617886,3.8 C1.24878049,3.45 1.50894309,3.2 1.87317073,3.05 C2.18536585,2.9 2.60162602,2.85 3.01788618,2.85 C3.8504065,2.85 4.52682927,3.15 4.99512195,3.7 C5.46341463,4.25 5.67154472,5.05 5.67154472,6.05 C5.67154472,7.05 5.41138211,7.85 4.94308943,8.4 C4.47479675,8.95 3.8504065,9.25 3.01788618,9.25 Z M2.86178862,3.65 C2.18536585,3.65 1.71707317,3.8 1.45691057,4.15 C1.14471545,4.5 0.988617886,5.05 0.988617886,5.8 L0.988617886,6 C0.988617886,6.85 1.14471545,7.5 1.45691057,7.85 C1.76910569,8.2 2.23739837,8.4 2.91382114,8.4 C3.48617886,8.4 3.90243902,8.2 4.21463415,7.75 C4.52682927,7.3 4.68292683,6.7 4.68292683,5.95 C4.68292683,5.2 4.52682927,4.6 4.21463415,4.2 C3.8504065,3.85 3.43414634,3.65 2.86178862,3.65 Z" id="Shape"></path>
                            <path d="M12.8,6.05 C12.8,7.05 12.5398374,7.85 12.0195122,8.4 C11.499187,8.95 10.7707317,9.25 9.83414634,9.25 C9.26178862,9.25 8.74146341,9.1 8.32520325,8.85 C7.85691057,8.6 7.54471545,8.2 7.28455285,7.75 C7.02439024,7.3 6.9203252,6.7 6.9203252,6.05 C6.9203252,5.05 7.1804878,4.25 7.70081301,3.7 C8.22113821,3.15 8.9495935,2.85 9.88617886,2.85 C10.7707317,2.85 11.499187,3.15 12.0195122,3.7 C12.4878049,4.3 12.8,5.05 12.8,6.05 Z M7.90894309,6.05 C7.90894309,6.85 8.06504065,7.45 8.37723577,7.85 C8.68943089,8.25 9.2097561,8.45 9.83414634,8.45 C10.4585366,8.45 10.9268293,8.25 11.2910569,7.85 C11.603252,7.45 11.8113821,6.85 11.8113821,6.05 C11.8113821,5.25 11.6552846,4.65 11.2910569,4.25 C10.9788618,3.85 10.4585366,3.65 9.83414634,3.65 C9.2097561,3.65 8.74146341,3.85 8.37723577,4.25 C8.06504065,4.65 7.90894309,5.25 7.90894309,6.05 Z" id="Shape"></path>
                            <path d="M19.6162602,9.15 L18.4195122,5.55 C18.3674797,5.35 18.2113821,4.85 18.003252,4.05 L17.9512195,4.05 C17.795122,4.7 17.6390244,5.2 17.5349593,5.55 L16.3382114,9.15 L15.1934959,9.15 L13.4243902,3 L14.4650407,3 C14.8813008,4.55 15.1934959,5.75 15.401626,6.55 C15.6097561,7.35 15.7658537,7.9 15.7658537,8.2 L15.8178862,8.2 C15.8699187,8 15.9219512,7.7 16.0260163,7.35 C16.1300813,7 16.1821138,6.75 16.2861789,6.55 L17.4829268,3 L18.5235772,3 L19.6682927,6.55 C19.8764228,7.2 20.0325203,7.75 20.1365854,8.15 L20.1886179,8.15 C20.1886179,8 20.2406504,7.8 20.2926829,7.55 C20.3447154,7.25 20.7609756,5.75 21.4894309,3 L22.4780488,3 L20.7089431,9.15 L19.6162602,9.15 Z" id="Path"></path>
                            <path d="M26.2764228,9.25 C25.3398374,9.25 24.5593496,8.95 24.0390244,8.4 C23.4666667,7.85 23.2065041,7.1 23.2065041,6.1 C23.2065041,5.1 23.4666667,4.3 23.9869919,3.75 C24.5073171,3.2 25.1837398,2.85 26.0162602,2.85 C26.796748,2.85 27.4731707,3.1 27.9414634,3.6 C28.4097561,4.1 28.6178862,4.8 28.6178862,5.6 L28.6178862,6.2 L24.195122,6.2 C24.195122,6.9 24.403252,7.45 24.7674797,7.85 C25.1317073,8.2 25.6520325,8.4 26.2764228,8.4 C26.9528455,8.4 27.6292683,8.25 28.3056911,8 L28.3056911,8.85 C27.9414634,9 27.6292683,9.1 27.3170732,9.15 C27.0569106,9.2 26.6926829,9.25 26.2764228,9.25 Z M26.0162602,3.65 C25.495935,3.65 25.0796748,3.8 24.7674797,4.15 C24.4552846,4.5 24.299187,4.9 24.2471545,5.5 L27.5772358,5.5 C27.5772358,4.9 27.4211382,4.45 27.1609756,4.15 C26.900813,3.85 26.5365854,3.65 26.0162602,3.65 Z" id="Shape"></path>
                            <path d="M33.0926829,2.85 C33.3528455,2.85 33.6130081,2.85 33.8731707,2.9 L33.7170732,3.75 C33.4569106,3.7 33.196748,3.65 33.0406504,3.65 C32.5203252,3.65 32.104065,3.85 31.6878049,4.25 C31.3235772,4.65 31.1154472,5.15 31.1154472,5.75 L31.1154472,9.05 L30.1788618,9.05 L30.1788618,2.9 L30.9593496,2.9 L31.0634146,4.05 L31.1154472,4.05 C31.3756098,3.65 31.6357724,3.35 32,3.1 C32.3121951,2.95 32.6764228,2.85 33.0926829,2.85 Z" id="Path"></path>
                            <path d="M37.6195122,9.25 C36.6829268,9.25 35.902439,8.95 35.3821138,8.4 C34.8097561,7.85 34.5495935,7.1 34.5495935,6.1 C34.5495935,5.1 34.8097561,4.3 35.3300813,3.75 C35.8504065,3.2 36.5268293,2.85 37.3593496,2.85 C38.1398374,2.85 38.8162602,3.1 39.2845528,3.6 C39.7528455,4.1 39.9609756,4.8 39.9609756,5.6 L39.9609756,6.2 L35.5382114,6.2 C35.5382114,6.9 35.7463415,7.45 36.1105691,7.85 C36.4747967,8.2 36.995122,8.4 37.6195122,8.4 C38.295935,8.4 38.9723577,8.25 39.6487805,8 L39.6487805,8.85 C39.2845528,9 38.9723577,9.1 38.6601626,9.15 C38.4520325,9.2 38.0878049,9.25 37.6195122,9.25 Z M37.3593496,3.65 C36.8390244,3.65 36.4227642,3.8 36.1105691,4.15 C35.798374,4.45 35.6422764,4.9 35.5902439,5.5 L38.9203252,5.5 C38.9203252,4.9 38.7642276,4.45 38.504065,4.15 C38.2439024,3.85 37.8796748,3.65 37.3593496,3.65 Z" id="Shape"></path>
                            <path d="M45.8926829,8.3 L45.8406504,8.3 C45.3723577,8.95 44.695935,9.25 43.8113821,9.25 C42.9788618,9.25 42.302439,8.95 41.8341463,8.4 C41.3658537,7.85 41.1577236,7.05 41.1577236,6.05 C41.1577236,5.05 41.3658537,4.25 41.8341463,3.7 C42.302439,3.15 42.9788618,2.85 43.8113821,2.85 C44.695935,2.85 45.3723577,3.15 45.7886179,3.75 L45.8406504,3.75 L45.7886179,3.3 L45.7886179,2.85 L45.7886179,0.35 L46.7772358,0.35 L46.7772358,9.1 L45.996748,9.1 L45.8926829,8.3 Z M43.9674797,8.45 C44.6439024,8.45 45.1121951,8.3 45.4243902,7.95 C45.7365854,7.6 45.8926829,7.05 45.8926829,6.25 L45.8926829,6.05 C45.8926829,5.2 45.7365854,4.55 45.4243902,4.2 C45.1121951,3.85 44.6439024,3.65 43.9674797,3.65 C43.395122,3.65 42.9788618,3.85 42.6666667,4.3 C42.3544715,4.75 42.198374,5.35 42.198374,6.1 C42.198374,6.9 42.3544715,7.5 42.6666667,7.9 C42.9268293,8.25 43.395122,8.45 43.9674797,8.45 Z" id="Shape"></path>
                            <path d="M54.7382114,2.85 C55.5707317,2.85 56.2471545,3.15 56.7154472,3.7 C57.1837398,4.25 57.3918699,5.05 57.3918699,6.05 C57.3918699,7.05 57.1317073,7.85 56.6634146,8.4 C56.195122,8.95 55.5186992,9.25 54.6861789,9.25 C54.2699187,9.25 53.9056911,9.2 53.5414634,9.05 C53.1772358,8.9 52.9170732,8.65 52.6569106,8.35 L52.604878,8.35 L52.396748,9.15 L51.7203252,9.15 L51.7203252,0.4 L52.7089431,0.4 L52.7089431,2.5 C52.7089431,3 52.7089431,3.4 52.6569106,3.8 L52.7089431,3.8 C53.1772358,3.2 53.8536585,2.85 54.7382114,2.85 Z M54.5821138,3.65 C53.9056911,3.65 53.4373984,3.85 53.1252033,4.2 C52.8130081,4.55 52.7089431,5.2 52.7089431,6.05 C52.7089431,6.9 52.8650407,7.55 53.1772358,7.9 C53.4894309,8.25 53.9577236,8.45 54.6341463,8.45 C55.2065041,8.45 55.6747967,8.25 55.9869919,7.8 C56.299187,7.4 56.403252,6.8 56.403252,6 C56.403252,5.2 56.2471545,4.6 55.9869919,4.2 C55.6747967,3.85 55.2065041,3.65 54.5821138,3.65 Z" id="Shape"></path>
                            <path d="M57.9642276,2.95 L59.004878,2.95 L60.4097561,6.45 C60.7219512,7.25 60.9300813,7.85 60.9821138,8.2 L61.0341463,8.2 C61.0861789,8 61.1902439,7.7 61.3463415,7.2 C61.502439,6.75 62.0227642,5.3 62.9593496,2.95 L64,2.95 L61.2422764,9.95 C60.9821138,10.65 60.6699187,11.15 60.3056911,11.45 C59.9414634,11.75 59.4731707,11.9 58.9528455,11.9 C58.6406504,11.9 58.3804878,11.85 58.0682927,11.8 L58.0682927,11.05 C58.2764228,11.1 58.5365854,11.1 58.796748,11.1 C59.4731707,11.1 59.9414634,10.75 60.201626,10 L60.5658537,9.1 L57.9642276,2.95 Z" id="Path"></path>
                        </g>
                        <g id="XMLID_2_" transform="translate(72.000000, 0.000000)">
                            <g id="XMLID_1568_">
                                <g id="Group" fill="#3575D3">
                                    <rect id="XMLID_1623_" x="0.319201774" y="0.473684211" width="5.26682927" height="5.21052632"></rect>
                                    <rect id="XMLID_1622_" x="7.12883962" y="0.473684211" width="5.26682927" height="5.21052632"></rect>
                                    <rect id="XMLID_1621_" x="13.9384775" y="0.473684211" width="5.26682927" height="5.21052632"></rect>
                                    <rect id="XMLID_1620_" x="0.319201774" y="7.26315789" width="5.26682927" height="5.21052632"></rect>
                                    <rect id="XMLID_1619_" x="7.12883962" y="7.26315789" width="5.26682927" height="5.21052632"></rect>
                                    <rect id="XMLID_1618_" x="13.9384775" y="7.26315789" width="5.26682927" height="5.21052632"></rect>
                                    <rect id="XMLID_1617_" x="0.319201774" y="14" width="5.26682927" height="5.21052632"></rect>
                                    <rect id="XMLID_1616_" x="7.12883962" y="14" width="5.26682927" height="5.21052632"></rect>
                                    <rect id="XMLID_1615_" x="13.9384775" y="14" width="5.26682927" height="5.21052632"></rect>
                                </g>
                                <g id="XMLID_1572_" transform="translate(28.196157, 0.000000)" fill="#000000">
                                    <path d="M1.80881005,8.57894737 C2.81961567,7.68421053 4.20282336,7.05263158 5.85203252,7.05263158 C8.5652476,7.05263158 11.1720621,8.89473684 11.1720621,13.2631579 C11.1720621,17.7894737 8.24604582,19.5263158 5.10722838,19.5263158 C3.35161863,19.5263158 1.70240946,19 0.478802661,18.2631579 L0.478802661,0.526315789 L1.80881005,0.526315789 L1.80881005,8.57894737 L1.80881005,8.57894737 Z M1.80881005,17.5263158 C2.92601626,18.1052632 4.04322247,18.3157895 5.00082779,18.3157895 C7.50124169,18.3157895 9.7888544,16.8947368 9.7888544,13.2631579 C9.7888544,10.1052632 7.98004435,8.26315789 5.69243163,8.26315789 C4.14962306,8.26315789 2.71321508,9.10526316 1.80881005,10.1578947 L1.80881005,17.5263158 Z" id="XMLID_1612_"></path>
                                    <rect id="XMLID_1611_" x="13.5128751" y="0.473684211" width="1.2768071" height="18.7894737"></rect>
                                    <path d="M19.3117073,14.5789474 C19.3117073,17.4210526 20.7481153,18.2105263 22.131323,18.2105263 C23.7273319,18.2105263 25.1637398,17.2105263 26.3341463,15.5789474 L26.3341463,7.26315789 L27.6641537,7.26315789 L27.6641537,19.3157895 L26.3341463,19.3157895 L26.3341463,17 C25.2701404,18.4736842 23.567731,19.5263158 21.7057206,19.5263158 C19.79051,19.5263158 17.9284996,18.4210526 17.9284996,14.7894737 L17.9284996,7.31578947 L19.258507,7.31578947 L19.258507,14.5789474 L19.3117073,14.5789474 Z" id="XMLID_1610_"></path>
                                    <path d="M40.5918256,18.4736842 C39.5278197,19.0526316 38.0382114,19.5789474 36.2294013,19.5263158 C32.1329786,19.3684211 30.058167,16.2105263 30.2177679,12.8421053 C30.3773688,9.05263158 33.1969845,7 36.2294013,7.10526316 C39.4746194,7.21052632 41.7090318,9.78947368 41.2834294,13.5789474 L31.5477753,13.5789474 C31.5477753,15.7894737 33.1437842,18.2105263 36.3358019,18.3157895 C37.7722099,18.3684211 39.049017,17.9473684 40.1130229,17.3684211 L40.5918256,18.4736842 Z M40.0066223,12.4736842 C40.0598226,10.3684211 38.5702143,8.36842105 36.0698004,8.31578947 C33.6225868,8.21052632 31.7073762,10 31.5477753,12.4736842 L40.0066223,12.4736842 Z" id="XMLID_1607_"></path>
                                    <path d="M45.699054,9.57894737 C46.7098596,8.10526316 48.3058684,7.05263158 50.1678788,7.05263158 C52.6150924,7.05263158 54.0515004,8.89473684 54.0515004,11.5789474 L54.0515004,19.2631579 L52.6682927,19.2631579 L52.6682927,11.8421053 C52.6682927,9.21052632 51.3382853,8.31578947 49.848677,8.31578947 C48.0930673,8.31578947 46.4970584,9.68421053 45.699054,11.0526316 L45.699054,19.3157895 L44.3690466,19.3157895 L44.3690466,0.526315789 L45.699054,0.526315789 L45.699054,9.57894737 Z" id="XMLID_1606_"></path>
                                    <path d="M67.9367775,13.2631579 C67.9367775,17.2631579 65.2235625,19.4736842 62.084745,19.4736842 C58.5735255,19.4736842 56.2327125,16.6842105 56.2327125,13.2631579 C56.2327125,9.63157895 58.839527,7.05263158 62.084745,7.05263158 C65.1703622,7.05263158 67.9367775,9.36842105 67.9367775,13.2631579 M57.5627199,13.2631579 C57.5627199,15.9473684 59.1055285,18.2105263 62.0315447,18.2105263 C64.8511604,18.2105263 66.5535698,15.8947368 66.5535698,13.2631579 C66.5535698,10.5789474 64.9043607,8.31578947 62.0315447,8.31578947 C59.1587288,8.31578947 57.5627199,10.5789474 57.5627199,13.2631579" id="XMLID_1587_"></path>
                                    <path d="M70.9691944,17.2105263 C71.98,17.8947368 73.0972062,18.2105263 74.2144124,18.2105263 C75.4912195,18.2105263 77.0872284,17.6842105 77.0340281,16.4210526 C77.0340281,15.3157895 75.8636216,14.4736842 74.0016112,13.7894737 C71.9267997,13 70.1179897,12.2105263 70.1179897,10.3157895 C70.1179897,8.42105263 71.9267997,7.10526316 74.320813,7.10526316 C75.5976201,7.10526316 76.7148263,7.47368421 77.6724316,8 L77.1404287,9.05263158 C76.3956245,8.63157895 75.4380192,8.36842105 74.320813,8.36842105 C72.2992018,8.36842105 71.3947967,9.36842105 71.3947967,10.3684211 C71.3947967,11.6842105 72.884405,12.1578947 74.7464154,12.8947368 C77.6724316,14.0526316 78.3108352,15.3157895 78.3108352,16.4210526 C78.3108352,18.3157895 76.5020251,19.4736842 74.1612121,19.4736842 C72.8312047,19.4736842 71.5011973,19.1052632 70.2775905,18.3684211 L70.9691944,17.2105263 Z" id="XMLID_1577_"></path>
                                    <path d="M87.3016851,7.26315789 L87.3016851,8.42105263 L83.2584627,8.42105263 L83.2584627,15 C83.2584627,16.9473684 84.1096674,18.2105263 85.8652772,18.2631579 C86.6100813,18.3157895 87.4080857,18.1052632 88.1528899,17.7894737 L88.5252919,18.9473684 C87.7272875,19.2631579 86.7696822,19.4736842 85.8120769,19.4736842 C83.6308647,19.4736842 81.875255,18.1578947 81.875255,15.0526316 L81.875255,8.36842105 L79.6940429,8.36842105 L79.6940429,7.21052632 L81.875255,7.21052632 L81.875255,3.15789474 L83.2052624,3.15789474 L83.2052624,7.21052632 L87.3016851,7.21052632 L87.3016851,7.26315789 Z" id="XMLID_1574_"></path>
                                </g>
                            </g>
                        </g>
                    </g>
                </g>
            </g>
        </g>
    </g>
</svg>